<mxfile host="app.diagrams.net" modified="2024-05-05T19:15:12.222Z" agent="Mozilla/5.0 (Windows NT 10.0; Win64; x64; rv:125.0) Gecko/20100101 Firefox/125.0" etag="omCxiho53-RBuwQYPgvl" version="24.0.7" type="device">
  <diagram name="Pagina-1" id="BDuLDOLjSueXj4ciQmOc">
    <mxGraphModel dx="-906" dy="-2540" grid="1" gridSize="10" guides="1" tooltips="1" connect="1" arrows="1" fold="1" page="1" pageScale="1" pageWidth="2336" pageHeight="1654" math="0" shadow="0">
      <root>
        <mxCell id="0" />
        <mxCell id="1" parent="0" />
        <mxCell id="KVN5aAIuWyYufAwevNIm-32" value="" style="rounded=0;whiteSpace=wrap;html=1;fillColor=none;strokeColor=#CCCCCC;" vertex="1" parent="1">
          <mxGeometry x="3181" y="4020" width="40" height="140" as="geometry" />
        </mxCell>
        <mxCell id="KVN5aAIuWyYufAwevNIm-33" value="" style="rounded=0;whiteSpace=wrap;html=1;fillColor=none;strokeColor=#CCCCCC;" vertex="1" parent="1">
          <mxGeometry x="3141" y="4020" width="40" height="140" as="geometry" />
        </mxCell>
        <mxCell id="fjqOqR68Di9mBrLPFcl0-109" value="" style="rounded=0;whiteSpace=wrap;html=1;fillColor=none;strokeColor=#CCCCCC;" parent="1" vertex="1">
          <mxGeometry x="2600" y="4020" width="40" height="140" as="geometry" />
        </mxCell>
        <mxCell id="fjqOqR68Di9mBrLPFcl0-110" value="" style="rounded=0;whiteSpace=wrap;html=1;fillColor=none;strokeColor=#CCCCCC;" parent="1" vertex="1">
          <mxGeometry x="2640" y="4020" width="40" height="140" as="geometry" />
        </mxCell>
        <mxCell id="fjqOqR68Di9mBrLPFcl0-111" value="" style="rounded=0;whiteSpace=wrap;html=1;fillColor=none;strokeColor=#CCCCCC;" parent="1" vertex="1">
          <mxGeometry x="2680" y="4020" width="40" height="140" as="geometry" />
        </mxCell>
        <mxCell id="fjqOqR68Di9mBrLPFcl0-112" value="" style="rounded=0;whiteSpace=wrap;html=1;fillColor=none;strokeColor=#CCCCCC;" parent="1" vertex="1">
          <mxGeometry x="2720" y="4020" width="40" height="140" as="geometry" />
        </mxCell>
        <mxCell id="fjqOqR68Di9mBrLPFcl0-113" value="" style="rounded=0;whiteSpace=wrap;html=1;fillColor=none;strokeColor=#CCCCCC;" parent="1" vertex="1">
          <mxGeometry x="2760" y="4020" width="40" height="140" as="geometry" />
        </mxCell>
        <mxCell id="fjqOqR68Di9mBrLPFcl0-114" value="" style="rounded=0;whiteSpace=wrap;html=1;fillColor=none;strokeColor=#CCCCCC;" parent="1" vertex="1">
          <mxGeometry x="2800" y="4020" width="40" height="140" as="geometry" />
        </mxCell>
        <mxCell id="fjqOqR68Di9mBrLPFcl0-12" value="command 1" style="rounded=1;whiteSpace=wrap;html=1;fillColor=#f5f5f5;verticalAlign=top;spacing=-1;fontFamily=Open Sans;fontSource=https%3A%2F%2Ffonts.googleapis.com%2Fcss%3Ffamily%3DOpen%2BSans;fontColor=#333333;strokeColor=#666666;" parent="1" vertex="1">
          <mxGeometry x="3860" y="3620" width="100" height="230" as="geometry" />
        </mxCell>
        <mxCell id="yowPaCR3Sc_YnCvZpUB5-1" style="edgeStyle=orthogonalEdgeStyle;rounded=0;orthogonalLoop=1;jettySize=auto;html=1;endArrow=block;endFill=1;strokeWidth=1.5;" parent="1" source="yowPaCR3Sc_YnCvZpUB5-2" target="yowPaCR3Sc_YnCvZpUB5-14" edge="1">
          <mxGeometry relative="1" as="geometry">
            <Array as="points">
              <mxPoint x="2520" y="3440" />
              <mxPoint x="2520" y="3440" />
            </Array>
            <mxPoint x="2520" y="3440" as="sourcePoint" />
          </mxGeometry>
        </mxCell>
        <mxCell id="yowPaCR3Sc_YnCvZpUB5-2" value="&lt;font face=&quot;Open Sans&quot;&gt;Sched. Plan&lt;/font&gt;" style="rounded=1;whiteSpace=wrap;html=1;strokeWidth=1.5;fillColor=#fff2cc;strokeColor=#d6b656;" parent="1" vertex="1">
          <mxGeometry x="2470" y="3390" width="100" height="30" as="geometry" />
        </mxCell>
        <mxCell id="yowPaCR3Sc_YnCvZpUB5-3" style="edgeStyle=orthogonalEdgeStyle;rounded=0;orthogonalLoop=1;jettySize=auto;html=1;endArrow=block;endFill=1;strokeWidth=1.5;" parent="1" source="yowPaCR3Sc_YnCvZpUB5-4" target="yowPaCR3Sc_YnCvZpUB5-14" edge="1">
          <mxGeometry relative="1" as="geometry">
            <mxPoint x="2630" y="3440" as="sourcePoint" />
            <mxPoint x="2600" y="3460" as="targetPoint" />
            <Array as="points">
              <mxPoint x="2630" y="3440" />
              <mxPoint x="2630" y="3440" />
            </Array>
          </mxGeometry>
        </mxCell>
        <mxCell id="yowPaCR3Sc_YnCvZpUB5-4" value="&lt;font face=&quot;Open Sans&quot;&gt;Scheduler&lt;/font&gt;" style="rounded=1;whiteSpace=wrap;html=1;strokeWidth=1.5;fillColor=#fff2cc;strokeColor=#d6b656;" parent="1" vertex="1">
          <mxGeometry x="2580" y="3390" width="100" height="30" as="geometry" />
        </mxCell>
        <mxCell id="yowPaCR3Sc_YnCvZpUB5-14" value="&lt;b&gt;&lt;font face=&quot;Open Sans&quot;&gt;Simulator&lt;/font&gt;&lt;/b&gt;" style="rounded=1;whiteSpace=wrap;html=1;fillColor=#dae8fc;strokeColor=#0066CC;verticalAlign=top;strokeWidth=1.5;" parent="1" vertex="1">
          <mxGeometry x="2490" y="3450" width="170" height="100" as="geometry" />
        </mxCell>
        <mxCell id="yowPaCR3Sc_YnCvZpUB5-17" style="edgeStyle=orthogonalEdgeStyle;rounded=1;orthogonalLoop=1;jettySize=auto;html=1;endArrow=block;endFill=1;entryX=0.5;entryY=0;entryDx=0;entryDy=0;strokeWidth=1.5;curved=0;" parent="1" source="yowPaCR3Sc_YnCvZpUB5-14" target="yowPaCR3Sc_YnCvZpUB5-12" edge="1">
          <mxGeometry relative="1" as="geometry">
            <Array as="points">
              <mxPoint x="2520" y="3566" />
              <mxPoint x="2475" y="3566" />
              <mxPoint x="2475" y="3590" />
            </Array>
            <mxPoint x="2750" y="3500" as="sourcePoint" />
            <mxPoint x="2750" y="3520" as="targetPoint" />
          </mxGeometry>
        </mxCell>
        <mxCell id="yowPaCR3Sc_YnCvZpUB5-12" value="&lt;font face=&quot;Open Sans&quot;&gt;Schedule&lt;/font&gt;" style="rounded=1;whiteSpace=wrap;html=1;strokeWidth=1.5;fillColor=#e1d5e7;strokeColor=#9673a6;" parent="1" vertex="1">
          <mxGeometry x="2442.3799999999997" y="3590" width="65.625" height="30" as="geometry" />
        </mxCell>
        <mxCell id="yowPaCR3Sc_YnCvZpUB5-13" value="&lt;font face=&quot;Open Sans&quot;&gt;LaTeX/Tikz&lt;/font&gt;" style="rounded=1;whiteSpace=wrap;html=1;strokeWidth=1.5;fillColor=#e1d5e7;strokeColor=#9673a6;" parent="1" vertex="1">
          <mxGeometry x="2542" y="3590" width="65.625" height="30" as="geometry" />
        </mxCell>
        <mxCell id="yowPaCR3Sc_YnCvZpUB5-18" value="&lt;font face=&quot;Open Sans&quot;&gt;Data&lt;/font&gt;" style="rounded=1;whiteSpace=wrap;html=1;strokeWidth=1.5;fillColor=#e1d5e7;strokeColor=#9673a6;" parent="1" vertex="1">
          <mxGeometry x="2642.005" y="3590" width="65.625" height="30" as="geometry" />
        </mxCell>
        <mxCell id="yowPaCR3Sc_YnCvZpUB5-21" value="" style="endArrow=none;html=1;rounded=0;entryX=0;entryY=0.25;entryDx=0;entryDy=0;exitX=1;exitY=0.25;exitDx=0;exitDy=0;fillColor=#dae8fc;strokeColor=#0066CC;strokeWidth=1.5;" parent="1" source="yowPaCR3Sc_YnCvZpUB5-14" target="yowPaCR3Sc_YnCvZpUB5-14" edge="1">
          <mxGeometry width="50" height="50" relative="1" as="geometry">
            <mxPoint x="2710" y="3470" as="sourcePoint" />
            <mxPoint x="2660" y="3530" as="targetPoint" />
          </mxGeometry>
        </mxCell>
        <mxCell id="yowPaCR3Sc_YnCvZpUB5-23" style="edgeStyle=orthogonalEdgeStyle;rounded=1;orthogonalLoop=1;jettySize=auto;html=1;endArrow=block;endFill=1;strokeWidth=1.5;curved=0;" parent="1" source="yowPaCR3Sc_YnCvZpUB5-14" target="yowPaCR3Sc_YnCvZpUB5-13" edge="1">
          <mxGeometry relative="1" as="geometry">
            <Array as="points" />
            <mxPoint x="2513" y="3560" as="sourcePoint" />
            <mxPoint x="2513" y="3590" as="targetPoint" />
          </mxGeometry>
        </mxCell>
        <mxCell id="yowPaCR3Sc_YnCvZpUB5-24" style="edgeStyle=orthogonalEdgeStyle;rounded=1;orthogonalLoop=1;jettySize=auto;html=1;endArrow=block;endFill=1;entryX=0.5;entryY=0;entryDx=0;entryDy=0;strokeWidth=1.5;curved=0;" parent="1" source="yowPaCR3Sc_YnCvZpUB5-14" target="yowPaCR3Sc_YnCvZpUB5-18" edge="1">
          <mxGeometry relative="1" as="geometry">
            <Array as="points">
              <mxPoint x="2630" y="3566" />
              <mxPoint x="2675" y="3566" />
              <mxPoint x="2675" y="3590" />
            </Array>
            <mxPoint x="2523" y="3570" as="sourcePoint" />
            <mxPoint x="2523" y="3600" as="targetPoint" />
          </mxGeometry>
        </mxCell>
        <mxCell id="yowPaCR3Sc_YnCvZpUB5-25" value="events" style="text;html=1;align=center;verticalAlign=middle;whiteSpace=wrap;rounded=0;fontFamily=Open Sans;fontSource=https%3A%2F%2Ffonts.googleapis.com%2Fcss%3Ffamily%3DOpen%2BSans;horizontal=0;fontColor=#6C8EBF;strokeWidth=1.5;" parent="1" vertex="1">
          <mxGeometry x="2490" y="3496.4600000000005" width="45.18" height="30" as="geometry" />
        </mxCell>
        <mxCell id="yowPaCR3Sc_YnCvZpUB5-26" value="&lt;font color=&quot;#6c8ebf&quot;&gt;tick&lt;/font&gt;" style="rounded=1;whiteSpace=wrap;html=1;fillColor=#dae8fc;strokeColor=#6c8ebf;strokeWidth=1.5;" parent="1" vertex="1">
          <mxGeometry x="2590" y="3504" width="50" height="16" as="geometry" />
        </mxCell>
        <mxCell id="yowPaCR3Sc_YnCvZpUB5-27" style="edgeStyle=orthogonalEdgeStyle;rounded=1;orthogonalLoop=1;jettySize=auto;html=1;endArrow=block;endFill=1;exitX=0.5;exitY=0;exitDx=0;exitDy=0;fillColor=#dae8fc;strokeColor=#6c8ebf;curved=0;strokeWidth=1.5;" parent="1" source="yowPaCR3Sc_YnCvZpUB5-26" target="HVIblqkIwL3Zdl4aHF7H-18" edge="1">
          <mxGeometry relative="1" as="geometry">
            <Array as="points">
              <mxPoint x="2615" y="3490" />
            </Array>
            <mxPoint x="2657" y="3560" as="sourcePoint" />
            <mxPoint x="2557" y="3490" as="targetPoint" />
          </mxGeometry>
        </mxCell>
        <mxCell id="yowPaCR3Sc_YnCvZpUB5-28" style="edgeStyle=orthogonalEdgeStyle;rounded=1;orthogonalLoop=1;jettySize=auto;html=1;endArrow=block;endFill=1;entryX=0.5;entryY=1;entryDx=0;entryDy=0;fillColor=#dae8fc;strokeColor=#6c8ebf;curved=0;strokeWidth=1.5;" parent="1" source="HVIblqkIwL3Zdl4aHF7H-18" target="yowPaCR3Sc_YnCvZpUB5-26" edge="1">
          <mxGeometry relative="1" as="geometry">
            <Array as="points">
              <mxPoint x="2615" y="3536" />
            </Array>
            <mxPoint x="2555" y="3536" as="sourcePoint" />
            <mxPoint x="2567" y="3500" as="targetPoint" />
          </mxGeometry>
        </mxCell>
        <mxCell id="yowPaCR3Sc_YnCvZpUB5-29" style="edgeStyle=orthogonalEdgeStyle;rounded=1;orthogonalLoop=1;jettySize=auto;html=1;endArrow=block;endFill=1;strokeWidth=1.5;curved=0;" parent="1" source="yowPaCR3Sc_YnCvZpUB5-30" target="yowPaCR3Sc_YnCvZpUB5-33" edge="1">
          <mxGeometry relative="1" as="geometry">
            <Array as="points">
              <mxPoint x="2920" y="3510" />
              <mxPoint x="2920" y="3510" />
            </Array>
            <mxPoint x="2920" y="3510" as="sourcePoint" />
          </mxGeometry>
        </mxCell>
        <mxCell id="yowPaCR3Sc_YnCvZpUB5-30" value="&lt;font face=&quot;Open Sans&quot;&gt;Sched. Plan&lt;/font&gt;" style="rounded=1;whiteSpace=wrap;html=1;fillColor=#d5e8d4;strokeColor=#82b366;strokeWidth=1.5;" parent="1" vertex="1">
          <mxGeometry x="2870" y="3470" width="100" height="30" as="geometry" />
        </mxCell>
        <mxCell id="yowPaCR3Sc_YnCvZpUB5-31" style="edgeStyle=orthogonalEdgeStyle;rounded=1;orthogonalLoop=1;jettySize=auto;html=1;endArrow=block;endFill=1;strokeWidth=1.5;curved=0;" parent="1" source="yowPaCR3Sc_YnCvZpUB5-32" target="yowPaCR3Sc_YnCvZpUB5-33" edge="1">
          <mxGeometry relative="1" as="geometry">
            <mxPoint x="3030" y="3510" as="sourcePoint" />
            <mxPoint x="3000" y="3530" as="targetPoint" />
            <Array as="points">
              <mxPoint x="3030" y="3510" />
              <mxPoint x="3030" y="3510" />
            </Array>
          </mxGeometry>
        </mxCell>
        <mxCell id="yowPaCR3Sc_YnCvZpUB5-32" value="&lt;font face=&quot;Open Sans&quot;&gt;Scheduler&lt;/font&gt;" style="rounded=1;whiteSpace=wrap;html=1;fillColor=#fff2cc;strokeColor=#d6b656;strokeWidth=1.5;" parent="1" vertex="1">
          <mxGeometry x="2980" y="3470" width="100" height="30" as="geometry" />
        </mxCell>
        <mxCell id="yowPaCR3Sc_YnCvZpUB5-33" value="&lt;font face=&quot;Open Sans&quot;&gt;Simulator&lt;/font&gt;" style="rounded=1;whiteSpace=wrap;html=1;fillColor=#dae8fc;strokeColor=#0066CC;verticalAlign=top;strokeWidth=1.5;fontStyle=1" parent="1" vertex="1">
          <mxGeometry x="2890" y="3520" width="170" height="30" as="geometry" />
        </mxCell>
        <mxCell id="yowPaCR3Sc_YnCvZpUB5-34" style="edgeStyle=orthogonalEdgeStyle;rounded=1;orthogonalLoop=1;jettySize=auto;html=1;endArrow=block;endFill=1;entryX=0.5;entryY=0;entryDx=0;entryDy=0;strokeWidth=1.5;curved=0;" parent="1" source="yowPaCR3Sc_YnCvZpUB5-33" target="yowPaCR3Sc_YnCvZpUB5-35" edge="1">
          <mxGeometry relative="1" as="geometry">
            <Array as="points">
              <mxPoint x="2920" y="3566" />
              <mxPoint x="2877" y="3566" />
              <mxPoint x="2877" y="3590" />
            </Array>
            <mxPoint x="3150" y="3570" as="sourcePoint" />
            <mxPoint x="3150" y="3590" as="targetPoint" />
          </mxGeometry>
        </mxCell>
        <mxCell id="yowPaCR3Sc_YnCvZpUB5-35" value="&lt;font face=&quot;Open Sans&quot;&gt;Schedule&lt;/font&gt;" style="rounded=1;whiteSpace=wrap;html=1;strokeWidth=1.5;fillColor=#e1d5e7;strokeColor=#9673a6;" parent="1" vertex="1">
          <mxGeometry x="2844.37" y="3590" width="65.625" height="30" as="geometry" />
        </mxCell>
        <mxCell id="yowPaCR3Sc_YnCvZpUB5-36" value="&lt;font face=&quot;Open Sans&quot;&gt;LaTeX/Tikz&lt;/font&gt;" style="rounded=1;whiteSpace=wrap;html=1;strokeWidth=1.5;fillColor=#e1d5e7;strokeColor=#9673a6;" parent="1" vertex="1">
          <mxGeometry x="2941.99" y="3590" width="65.625" height="30" as="geometry" />
        </mxCell>
        <mxCell id="yowPaCR3Sc_YnCvZpUB5-37" value="&lt;font face=&quot;Open Sans&quot;&gt;Data&lt;/font&gt;" style="rounded=1;whiteSpace=wrap;html=1;strokeWidth=1.5;fillColor=#e1d5e7;strokeColor=#9673a6;" parent="1" vertex="1">
          <mxGeometry x="3039.995" y="3590" width="65.625" height="30" as="geometry" />
        </mxCell>
        <mxCell id="yowPaCR3Sc_YnCvZpUB5-40" style="edgeStyle=orthogonalEdgeStyle;rounded=1;orthogonalLoop=1;jettySize=auto;html=1;endArrow=block;endFill=1;strokeWidth=1.5;curved=0;" parent="1" source="yowPaCR3Sc_YnCvZpUB5-33" target="yowPaCR3Sc_YnCvZpUB5-36" edge="1">
          <mxGeometry relative="1" as="geometry">
            <Array as="points" />
            <mxPoint x="2913" y="3630" as="sourcePoint" />
            <mxPoint x="2913" y="3660" as="targetPoint" />
          </mxGeometry>
        </mxCell>
        <mxCell id="yowPaCR3Sc_YnCvZpUB5-41" style="edgeStyle=orthogonalEdgeStyle;rounded=1;orthogonalLoop=1;jettySize=auto;html=1;endArrow=block;endFill=1;entryX=0.5;entryY=0;entryDx=0;entryDy=0;strokeWidth=1.5;curved=0;" parent="1" source="yowPaCR3Sc_YnCvZpUB5-33" target="yowPaCR3Sc_YnCvZpUB5-37" edge="1">
          <mxGeometry relative="1" as="geometry">
            <Array as="points">
              <mxPoint x="3030" y="3566" />
              <mxPoint x="3073" y="3566" />
              <mxPoint x="3073" y="3590" />
            </Array>
            <mxPoint x="2923" y="3640" as="sourcePoint" />
            <mxPoint x="2923" y="3670" as="targetPoint" />
          </mxGeometry>
        </mxCell>
        <mxCell id="yowPaCR3Sc_YnCvZpUB5-46" value="&lt;font face=&quot;Open Sans&quot;&gt;Generator&lt;/font&gt;" style="rounded=1;whiteSpace=wrap;html=1;fillColor=#f8cecc;strokeColor=#b85450;strokeWidth=1.5;fontStyle=1" parent="1" vertex="1">
          <mxGeometry x="2770" y="3410" width="110" height="30" as="geometry" />
        </mxCell>
        <mxCell id="yowPaCR3Sc_YnCvZpUB5-47" value="&lt;font face=&quot;Open Sans&quot;&gt;Fixtures&lt;/font&gt;" style="rounded=1;whiteSpace=wrap;html=1;fillColor=#f8cecc;strokeColor=#b85450;strokeWidth=1.5;" parent="1" vertex="1">
          <mxGeometry x="2960" y="3410" width="72.19" height="30" as="geometry" />
        </mxCell>
        <mxCell id="yowPaCR3Sc_YnCvZpUB5-48" value="" style="shape=xor;whiteSpace=wrap;html=1;rotation=90;fillColor=#d5e8d4;strokeColor=#82b366;strokeWidth=1.5;" parent="1" vertex="1">
          <mxGeometry x="2910" y="3440" width="20" height="40" as="geometry" />
        </mxCell>
        <mxCell id="yowPaCR3Sc_YnCvZpUB5-49" style="edgeStyle=orthogonalEdgeStyle;rounded=1;orthogonalLoop=1;jettySize=auto;html=1;entryX=0.175;entryY=0.75;entryDx=0;entryDy=0;entryPerimeter=0;endArrow=block;endFill=1;strokeWidth=1.5;curved=0;" parent="1" source="yowPaCR3Sc_YnCvZpUB5-46" target="yowPaCR3Sc_YnCvZpUB5-48" edge="1">
          <mxGeometry relative="1" as="geometry" />
        </mxCell>
        <mxCell id="yowPaCR3Sc_YnCvZpUB5-50" style="edgeStyle=orthogonalEdgeStyle;rounded=1;orthogonalLoop=1;jettySize=auto;html=1;entryX=0.175;entryY=0.25;entryDx=0;entryDy=0;entryPerimeter=0;endArrow=block;endFill=1;strokeWidth=1.5;curved=0;" parent="1" source="yowPaCR3Sc_YnCvZpUB5-47" target="yowPaCR3Sc_YnCvZpUB5-48" edge="1">
          <mxGeometry relative="1" as="geometry" />
        </mxCell>
        <mxCell id="yowPaCR3Sc_YnCvZpUB5-52" style="edgeStyle=orthogonalEdgeStyle;rounded=1;orthogonalLoop=1;jettySize=auto;html=1;endArrow=block;endFill=1;strokeWidth=1.5;curved=0;" parent="1" source="yowPaCR3Sc_YnCvZpUB5-51" target="yowPaCR3Sc_YnCvZpUB5-46" edge="1">
          <mxGeometry relative="1" as="geometry" />
        </mxCell>
        <mxCell id="yowPaCR3Sc_YnCvZpUB5-51" value="&lt;font face=&quot;Open Sans&quot;&gt;Value Ranges&lt;br&gt;&lt;/font&gt;" style="rounded=1;whiteSpace=wrap;html=1;fillColor=#fff2cc;strokeColor=#d6b656;strokeWidth=1.5;" parent="1" vertex="1">
          <mxGeometry x="2780" y="3360" width="90" height="30" as="geometry" />
        </mxCell>
        <mxCell id="yowPaCR3Sc_YnCvZpUB5-53" value="&lt;font face=&quot;Open Sans&quot;&gt;Custom Plan&lt;br&gt;&lt;/font&gt;" style="rounded=1;whiteSpace=wrap;html=1;direction=west;fillColor=#fff2cc;strokeColor=#d6b656;strokeWidth=1.5;" parent="1" vertex="1">
          <mxGeometry x="2877.5" y="3360" width="85" height="30" as="geometry" />
        </mxCell>
        <mxCell id="yowPaCR3Sc_YnCvZpUB5-54" style="edgeStyle=orthogonalEdgeStyle;rounded=1;orthogonalLoop=1;jettySize=auto;html=1;entryX=0.25;entryY=0.5;entryDx=0;entryDy=0;entryPerimeter=0;endArrow=block;endFill=1;strokeWidth=1.5;curved=0;" parent="1" source="yowPaCR3Sc_YnCvZpUB5-53" target="yowPaCR3Sc_YnCvZpUB5-48" edge="1">
          <mxGeometry relative="1" as="geometry">
            <Array as="points">
              <mxPoint x="2920" y="3375" />
            </Array>
          </mxGeometry>
        </mxCell>
        <mxCell id="yowPaCR3Sc_YnCvZpUB5-55" style="edgeStyle=orthogonalEdgeStyle;rounded=0;orthogonalLoop=1;jettySize=auto;html=1;endArrow=block;endFill=1;" parent="1" source="yowPaCR3Sc_YnCvZpUB5-56" target="yowPaCR3Sc_YnCvZpUB5-59" edge="1">
          <mxGeometry relative="1" as="geometry">
            <Array as="points">
              <mxPoint x="3280" y="3510" />
              <mxPoint x="3280" y="3510" />
            </Array>
            <mxPoint x="3280" y="3510" as="sourcePoint" />
          </mxGeometry>
        </mxCell>
        <mxCell id="yowPaCR3Sc_YnCvZpUB5-56" value="&lt;font face=&quot;Open Sans&quot;&gt;Sched. Plan&lt;/font&gt;" style="rounded=1;whiteSpace=wrap;html=1;" parent="1" vertex="1">
          <mxGeometry x="3230" y="3470" width="100" height="30" as="geometry" />
        </mxCell>
        <mxCell id="yowPaCR3Sc_YnCvZpUB5-57" style="edgeStyle=orthogonalEdgeStyle;rounded=0;orthogonalLoop=1;jettySize=auto;html=1;endArrow=block;endFill=1;" parent="1" source="yowPaCR3Sc_YnCvZpUB5-58" target="yowPaCR3Sc_YnCvZpUB5-59" edge="1">
          <mxGeometry relative="1" as="geometry">
            <mxPoint x="3390" y="3510" as="sourcePoint" />
            <mxPoint x="3360" y="3530" as="targetPoint" />
            <Array as="points">
              <mxPoint x="3390" y="3510" />
              <mxPoint x="3390" y="3510" />
            </Array>
          </mxGeometry>
        </mxCell>
        <mxCell id="yowPaCR3Sc_YnCvZpUB5-58" value="&lt;font face=&quot;Open Sans&quot;&gt;Scheduler&lt;/font&gt;" style="rounded=1;whiteSpace=wrap;html=1;fillColor=#d5e8d4;strokeColor=#82b366;" parent="1" vertex="1">
          <mxGeometry x="3340" y="3470" width="100" height="30" as="geometry" />
        </mxCell>
        <mxCell id="yowPaCR3Sc_YnCvZpUB5-59" value="&lt;font face=&quot;Open Sans&quot;&gt;Simulator&lt;/font&gt;" style="rounded=1;whiteSpace=wrap;html=1;fillColor=#dae8fc;strokeColor=#0066CC;verticalAlign=top;" parent="1" vertex="1">
          <mxGeometry x="3250" y="3520" width="170" height="30" as="geometry" />
        </mxCell>
        <mxCell id="yowPaCR3Sc_YnCvZpUB5-60" style="edgeStyle=orthogonalEdgeStyle;rounded=0;orthogonalLoop=1;jettySize=auto;html=1;endArrow=block;endFill=1;entryX=0.5;entryY=0;entryDx=0;entryDy=0;" parent="1" source="yowPaCR3Sc_YnCvZpUB5-59" target="yowPaCR3Sc_YnCvZpUB5-61" edge="1">
          <mxGeometry relative="1" as="geometry">
            <Array as="points">
              <mxPoint x="3263" y="3560" />
              <mxPoint x="3263" y="3560" />
            </Array>
            <mxPoint x="3510" y="3570" as="sourcePoint" />
            <mxPoint x="3510" y="3590" as="targetPoint" />
          </mxGeometry>
        </mxCell>
        <mxCell id="yowPaCR3Sc_YnCvZpUB5-61" value="&lt;font face=&quot;Open Sans&quot;&gt;Schedule&lt;/font&gt;" style="rounded=1;whiteSpace=wrap;html=1;" parent="1" vertex="1">
          <mxGeometry x="3230" y="3570" width="65.625" height="30" as="geometry" />
        </mxCell>
        <mxCell id="yowPaCR3Sc_YnCvZpUB5-62" value="&lt;font face=&quot;Open Sans&quot;&gt;LaTeX/Tikz&lt;/font&gt;" style="rounded=1;whiteSpace=wrap;html=1;" parent="1" vertex="1">
          <mxGeometry x="3302.1875" y="3570" width="65.625" height="30" as="geometry" />
        </mxCell>
        <mxCell id="yowPaCR3Sc_YnCvZpUB5-63" value="&lt;font face=&quot;Open Sans&quot;&gt;Data&lt;/font&gt;" style="rounded=1;whiteSpace=wrap;html=1;" parent="1" vertex="1">
          <mxGeometry x="3374.375" y="3570" width="65.625" height="30" as="geometry" />
        </mxCell>
        <mxCell id="yowPaCR3Sc_YnCvZpUB5-64" style="edgeStyle=orthogonalEdgeStyle;rounded=0;orthogonalLoop=1;jettySize=auto;html=1;endArrow=block;endFill=1;" parent="1" source="yowPaCR3Sc_YnCvZpUB5-59" target="yowPaCR3Sc_YnCvZpUB5-62" edge="1">
          <mxGeometry relative="1" as="geometry">
            <Array as="points" />
            <mxPoint x="3273" y="3630" as="sourcePoint" />
            <mxPoint x="3273" y="3660" as="targetPoint" />
          </mxGeometry>
        </mxCell>
        <mxCell id="yowPaCR3Sc_YnCvZpUB5-65" style="edgeStyle=orthogonalEdgeStyle;rounded=0;orthogonalLoop=1;jettySize=auto;html=1;endArrow=block;endFill=1;entryX=0.5;entryY=0;entryDx=0;entryDy=0;" parent="1" source="yowPaCR3Sc_YnCvZpUB5-59" target="yowPaCR3Sc_YnCvZpUB5-63" edge="1">
          <mxGeometry relative="1" as="geometry">
            <Array as="points">
              <mxPoint x="3407" y="3570" />
              <mxPoint x="3407" y="3570" />
            </Array>
            <mxPoint x="3283" y="3640" as="sourcePoint" />
            <mxPoint x="3283" y="3670" as="targetPoint" />
          </mxGeometry>
        </mxCell>
        <mxCell id="yowPaCR3Sc_YnCvZpUB5-81" value="" style="group" parent="1" vertex="1" connectable="0">
          <mxGeometry x="3274" y="3330" width="230" height="110" as="geometry" />
        </mxCell>
        <mxCell id="yowPaCR3Sc_YnCvZpUB5-75" value="&lt;font face=&quot;Open Sans&quot;&gt;CFS&lt;/font&gt;" style="rounded=1;whiteSpace=wrap;html=1;" parent="yowPaCR3Sc_YnCvZpUB5-81" vertex="1">
          <mxGeometry x="80" width="70" height="30" as="geometry" />
        </mxCell>
        <mxCell id="yowPaCR3Sc_YnCvZpUB5-76" value="&lt;font face=&quot;Open Sans&quot;&gt;FIFO&lt;/font&gt;" style="rounded=1;whiteSpace=wrap;html=1;" parent="yowPaCR3Sc_YnCvZpUB5-81" vertex="1">
          <mxGeometry x="40" y="40" width="70" height="30" as="geometry" />
        </mxCell>
        <mxCell id="yowPaCR3Sc_YnCvZpUB5-77" value="&lt;font face=&quot;Open Sans&quot;&gt;HRRN&lt;/font&gt;" style="rounded=1;whiteSpace=wrap;html=1;" parent="yowPaCR3Sc_YnCvZpUB5-81" vertex="1">
          <mxGeometry y="80" width="70" height="30" as="geometry" />
        </mxCell>
        <mxCell id="yowPaCR3Sc_YnCvZpUB5-78" value="&lt;font face=&quot;Open Sans&quot;&gt;SRTF&lt;/font&gt;" style="rounded=1;whiteSpace=wrap;html=1;" parent="yowPaCR3Sc_YnCvZpUB5-81" vertex="1">
          <mxGeometry x="160" y="80" width="70" height="30" as="geometry" />
        </mxCell>
        <mxCell id="yowPaCR3Sc_YnCvZpUB5-79" value="&lt;font face=&quot;Open Sans&quot;&gt;SJF&lt;/font&gt;" style="rounded=1;whiteSpace=wrap;html=1;" parent="yowPaCR3Sc_YnCvZpUB5-81" vertex="1">
          <mxGeometry x="120" y="40" width="70" height="30" as="geometry" />
        </mxCell>
        <mxCell id="yowPaCR3Sc_YnCvZpUB5-80" value="&lt;font face=&quot;Open Sans&quot;&gt;RR&lt;/font&gt;" style="rounded=1;whiteSpace=wrap;html=1;" parent="yowPaCR3Sc_YnCvZpUB5-81" vertex="1">
          <mxGeometry x="80" y="80" width="70" height="30" as="geometry" />
        </mxCell>
        <mxCell id="yowPaCR3Sc_YnCvZpUB5-83" style="rounded=0;orthogonalLoop=1;jettySize=auto;html=1;endArrow=block;endFill=1;exitX=0.1;exitY=0.5;exitDx=0;exitDy=0;exitPerimeter=0;" parent="1" source="yowPaCR3Sc_YnCvZpUB5-82" target="yowPaCR3Sc_YnCvZpUB5-58" edge="1">
          <mxGeometry relative="1" as="geometry" />
        </mxCell>
        <mxCell id="yowPaCR3Sc_YnCvZpUB5-82" value="" style="shape=curlyBracket;whiteSpace=wrap;html=1;rounded=1;flipH=1;labelPosition=right;verticalLabelPosition=middle;align=left;verticalAlign=middle;rotation=90;" parent="1" vertex="1">
          <mxGeometry x="3380" y="3330" width="20" height="240" as="geometry" />
        </mxCell>
        <mxCell id="HVIblqkIwL3Zdl4aHF7H-19" value="" style="group;strokeWidth=1.5;" parent="1" vertex="1" connectable="0">
          <mxGeometry x="2520" y="3481.46" width="36" height="60" as="geometry" />
        </mxCell>
        <mxCell id="HVIblqkIwL3Zdl4aHF7H-18" value="" style="rounded=1;whiteSpace=wrap;html=1;fillColor=#dae8fc;strokeColor=#6c8ebf;strokeWidth=1.5;" parent="HVIblqkIwL3Zdl4aHF7H-19" vertex="1">
          <mxGeometry width="36" height="60" as="geometry" />
        </mxCell>
        <mxCell id="HVIblqkIwL3Zdl4aHF7H-10" value="" style="rounded=0;whiteSpace=wrap;html=1;fillColor=#dae8fc;strokeColor=#6c8ebf;" parent="HVIblqkIwL3Zdl4aHF7H-19" vertex="1">
          <mxGeometry x="7" y="14.769999999999982" width="22" height="0.46" as="geometry" />
        </mxCell>
        <mxCell id="HVIblqkIwL3Zdl4aHF7H-12" value="" style="rounded=0;whiteSpace=wrap;html=1;fillColor=#dae8fc;strokeColor=#6c8ebf;" parent="HVIblqkIwL3Zdl4aHF7H-19" vertex="1">
          <mxGeometry x="7" y="22.769999999999982" width="22" height="0.46" as="geometry" />
        </mxCell>
        <mxCell id="HVIblqkIwL3Zdl4aHF7H-13" value="" style="rounded=0;whiteSpace=wrap;html=1;fillColor=#dae8fc;strokeColor=#6c8ebf;" parent="HVIblqkIwL3Zdl4aHF7H-19" vertex="1">
          <mxGeometry x="7" y="29.769999999999982" width="22" height="0.46" as="geometry" />
        </mxCell>
        <mxCell id="HVIblqkIwL3Zdl4aHF7H-14" value="" style="rounded=0;whiteSpace=wrap;html=1;fillColor=#dae8fc;strokeColor=#6c8ebf;" parent="HVIblqkIwL3Zdl4aHF7H-19" vertex="1">
          <mxGeometry x="7" y="37.76999999999998" width="22" height="0.46" as="geometry" />
        </mxCell>
        <mxCell id="HVIblqkIwL3Zdl4aHF7H-15" value="" style="rounded=0;whiteSpace=wrap;html=1;fillColor=#dae8fc;strokeColor=#6c8ebf;" parent="HVIblqkIwL3Zdl4aHF7H-19" vertex="1">
          <mxGeometry x="7" y="44.76999999999998" width="22" height="0.46" as="geometry" />
        </mxCell>
        <mxCell id="HVIblqkIwL3Zdl4aHF7H-16" value="" style="triangle;whiteSpace=wrap;html=1;rotation=90;fillColor=#dae8fc;strokeColor=#6c8ebf;" parent="HVIblqkIwL3Zdl4aHF7H-19" vertex="1">
          <mxGeometry x="15" y="2.0700000000001637" width="6" height="12" as="geometry" />
        </mxCell>
        <mxCell id="HVIblqkIwL3Zdl4aHF7H-17" value="" style="triangle;whiteSpace=wrap;html=1;rotation=-90;fillColor=#dae8fc;strokeColor=#6c8ebf;" parent="HVIblqkIwL3Zdl4aHF7H-19" vertex="1">
          <mxGeometry x="15" y="46.23000000000002" width="6" height="12" as="geometry" />
        </mxCell>
        <mxCell id="HVIblqkIwL3Zdl4aHF7H-26" value="" style="group" parent="1" vertex="1" connectable="0">
          <mxGeometry x="3038" y="3529" width="18.93" height="18.32" as="geometry" />
        </mxCell>
        <mxCell id="HVIblqkIwL3Zdl4aHF7H-2" value="" style="pointerEvents=1;shadow=0;dashed=0;html=1;strokeColor=none;fillColor=#6C8EBF;labelPosition=center;verticalLabelPosition=bottom;verticalAlign=top;align=center;outlineConnect=0;shape=mxgraph.veeam.cpu;" parent="HVIblqkIwL3Zdl4aHF7H-26" vertex="1">
          <mxGeometry width="18.930000000000106" height="18.32" as="geometry" />
        </mxCell>
        <mxCell id="HVIblqkIwL3Zdl4aHF7H-4" value="" style="rounded=0;whiteSpace=wrap;html=1;strokeColor=none;fillColor=#DAE8FC;" parent="HVIblqkIwL3Zdl4aHF7H-26" vertex="1">
          <mxGeometry x="8.243709677419417" y="7.32799999999988" width="6.1064516129032596" height="6.552453333333333" as="geometry" />
        </mxCell>
        <mxCell id="HVIblqkIwL3Zdl4aHF7H-24" value="" style="sketch=0;outlineConnect=0;fontColor=#232F3E;gradientColor=none;fillColor=#6C8EBF;strokeColor=#6C8EBF;dashed=0;verticalLabelPosition=bottom;verticalAlign=top;align=center;html=1;fontSize=12;fontStyle=0;aspect=fixed;pointerEvents=1;shape=mxgraph.aws4.gear;strokeWidth=1.5;" parent="HVIblqkIwL3Zdl4aHF7H-26" vertex="1">
          <mxGeometry x="5.354317455927863" y="4.941165714285504" width="8.244" height="8.242953142857143" as="geometry" />
        </mxCell>
        <mxCell id="HVIblqkIwL3Zdl4aHF7H-33" value="" style="sketch=0;outlineConnect=0;fontColor=#232F3E;gradientColor=none;fillColor=#6C8EBF;strokeColor=#6C8EBF;dashed=0;verticalLabelPosition=bottom;verticalAlign=top;align=center;html=1;fontSize=12;fontStyle=0;aspect=fixed;pointerEvents=1;shape=mxgraph.aws4.gear;strokeWidth=1.5;" parent="HVIblqkIwL3Zdl4aHF7H-26" vertex="1">
          <mxGeometry x="5.734699999999975" y="5.324900000000071" width="7.4803" height="7.48" as="geometry" />
        </mxCell>
        <mxCell id="HVIblqkIwL3Zdl4aHF7H-34" value="" style="sketch=0;outlineConnect=0;fontColor=#232F3E;gradientColor=none;fillColor=#6C8EBF;strokeColor=#6C8EBF;dashed=0;verticalLabelPosition=bottom;verticalAlign=top;align=center;html=1;fontSize=12;fontStyle=0;aspect=fixed;pointerEvents=1;shape=mxgraph.aws4.gear;strokeWidth=1.5;" parent="HVIblqkIwL3Zdl4aHF7H-26" vertex="1">
          <mxGeometry x="5.534699999999975" y="5.12490000000007" width="7.874" height="7.87" as="geometry" />
        </mxCell>
        <mxCell id="HVIblqkIwL3Zdl4aHF7H-31" value="" style="shape=image;verticalLabelPosition=bottom;labelBackgroundColor=default;verticalAlign=top;aspect=fixed;imageAspect=0;image=data:image/png,iVBORw0KGgoAAAANSUhEUgAAAcgAAAD8CAYAAADzPTTlAAAAAXNSR0IArs4c6QAAAARnQU1BAACxjwv8YQUAAAAJcEhZcwAADsMAAA7DAcdvqGQAAD9uSURBVHhe7Z1ZlxzHld8RVQ2ApEiJi8b+AOMRKVIUuIFLDzdJYzbO8YsbYAN89oM/zDz4C/jBr2yAAOYcH1to2hqJlIwdxMbdY/vRZ2SJIkVJXNBV6f8/6mZ2Zq25RGZGRt7fOYnMyEJX5RJx/3FvbPsURVEURVEURVG84dzr//Z/cJOk4hlG9oqiKErNpMXQDIffjUajH00S5sqRU2eftceKN6hAKoqi1EgiisYM90XRc/Z4PuePvPUPfyvHigeoQCqKojgk4yUOBvdE4/ETksyDiqRHqEAqiqJUZKodcV32pYCoXntt+/RhHA6MMaPJWaUNVCAVRVFK4FIUp4FI3tg4eebJKIruhkh+JaeVhlGBVBRFycFU6PTuaDx+UpK1YNbW/le0u/vPGnJtDxVIRVGUBVhRNGYIL24/BPEpOd002i7ZEiqQiqIoKXa2Nq9EUfQtvMSDEMWn5XS7GHPpyKmzz0tKaQgVSEVRek0mdDocPhCNRj+UpFew887GyTPPSFJpABVIRVF6RyyKEJ2iwzBaBdd7EyLZmevtOiqQiqIEz1QHm/sgio9LshGMMVcZtpXkAFuVcOmFI2/9g9Nes8p8VCAVRQkOiNHaztbmOzaxegYb50CEb0GE/yTJfdOdbNKCLRQSPH4/PMlDuM/9EN87clpxjAqkoijBkAiPMQcgim211xXudZoSzNxCaYbDD6LR6Avt4VofKpCKonSWTOg0Pfl3C+D338fv/7GKYMn90C6/YE/kQ0OuNaECqShKp4hF0fg0DIMYc/nIqbNOQrlyj0VET8dK1oAKpKIo3sK2ROzMztbmu9iPIUJrOOnfslDGXIQ4FvH6VlJCJC9CJJ1eQ99RgVQUxTumQqcPRaPRw5L0k5oG8p/b2ryMCgEnLs+LepIOUYFUFMUL0qIIutamVoswlfAiGXp+b+PkGX9Czx1GBVJRlFbIeImDwb3RePxjSXaNWjvJlBTJ63ieX6k3WQ0VSEVRGqPjXuJczHB4e2P7dG3iXkYgU2jItQIqkIqi1EosivBq7oJX09aKGHVTmxBVFEiiIlkSFUhFUZwiBp22JTLGHIjaG7DfJD4LpA25bpw8E2rlpDZUIBVFqYw14pMhGGMke7csEwToBgTI+QLKqFwMdrY2f41DF+FonVCgICqQiqIUJg6bkrZnsPGI8xunzr4Cr3lX0pVxLJB4WbquZBFUIBVFyUVaFIF6IvNxGmp1EV6dwZirEMkiYyt7iwpkSzDja8O54jsSOuVqGBGS6nnkwZjLGyfPvIijEbxJhpxLU4tAArO29n+i3d3/qzZoOSqQDQIbcwAF5tudE69/Eo12f2AnNx6Pv8YH8TpxS9HMrNRN2ktE/vR2df0OkHiSKPco9oYVjELUJY5TaA/XJahANszOiWO3y7bX2MG/UXQHJW5lG4dmeiUvaVEEGjp1BMdHoqx/yWOWR5TdtTztk6n30dS7UJFcgApkgzRUI7RATG+KmKp3qswQG2Hkk3ui8fgJe1Kpk/Oyx0M3g42TZ+LyFu1sbf5GjmOar6QYc+XIqbPPlvV2Q0UFsiGaFMcysJs6DOVfJLkUFdPuMeUlEvUUWwTl7ZYc7kO582WKPfUkp1CBbAgYKNYgg1iKhm2n8Ey/QW1zjP0dOb0QLXTt4nvlTPEKXTIrhQpkA/TdQKG2fBu7OxDUXW0/bY7Lly8f/t1/+PufD3Z3H5JTjWOMuYr3PjfMj8/6MstOp0B51dVABBXIBji3tXkFwqCGIC8wqvh3hGc2mpxYjIrpfCA8B37xi188d+TIkf/29y+tH3z0oQflk/oxa2ufRru7v+PxqvcTh361LdQvGCXa2D79OPLREBWZleUwVFQga0bDW/UCw8rOSN/mCfWSvgnqzhuv/xPE6q8l2QSl27FYVvA+D0Io1XvxAIjkp9Fo9Ls+V0JVIGtExdE/YIBvQFAZ5uUA7miVl9ol48D8Nu96cb6p9m8rjni+lXpCarnxjt523lGBrBEt6N1HPNRvIKRet53ubG1ewXUyjM/5QDmLC0UqmcWl7jA/ntO1jZNnnH2/lh3PMObykVNnn5NUb1CBrIkGa+2KJ0Akbr22ffppCNNKMXXJHDGZW+OvNU/WYEBVJL2jd57kQPaKe3Swbc/geLb/fOLYZ/Dk9suptlgXcckA40ax2Ruw7ggzHH5Yh3dBY0wPXpJK+8zNVyGjAlkDWvPtLwfG4/t2tjZ/Jck2SYwZBPugPQPEA3AqkqgY/EkOnYPv/rMcKn6wznC+HAePCqRjaIxQ671Xkkr/uLBx6uxLcmyps9a9ojK2vnP86HVjDCd12I9tjSedi2SO9tmy1CHoSjWQj57ZOXHsQ+Y9HB+Q00GiAukY1K7+kaE2SSr9g6H1JLwOgbqGXWuhKeTFJ3ZOvP6peLWjWCS5sC92boTHGPudSn+QVV7oTf4yzlMhogLpkBW1eSV0uA7gqbMvS8rmBwjUU5JsTyRHu3+DHY0ZJ8Veg0G7ix2JYu+MnYv4/0oTRc+2dW9K6zBfvYM81Xa7ey2oQCqKA8za2j9JRxWWqaE9Nxjczb1H0Jj9AvtdGDTbLkmR3Dh55hDEvXK7Er5T7Uk/YSif4Vab70NCM7Qj1HvsN9Hu7m9hIOJQkxHv8UlJWyCY98mhE0rmOVvjx/7bdK2fSx1hVzrkinu7Jz3uUukZUXQY+epdSQWDCqQjYByCbqxWFgNxeE/ClXZcMWrTDGXOCBcE83FPQpGs8V9GnuUE8kn7UZUOMWzrxL1dkKRTzHD4XTn0F2Mu418+u9lt8lkfCG4YiE4U4ICSNXklHDh7zavYs3POCOJzATXqZeMCnQy4rprv4gmpJZlQ8XudDSaHeBtpN/WybOH5fRSNRn/g8ap7nhKOoG0FKow3N06eCWLieRVIB+ycOPYxCsrDklR6BLywqxDHw7EnJuHLVQbQiYgg39FAPyLJUsTGjGIEkt63Pojkua3NiysqGm1S+h7ts2XEKeAVfuLKg6vKUluoQFakai1e6Tyx92jb36QdJk9+qCQiLvMdjBkreJ+lr4eCn1Ps58OwYhTFPWULw/vDdd2P63pUTvkDKkVHUCmSVGl6Yjts+WA4X9KdQgWyAiqOvceKnHiPDAdSHJ+3n6yiopGtJe8ZcxHXlJmr1QrVYHBvVH5sL9vhVoYgY+S+iJ/lyvGcsz0SyZchkp1bV1IFsgLntjbZ1pTPICpBkW5ngUCye3vEru4F80O1MF09hnXuNVVeDYTDSFav2Ul75PcE/44FkuBdshIR9sIGxlxCeVmHSHaqp7P2Yi2JNVAqjr0FHlVmjlCII9vLiuUHY0qVv5q9jrk9EWncsLPeYCmiiN4yv2PZ5r9I1DCtHiokvPfyz7YLRNFztgLZMVQgS8Kwkxwq/eNi7GVJW927IgDFgKDOEyMPSE90Ho+VHMs9h23Il0EvaGqeXaUAzO+MunUIFcgS0HhUaJNRuk86TFRtWTNjfJ19ZJ1h1bhzRdx+1HORZAi42vtegH2uEGBJhgtEEp7kVUl5jwpkQWoObyn+k7TRJd5jlfwQRc956kXy2rhqw21JJfRVJFFJOIitFoG0RFHnOrGUAc7F0xDJG97m+xQqkMXRjk1KDD3JRstQ0xW0aDT6EUTyg2ljFosk56CdnAkfGPZDdRl1VLZ6ZYv5LLHzfuYdFcgCyMsMu7eZsoy09ziUTgcuOmoxnHlRjr1DxiLSmGW8Rj6LjTff+hszHH4op5SSdK13p0OsSKI8eel4qEAWQde96y1mb75VC9vkcO5+SVanjvDa7PygVXlBjNmAFQQ5t29j+/RjeBbXJRk63ns9HYRzA3vZ/qoCmRNbKKKIKx4oPSQaj7+WQ4sViorTvE0R16QXTnovhjlPeNUKIsfrUdTjLT7P/1ABrgbya+wNrjWpMG6cPMN1L12IsP+UHJ6zDDzL/Zw5SJL9g6uBHD96U1LeoAKZE2TeB+RQ6R/xjDnWayogVIWBZ/qtHJbFXqsIYoYpoayCXTIL18p1JZPQmKPv9p/J8JzzrCBgc7KKD57nr7ycVq9BODIAIllt8W7HqEDm4NzW5mVk3h9KUukhFAKGVW2ivqEZK71IFzgTyeNHr+GZZHp19kYk9+17QSoJXFezcvuZGa59Xw57DUTyceQrb4aBaI/MFdTpLSidIDP1Wt35AQbXrg4iyQwwyFdgjJdN98Y5L39Coy3ppbi4F7Ng1Ya+lBu2vcKofzV9/3nhczJra9+Pdnd/IKcUwI5fyFefIz+/OF0JaxIVyBWoQPYXGv+N7dOZsFdD+SEjyiTn7xaeFNrZ/cyZo1SM/7+A8f9XcipYIJQ3IZR2+sE8YinPnahtWQ7z9N8hT38l6UZRgVxCQ8ZQ8RcWzqQG22B+4FR2M6tqYJdHIAvVuB3fE3//Z/j9TIcmF+tWdorlE7MP8HzYdhnCWpCcNm5hXkOlocoqMGlmKoxNoQK5BBgPZgCdkLyfxB1zaNDGLVSWCoV26cHEq4sUxbVIzjNmOcLDSnewbczLRAvveohyM7J5CxUCHN/N9kX5uAytiKR20lmAGA0Vxx4Ti6Mky0BDMm9bCQTvO3KYC1xrxmtrkbnjBOFZsl01170rfmKGw0+xs0K1Sqwojtzb/3vq7HOovNGTPI/veJ/nS2DnBpbjxlAPcg6Oa9RK94i9x71acLH8YIVgkRFJCciq7yziRZauYdeR32EIP9jYPv0jSSbgt/hsdDaqbsIQeu5OYItAHigdmUPF8baIbSOoB6koC4hrwTjIP6yDnVVYa14iVqnPl3pUBb3I0pVdtlti59S7i0ajx3aOH31Pkgm4bwqxepLdg+L4SlVxJMgDrCCVmlqRYdomPUkVyCnqqE0rnWLWa4uivCvI29lr5HglVpiMWTjmC8YgMzn2UlGtMA0ijF4t3ehx/U9yNZD0PRC5j06tC9hn2L7Nd4Z84myxaBHJchWlySoz7zNfsRlEztaCCuQ0Ot9qb4EhuJYWR4sxuQbt429vzfztCqwwRdHSGjm+9z45XE4UHZ4WIh+AJ8kw60y7JJ6V9STNcPg/J2cUX0FFxw5fcUlVYWOEArt42sPaUIFMYQuxzrfaW2AIvpFDiw3l5Ox5ib/9Ewp94cqViOrCmjS+9/G0uMDr/Cl2XQxRzhPJv93YPv0DeihySukJqByObd5fEkHJydxOYa5QgUyB2ux35VDpGTDSN1hg45qtVJZyiSPyzSf8W5chqCniKej243gMo9LVcjt3WS8OT8Gz68wq84pDVkRQclKbSKpACii4lyQcpPQQeGp/oTiyZiuncoN883v8belOMlZch8OPJLkQXNsdbhCUV5Gc9SLrmyPWHVH03DxjBs9Yh4H0EJv3BwMXE5TXIpIqkEC8BQ2t9hfbMScWRylohTpq4W8rdXSByP5BDheRNgB3RFSzCxUvEB8PoSdpO+mgYnEXNivsdfSmVRxgTGb9T9fgu11NI2fHSrq8VhVIkrMjhhIeEJmPKTaS9B1bXmMhh6h+zn0niaLnOQwE92InOKBRYyVD3oWKpE/wXW1tvisp5+C9u7O/UfTM2yeOvYf85KSzZe8FUrxHnQKrp0BkPpNDS1HvEYX7aoMCy3UIEw/RepGz4alaOy24JJoMA/mAxhfPMZlgXUXST1yJThrmVeYDSToB3/fjt994/Zb97km7fWnUg+zJsA4xpDQ6s5sxl7D1r5OEMVfS4lZUHAkK4KJJqWsHv21gDP4kyT3K1MiNqWRIyoIKCldLSUQ9NsKxSMLD5/RmSvtw/c/fyLH3IF9x/V5eM0WydP+AXk81V8Ygdg5jLsLqTLpUr4DPA0Lqagb+LlBkKrdFXMB3VM5DBX87c90wAlxqKfPO8B5zT8nlUTngbC2vwZvMjLubd39Ka5Se0nAe7BwJ+1R3/4/S19xrDxK10wfkMETYnZ4zu7yQN3Pw/8GoHsIhPcvQsYUGtUvboF9BJGqZhWYpqagHrn8wz4vEOU7JdVmSXYEDv9+W4wTmSQj+zLR1Sis4C+E3JI6EnuR1OS5EbwWSL1nc8KCAIWFGoPHPLYxz6E1kId321RlgVFJGysDregXvfXawvcyus8igpT7zwXuMmWuAIZJPY9eHilsXsO9oUb7KQ4PiaEGF8YkyItnLEKuHRsEJ7DAi48kqE3hYK/YeuU7dbpX8wKEWr7351o+rCm1hg8H201Nn7f/HfeyH5/UrHC6+Bwm1SyrG3zKA62X0Q1IJeFd+rNFqzGU8zzwTQwRnZ6awlZY8lfFYUFFm7pe258YYr6199tJ//E8/vO+++34rp3LRT4FsuPbSBPAgrqGW/QwbpEHlsF+wlYjB4D3xRhJ2Thy7hQLb2mKuFZ518rsUybePHz2PfUg9si/i/uaJZJt5k53aDiAPPZunnMWiAIIWSojeR6hQfzGnEpamtXdWtnz2LsRqM2xg4kiQOe08oi7E0dKFWVlKgOf0NT1HbEnbY0VxrAxE+6AcFgLvOt1blYO5XUzb5RPPo/LyUUpkLGLs2gi3WkMLz/Zw3nJm///e9QYbIrbNVVFEz54iuGhrBJSnvR77FYdh9c6D3Dl+9BaMZKsGsQYqeTDTtFxDrw0UHNuzk94WktHO1uY72Fe+TxjLSqFtPG8W5rKLCLPn58+w38V17LKdBfn7iclH7QBv4hNcw+cwmPPCzmWf90weZz7Fbz0I4/yInKoTJ2XMXjMqRHg+mSiGUg2WwbiCmH5POHcAn5WuOPZKIEM0/FWN8zzOcULp/Gsgdgm76Cv2jEOPHOeHUga08jVk2yLXXIl+WeaFsNPI/ZIy18j39zLfnaQtDbSXO62AEnrGDQl7uKTa1Re9H5QJZJeJt8+8V/Q99ibEiofDWnpQ4kjiWpMraGSRoUqF/DwnY+QciyOF4V45LAS9CTksh/RUlfe2y3vEd16TTxsHQmWnjlsEr0/eQ5lwI4eBzEx5BkE+BGPZqSEtEMfMDE7KatghDjs7fI1bPIQtXa7TsFwgv/zG7o8fvYFT6z9/4/X/N/k0H31qg3TTNhc4b584dqXtEF3N2KhJWUFbBD0YEd3c4P+fdxJqM4ZhJNujEkJ5AN+ZWdeyQWIPfSUi5DRaRZk7DATGkhGPMqK7FF7jIgNchQqVhH5hzBX8awVxY/v0Y8hf66tEMd6QZAXYbigTHN+9z+zufn9e/llELwQy9bCU1XRvXOBq0t7jGLXJCxQ0Sbsk9yBq/D8W+rLtjlmi6Jn079p7ZfipHXLbFLyDv8hhUficZ8SlDtGpcI1KeawgcmPzAd8rhPFFVP6Ytwz2tpLLPZuDmBe4wVukmCaiyP9TlV60QYY4rCOFs/YRZDI/xpg5BB7AzY2TZ6xHjALFFSNGOyeO3Y7qXfuT4jQzvV9KxFju3IhjTKotkrT0Lq0HGXuzeZBnUsqYmeHwfXgVMx3uqnznHJy3P6aBbbrCCo4kewnK6HuoiCSh+fh5ixDGGsXGxElb4sSe7yLPD7Ev1FcibQ/yELxAOi4sPuKkAAdcUGtte1wG20wgxJ+jIA/wbHmqbsHKzAvbaN435jLDnDRqsSHLQ9VrjJ/xdBlwde8wqNdhUJ+SpHN6YJ/mkhbF9LtD/pmOQFhhlOfEfFZYFKcoZC+DD7GiAD0kh8oUzIwURi45FKo4wqP5iRxPap4NGiMYbrtSBZ4thbF2bw5GJxkXiXfb9BqnVhSLiCOxxqpCB5v4GePdZkLKYgS5GsgnkzPlgBF/MjHOSmno7WOXhE7Z05nviKFTfk5blBJHDsH6tWy/YS9lnGO5ZVlqtHd90ALJjI0C9LAkQyV3u1ca/g0zIIVRjEyQwGDbXr4ofKx55g79dREY86fjvMD7jkWC6dqZP+YxH8tnX8kHDOd0ObAGePv0IzDOH8kppUEYzsRuIojbpx8XQXyJG8oj2xIHrFDxGIwTUTx+lM0DE0HEhnzd2pSXwYZYUVj4Yty28/iNDR0w0+GY24iZz36SImVEQg/r0Hv8KZ6B7dEp9x36PdMo3UDt3C5Ai7xwAAbnlzhs4r4rhfrZDR+G0PY0rMjc64CHyblTq4wXrnR/i3BwXb6RVMjEHsXtiEkbopzjsKQ7Ui4HyLf7WcHj57Ux1U6fh5AFshcGMQ1ryvAG/yDJGfB5U7OOtAprrtMN8Qwjh+wpT5Ex5g0Z4UoC4rS8GnMJhnAmpF3lN5Cn4rmObUcvOV2JEGwUnwuELRlWFOcBEcGEWBzlni3423vwt00OKSucR4MMsfZRHAkEwK6ivWjrgzgSFLpkwV0U1LuRH873SBxZEUrWOcX9r+GfxobuTBvGVoii59hTWVIWXNc9YhxLDX+hd4OKxhVX4thxbNiUGysNfK7xZj8FFMR4YzsibTKe33To1Pvx1kF6kAGGLZScoFaamerMFspJJ5m+YWvLFEgYqUpLehWgtBdZy/VNhdTwLNhxaZcGG/tSzS/MXzDsX5e9z5guVeJxz5y/OlmUe/reWSmiEEpyz0s0hm2Md+NvXYTOK4FK48cb26cLr/8bnEB2KeMptZANL/Y0P8CopdsiV68X6Qa/BBLAMGaGgfBZcIfnUW3OWmM4Fm9U9H4T8fA8TyL/cH5bG4lZdI8URuzWsMWVjhj/7k2GIUkqN0EJpIpjz5lqe9L80HhlwTuBTJEZI0r4mxDQhyCgVXq6c0kljnOdmRgCAkLxoHsVT4xP/M2PIvo8zPMeJTozxt9VHZvYBKXyZlgCqaHVvpOZyWXn+NGrqAX3fVmhZNHhukUIYvPBxvbpUjMUNSCQJNOzOQa/7aTH+3QoUmAPTXZGaW2owiJWhU6nkXc0YIUAwsFxi10aO91vgWyogCn+QuPHQcds93C9lFWXyazK38BzKWWIGnxfc68Plet+TPlW1EucvBf+XRe8xLmgIlB6NqRgerHiIdwlh0rPwLt/Twp70gUf5+7jXtn3fGLkAJ8TntFVSdaB7zZl0WogjDwlY/gCI+l1yiYI5oFl4sjng+0CKg3xzFONz2DjEnjJS5dgW0YQHqRkePUW+gu9x5d4AOPPGTmudCz8UzcZrwmGr+4FsQt7kTvHjzLcNzPxeF2wUpXu7RzTwLOpH1aA9taJHaTKxtyZpFIVhoEZDu8PcDhYqagGCUIgd068/kk02v2BJJV+kTX+WllaRPKcUHkYyrqftpdrTeQ2Sm29M4jBJ5yKTpIJHc1DifcLQXxVDsdxRGWalCiSYMsLKkKFVu+YpvMhVr5oFUclgW0lylJoNCGOX0myFiA+3+WeQwGweWln2Ht1543XP5kSi7htzutwKww/J0LYC53imuMN6V284ztpceQ9xltm8u+AxZFUzeed9iAlYwf9gpWlWMNAj4iJna3Nd7HT/LCYrLdd8zqpEMn3IUJ/lM5TccUlmSMY763JuWJXMePx0r7gHh7APRQeYF4HEMWk1+n0tU6DZ7sGIeRiBPFE8H0tF7kjGfPotEBqW1N/geFKZsagQLK23MBCyF0nK5DNLapsvTH+Nt6V9SZRdn/NPfDHcBtz8cipszPDPSA0nG+0tjUhV5B4snkMvTgNMVpZ7KtAqvfYe3q5WocDMgajyUomKjUfoTbDHoVjCI6X41ORn64iX82MpW4qf8FLnDv59yLSgoi/vQ9/21hHJ9/hs9w4eaZS3u6sQKq30GP2Vq/ntGEj8UZUHPMx7UVqxWIamZGJ+QuCeUfO1vesuGC0rFWqXqJTKnmPpJMCqYW699iMDwPGqbzsQqvYa37IT3bygL4Mki8CPEmOjZSQMHRy0uHFhe2BJ/2hbUtUUaybfgqkeo89JjXfKozXEOKoHXOKE7wXGXcQQn7hPKml2lnZKWbj5JmZlSjKPC98122I4pc8LiSIxrB9/SD+1vuloXzCRXiVdE4gQyzMSiES464CWYmmp6BrBBjG6xCTr+ZUACg2XBuz2Irya2ufRru7v5sWNXznyg5ObM9EHrUD9guJ4oSg8zTe0008m29iL1pwec+VvUfSKYFUcew9wXs+DRKcQMLozp0dJ02FGXvSFbMktJ8eBmKNfmqx7tT/t2FabBy4P7tuIsDf3ou/9W5C8xpgr9xBOu/FOK4g9FIg+XBnHqwSPjAgt2H8MgZEQ+2VCa3CkcsoVphOjj2nOUuNFTmInfV+YsPO34YY0qYmdhX/Jx6HaHEsAl0iPdQHj2WvojAPB3mxXwIZQOFVqpGuwWto1QEwUpkhDZ0uYwUXxC0tklNjJcU7TIQwFsg4TRJRLBHi7TpxWzDyWbIMXV5QxksNQZrO11XwcgqoaZgJ4UEclKTSP1hzf0WOdcYcR9D4pD0aPOOfYZcMTO8U2baslbCjF2zKNUnmJ4qetxMHTIYYWWFMiyGOI4Ze+Vy54f/ewGnmVa6I0S9xHAxubGyffhz56mUk584Juww840LvNAZ/lwzNqUonBBKZ7HykC9/2mrj2icyvFSWH4LkekENS2Ih1GdiUzMLJecHfPQWbxEpaAvLlgFP3ZQQRG/7vTC/YPgBxvPXa9umn8VyQxUwyvWARIKzr/B5JFqHwby3Ce4G0NdyuLz+jVCHTloDa+T9ip96jI2DAEi8SRuwOjNJPcdgtL9KYK2Xam/g3MMDXJVmMKGuD3z5x7DrOPdtXQZwG+eov2FEcq4iVwfO0c8/mhWNMXbQ9xnTCg1SUGBi0u+VQcQSeaXpx6Uynkk5QIaQGA1x2tYdMGyO+pw89UPNyfuPkmZfpOUq6LIXFFe8h6UXsAq8FUmq26i30l5leligAda5h2EvwTB/Hs+W4PrILL5I9NbvZFtkMTnpIhghDovJsSrUfpinlfTpsfyR+e5C6tl9vQUG7OS2O2GllqSbwvL8jh5y5xamR8RnJY5UqA2Y4/J4c9p5oMhl9OXHzEG8F0hpEbXvsLelQCQqdVpRqRrxIVkKsYXMhHE0BcW+t45aNaoxGj0lSKdnz1AXIB9dce/beCiRqZQ/JodI/pjvm6LCOBkCZezBuN2LvQ3uyA0DcnxZxrx0Y4RuujXAwcIJ3188m28t6KcgHpXolL8NLgZRa2cOSVHoIDPReweAAa6V2UOYeiYWGIbIZL9KYS/iX6emtN8AIs3fmHpo395B5Z13BiQLwna2uMuOdQKKAssCpt9BfOCnAi9jbUJ812D0bYN0y62lvLCWS5zm4nunpTT6/iK1X1JU3UTm5Ck/1tiS7A1dOcQgMQO52TDNc+1TyolN89CCDaNxVimOGw4+Yyem9YLMdRVKdR5SWSAnhXORzTr8W94RVimAMKxexN84K4mGZdzg5h60LONMTVD4uoPKRe7q4aDz6oxw6xSuBlJqreo89JRqN/iCHFuaHSAdet0HGi8wLRJJlty1jXuqaC+J6eIcVP87tKpWMTEVk6tx5VBbLTWrQFFHkbiamoiMYHId3Y3z0IJU+wkmgU8ZBK0uK75jh8H45LIMV23SeXwa8yn8Nr/Ip/ObHcspHnET/bNkv4D3WiTcCqQax50RR92ZwCZuyXqT1diapxmnCi7Twd6LR6FFJ5gYC9wl2hT1RY4ztHBSNx1/aE35S+fmX0YE6exZ7IZBlHooSFBmDEUh+iNuOkq2THS9KwHeJey0zyXQ75BhKQGGraoTZxv7am289Wul7HM8U4xMs93hGD0oyNzM9ix2iIVbFO2Bcu7xihxVDGsHpLdXxoiuU9ghgtApNMu2QQtds/2+OoQQuPDe2scMTrBQpYT7Czucew6XyjPzNOocaTc74QesCySVisFPvsa8Yc2nj1NmXJGULCoxRV5c2W9muJJ91SSS7yPrOiWMfyPFy8g5NSHUCiY35JJWbwmHVJXjdHAEv8K92jh+9Gcli0ovA52t8lvy/SJbSAPzW+w6f6wxezJbxX04c+2w4Gj0gSaUnMHNzQVUec+YWDu9AYbkFgbTnOoUxF+EhrvMe5MxSShrZtihl3HGPrAgkq+83ztTq/9PYynn+cYzJMyj67pDPP0A+/5EkK9OhvLO8IsjQdtWJAIy5jHdc25SkXggkjSMMI8dQRWYwuA9uts5t2A8yhrdjopGGY9f+DuJYaOmkLhm6kgLZ+v2xLVTaqOh10aOZeF+cASenOOI7rqHykxjyEvfl0nvscjmpA6fPdhov2iBZ67azdKC2JzUt246zdDPmCj0QHCtdZBJa5Yw5lgAKfS3jsDyhsd6hroE4st33eWzMW/F+vYDnyO/IzPEJu6PRrp7QugcJ75EDQnkdozg8hXP3YMdlU+Lri8NWmfAV/3/ugmvMfnyxF2NrFMu098iKT3vhuLJA6Fm5k1Rhznkw32Qepr2oPATk6SR5tcQ9XcDfOn0GAT3XSsD+X+WsQ5KsBS8EEjc6MwMDw67YxR5uWhhnRFIOV1JATAf43ruwP1BmrJOyksTg2PD61uZvcNjVAl8pxNMxY1foXkMw5PAWP9zYPp00+ZS4p0r5YxoVxwxOn+08vBDIL7744ruX/v2/++/ReMww1dIeWnU/kGlyiCrFdG3fYHAXxNRZQ3yowBO5LcMdEuBFXURG6NzanzCeH8F4VqpAqUB6T+aeC3bsIa4Fkn01SkcsAiN8gSQ/f+P135rd3b+S5FJoYCGqXyOT0utc2d25SUFdIqZ8zvR0B3R5bbqGVQA6Qibk1HEjWrmAdvD+c99zaAJZ8n6cGfFAnqdLwhfIul86207gmXL2ia6I6R6TUO9B7PcH4p1yvtWknTGAAu+kgO4cP3oDebQrk7KrQBbBmCtHTp11UhnG76v3uEft4ki88CB9KUgQUw5upZjuwsOrVVCljTV+/tzbtlQI4tzflWe0HGPYnhsLqo9DZTKZOgAD6qSQlgjbtU2u++78+50aY1eyKcBNHul+WXFNfwSSdHGAOAT1loR7d+XUUqZfqIhkAsQNp+zsE3M7HvFzOVxJTkHdj+880JD3Epo4kt4ZP1YiN06eeUKSC0E+XtvZ2nwHh52uAHEoUlzudk4cu100kmOGw9sb26czbe5lwG+/72mlty36JZB9qCHBuNyA4fgW1oNe4lIPtYmXH5NTTBnuvYeiioL6QzmbCxiJj2EkMn+D3wwhXFS5kLKShMrhZRx4P9RDyH3PHQsdz4MC+Qry/W5F+1Qpn+A5spnoKUn2HjabFR1yVBZvBJIgI1xHRlhZO+0DKJRXUW0d5xFT4p2gAmTke3H938ZjlSgGrI0HVBmqPMbt3NYmV07vSkWBgvEy3uHKhXG7/o5jT5mesBXIamHwUvmEzxCVywdRIfVqAm8PaMR7JF4JZECGs3mM4YDzXEvhlM1cscBJciX4//uxG8cGNTY2ZUJVXrJirs88dFAgX8I7XFphC6IcT+bWZXjV5t2drc0ryL/lvZYCnXXk+RG1hfPpp0CSkg3hSgGSUO+eh7qUCoJqBVGSlqAqQQ56KHboeSThRknba5/OGzh3AV7P94qG4T3EVXg1Ac/lQzyXz3k857nFokhUGBdghmufbmy/9bAka8c/gQzJgIaCMVehdjSMlcU0wPdbqTbbhefBChW8qSdR4YFeSIeVuDkkjlxID+qAmkgokD/BPX1byzuCh8p/7fGkktq9aRbbITNUrG68E0hSOZyhtIatJU9WT+BQGZ4axwKCd2qnFQwmxEoqeJEdCq9mvMceVGJtm2EcAdFKu1c0Fl4lXqzmMQ3M6spOAIqfQPgehdF/Rgw/t5mVIERAwyBnu+9ccoS3PSA2SLa20xOxgDbuNQ/YzmZKL/FSIFEjp2Hl6g5KGFiRpPfIBN7vczA679lPuk+ppaC6JDSx5y/JVmCYFzu71J0c1421jXxPqNBVHseoVAd58GqT3iPxUiCVsIHBNTA6XM4sCGCwvyOHuSnzN43DnpyTXqtWHFsU9fNsA6Vx5MZjnpPNKXgvN5s2wko+YDcaX3PVW4GUTKpeZDis2zY3AIMb2fdrzCX7SceB2B/K60Xy/2E7z7+RU15ihsNP4Om/gHfVdhjYdpaR44RYLHF4Htf60eRsdfBe/swKHA5t6ByCybVplZ6iHqTSHNNtbpMVWUJhfefEsQ8XCaUIY+yBed9jMRqNfi+HltS1NwfnQoUIQqQXeg78/LU333oMQnZbTjmD9wzB1IlLPACVoE+lQtQoXgtkXEOcpJQAyLTXhfZ+ZewfhfKDWBDjjedl8x6IzY20MUpdf7PIHMfw6DjhxEIYkYCQfSlJJ/A75VDxgfH4j3LUKOpBKm3j5VCjKtievHuC2BlhjIHY+NDLOOnOD7Fa2VPYSWVLOoGoOPpHG+2PxHuBDM3LUPbaIgne7zo9Fkkq7cM2v1fluD3vsQRW3AaDm5IsDoywtD9azHD4kBwqPUU9SGUerJAs2lywJntLW7VDZT55PDZfYScbOawEKwbRaNTYlGbKYlDpuSaOUuN0Jrylc7Q2Aj27SQ/TBYhHQSt6AO+jymxHmRkxuuSpBIxP76TUjCllrxlG+NbGyTNJz2LNj15RKi+4oDseZFg9Hr1Cusnb0NqqjMjPucGY0HicN2trn04+KYgxSzteKM3C0CTfK7z5IbYD9txw+F37YYeQ/JuE8PMCz/NPcqgoCZ0RSMn4rkJ8SopoNPqDDAjPHepkGM4K5Zt2Zv3i7yWKDp/b2rwsqX34/Rex0/fbEunQJPMBPSjki67Ol1uqk03c/qjeoxKjbZCKDV/AKJYeEF6h8mINGQxTpk1SaRhOuD55hzbli0BovlCQN+1YWEk1TqcEsoIhVmqmlAcYRc+KMabXEqkX2RKpCdfxHpL1HtumqWtpsxOIsgIZC9sW6kEqrKlXbg8UgXsVB1fkVC5gnDgnqfUk+R3cKw1izKW0OIQQXuT9IF/lHjoUjcffxOFVCzugKQronECqF+kOMxy+b42Ju279o7Q3kgcYp0M7W5vvwkANmdb32zCedn6DwN1dJcSKvy06dIgCuWYrCLoWrR+0HF4lnfQgrVEfDj+UpFIe+/5hTJzkAwjtZHHkEl4k/lZ7KTfPTPd5eX9J56m2QMXpSVSc3pFkGXK1qSPvpVfv6Mywt17QcniVdDbEGo1Gn8uhUhJOicYaM4VNTrmhhBcZt0USG6pVL7Jesh1zMmycPPM8Pr8oyVZB5a1s+D+X95nqvRuhHOiEFUqGzgokC7eM31MCQEJqA2w21KrUzJJKDIQiwudtL3MVT/VW+DqKhkmR53DLJgqh/VVxS2cFknD8nhwq5XGeB8QzKeQB2pDa8aPnYahG2OwYS1+8mAC5sMh7jJEKaKvNGCjfD7N9WpL1Y0yn7WFgtDZ7TppOZwhbiI25KkmlHM+nw5utEkXPZa7FAy8mUHL1FvakGSOzRJpLptofNb8pM3S+xhTpRNfV8bTmLMZL2yLd4kXNvBAyLSFD8Da9AlSacw3TSLU/WiCY98qholg6L5DWixwMrktSKUMUOfci8xqpOWQ8BnbY0bZmN8x4TF1hMi3hJeSp8bI2an7GRQ2wL9L+OMD32vZHCOaP5bTSIj7l084LJEHG/koOlZKYtbV/yT0MRuWu7tbYVBtLlr6GXW1rdsO0x7QKqXz6sVYnZ13a2ry8qE2SQmc/y7niD+7rlhhhnZzCM5BPfViw2xLMuJ+d40dvag2wGvDUPoYYfVa19iYeYNXegJlQoL7fatAL39g+/agkc4Pnfh3P/QlJ+sJs2N2YYV5xFLL5a2vzSsVKXW9BZeM95JGnJOkCb5oBgvAgCV6QLldTEYjjI9iV7hQBAzOZicRNV/kkb9Kr1fdbjbJeOJ69q1mWXML8ld0qrBXrIOLRN1hBSbaNk2eenj6HLQiCmjlCa4HuYGgNovSXvDU5PPchQ1zwVO6HMS7sqSxg2ou85rim2g84Zdeps6UEJOCFyrn+KZd4Gzus1IUNh11F0WS2rBVUeKYX8f0vyHHrBONBEhhp7dHqCAgRw2rWm4y3ySez8DNpG1p3KI4skJn8iWv6Wg6VIlSbsivE6dficaDxJPk6OfkyJkPp6Cm+lLfCLP+vjCfp1VCb4DK/p20mQSBtDd/gMOnYgHP34lydbYNZL/LEsQ+cinD4lK6RV/ACfCeTp+zC3VF0WJJKlkoeXYmojzftjyQoD5LgZXjTAyo0JKOzsCRtPzWL4wwQR52DNy+T+Va9CVf5iK0EqDgugp72C1GFnu2wD7mjPqmexd4QnEDyAeNBX5Ok0n0Y5k1CNfJ+b0lSWYafHWxahVEQ5iEY/eBsn0vMcPgJnpONHnCcqD1ZMxBT7zriBZlJ8KAZBlTCIVNAfSxIHjITqlrWjjxNqOHV2KNh5xy7nyzYrUwRjUa/d1GJkAqtH2NpSxCkQFrD4MGadoozbGchFFi7hJEUuvfsJ8p8jBnyeWHj3sSCx/GkRYQyRPg8uLd5ajw+ZE8qaWzlKq5EVAXPuLPNXuGGGTxYbFNxCAeCp3q4xZ6AMhfb4xB7CsEAosgQtfUG8dzYZrx0rGssppOUotQPvczpiIcPhNiFO0ELenAkYUN6R2+fOHYFBl97LM/CMX4/wZ4VivHO1ibLwfP8IA08hKt4jpmhUY7HsfpGtveq2ocZGJmRgf/OYNRCKmaLMebikVNnvetQpg3VSmeYai9a63LopkZiEaA4Gojjr7GfEUcCceSkGhSIZAt9CE0cXiWoDDwoh4rgOjIjYezVPd09XWosaIEUQxHMtEd9BwXtUCo0OJnRQxdVToDB/5DPRERgFE/eYD9UMiAfXUBlgFMrKjWBfLhw5ZU0yLfvpz17n1APUukWsjagMeZbFMC7fa15tkE8RpTd8rnhUJ+NIMMW2PEk7hGtz8YTkG+/lEPvCF4g1YsMDK4NuOdF3hEv8oqk+8zMsA5lj2g89tYIh0qBCEYj4yzL0A8PUrwOJRgMvEcudLuL/V0QTR0QPwetHKZIdUbSzjnNYAaDg3LYWXohkBsnz7CTwoVJSgmAF6TzCYlXF+izECz0Hn1+NjCgN7HjtcVbrUjbrLIcJ89IOues7A2LSu5VnyMfvRBIvITxxqmzr6BA6hRlgYB3eY/dT9oiBzjoZXu6GQ5vrzIwnookx2o+wWuLN57D5rwii7xybdUzqgoNPXZpsT+Pk12crKRyuLOIh46y6/UKTL2qUWloJTjS4yL3w6v8FQ779n5ztT3i+RzA8/klBNWHcY5Lr9mWU2PWcNHPyqmqcFzoixAxa/x3jh+9Be/mcftJBVjhxvfYaQ8X3Y/YHNKlfFmqPVvKINsd5w4rWkCp32qK3oUcdk4cex8G4jFJKh0GBuo2vJBkjFUPK0DJor+SXgoM2Br+7y4E4mqe8FdN5DaIMLauFkBPBNJZHjHm0pFTZ3MLQcfyZmHRwnuyC6bjMPc90rNH+fV6gfv+haV0UeVgoBeQqqH3slNKXnEkFEfuxSh5/5wgaoc5Rk6SpXA9xo7DRbA7X0Qcib2G7oRcl05FOA3/LypdDI0XqgCg/Hq/qETvBBLG4Slk8g8lqXQcvMvGZ0PBb36EXba9aW9rCi5kW9rwt1GZgEAX7pARjUZ/lMNSxH9P79GeqADFdmP79COln3u35oemSF6g+J3b2rwk5xLsedmQXMe9BbmmZi97dSUvVQmFTEio1vcLLwDew3OSmkF+mxXPQh5GCZy03TRcFkpdc8VrdBJepef42ptvMZy/W8Rrn6bh5+2SvRmrDGQjilzkbyd5uE562fOPL8VMupgrYRAvh1V3he/CxskzS40b8xY2Trpcp3fmzLDI9zTqSXaRaDz+ArtxFXFkG7AcdhEK4mTriTiSXgokQYb/sxwqgRCH0Woy+izQ6/iNkaSXYq+hhhl+6hiyUNPzcoY8Sw6jKASe1XX+bZwvKsAhKfyeSiHSqn+vNE9vBbIuA6a0RqZjgTWM7sa9Fm7vg7dwEP84n+Gnro4Ncn/nvW2fL9G5Ds/qKzm04N6+J4eKkoveCqRFpygLGhhIO0bNAYXDavAWvpFKmLuei2z/LCjUReCQkY3t04/hdwp7a74Sh91tCL7M8C4O52BlS70/d8AxqTMfu6TXAikGTL3IcLA97+Q49iKvS7IcVQuzy56LNa9cAhGw33/k1NnDSHRaJKfDq9gfsB8o7dMhx6TfHiRRLzI0MiIyHWYrjC/5gyuuTzr/NIIVSY/aJaWSkvt64DnaUHTsQWKv45+VwvReIIsWPMV7ZrzINr0hyV+V5hdluyAEqzFxjOl02djztofSNl14aAW8zqvsnCPJypS9jpCAZ79y7mCfUA9SCZExPIa9LvUlvYc4TCfJKlTqRRnJQsht4ELgU2Q6UjVE6aE/eGm5eiwrq0El7zZ2HCaVTA3ZBVQggTUCxszMFqF0lvWdrc135JidT17E+y3cWSYaj7+Ww/Yw5go7z0iqFVA+6PWwhyunWasGJyGvG+nMJOHV8pWTKBrBi3Qmkqhw3S2H/WBS5hiBOL+xffrHko86hQpkDAqDHCmBEXfUKEElz88JUXQH119r55w8UHA4zRpEktPsVQG6FdVrd6KIC2njsRn+w5lvSnfQEZGtBL7DhnlR4XpSTgWJ5A0riNw44xTzDTd+3kVUIAV5idoWGQ7ZcZEorKjBX5NkV+A0aS/LsRdAJB+FIfxAksWJoufg3ceLXRejhNBZYSq/IggjEZVCwvjttaKrXHQJKVOxl/hoLIhdFsU0KpBKsEx7DqjBe796QAZjBrgH7yIbMIQ/wq7RyqSt7OQQOhjsW2KcK3t+LrAe7HD4gCTDwBjOyzoRxZNnnglJEKdRgUyB2vrfYbc3Ka/Saeg5iAdhjaVti2zYsFfgYhs9V/MiBrHss6yts048OQSEyYalIZj3cN8GvMedE8c+jkajH8qpToJnyLHEVhC5MV+GLIppVCBToFB9xX8kWTdJhpuzKa6YdAqx+Ryvlm2K+d+vg8HlEOcBDEyhzhn4/zdgfLwVx5gqIgmvqtgyZcYM5WglcYXIVo7G4yfsyfK8UEbM5W/WIY4PT850jsQewUt8KhbEPohiGi/CEL5xbmvzAkpZXcsVnafRZpuYpGeICyQM+gF6QfakUgW25b2C52lntYmNF49zUGmAfsHfiunESgcxJe+RFYH3YHyfluRCCn6/k+Wt5pDrnchv0q56X8FJw3ZlVCa+hN2bzKbUMyFchArkHBwXrDSFDV9XC5xXcD5NWQEeFY5hwU4TlcSqcF4y5iqutXOLz/I+YWQfKuox4W8Ygvxs3jMu+q4guNfYJkYPsgaBtJ49ROQvktzDmIEVFkYrouhZOes9ePbv49nbBaVVEOejArmAGkSyWUOrTGM9C+yZ5+/aOX70lzmNWaX3ht+5XjDMV+n32gb3SxE5JMkiLArVFsnziffIxM6JYx9BAB6xnygTON5bhrSpKK5G2yAbgDW1qpkRBf9n2Gn7ZFlQu6fhxMYQ0i6MRN5JxEt1KIEXM+Df9UkcCTy4Jxg6lWQRKITztlLYZ6/iaG0Pdkl7IiMpzGMqjvlQgVyAZCAnghSHMaoAw/61y2vqHfAWU0J3BxWOn+Kh1raSi4z1y23gISrx8ITOI+2KjeZTCMEHfH6x99hrsjPYPM7nEm/2cyU3KpAdw2byyTgkpSAwovezXUuM6J1CXiQ7bhUAv1GoByw8TVdrV3qBGOPGRNJFJbTLoIJ1EzsriuwAqILoBhXIJUiblX8eW83rAoYKjOij0unDgvfLOU7zvd8oej5PqJX/B9t5CHHu3scheY9pGhbJxHOU91Q6PNsF0oLIjaFtFUX3qEAugZ4GMxw8j6rzTzqlYcMTFDAs8cBxGtSi4TjbHjlPKGNhxCENc6Eex6F5j2k0r7oDeXdvWreUIMozVmpAe7HmwEGN1HnnCwfX1GfsHKeoAI2KDiWIYQ0ewvZnOb6nYGecNI0uhNwWzK+oaBYeBpKLqaExgZUNhvZtRU6FsHnUg8wBjOmr0hvMG1hYJMyiFATP7V6KoyQjGNj9cpwbCCKHMtAIr1cQR9KLcDmbK+xqIHUsXj213iffrxx2Dlz7Deysl8gN5XydZV3FsR1UIPMxqtQJoIQBXgWHEcQejFIMPLcf08uQDjvjjZNnuGJGG2HAzg/ryAubK7iHUB6GCJQZBpIL+17xfiXZFRJBRF58MhZEFcX2UYHMAY0oMysKNiftLU4UHZawj0s0PF4BvMvvYBfn/8ZXzDDD4Yd9NYAuh4HgOdrhHZLsBMh7t7BLVsSIxbCv+cFnVCALgJrpV3JYHMdeZCpEqJQA7/LQztbmr+iJ41lOxkU6Mtp5iEajz+Wwl1gx4KwuFcF7/FIO/WYSWo69xEO4/96siNFl1AspSIWptIjTkBq8UhY4naO1GvadiFCOd04cuw3x4nqHddKb0OoqHHSoSZ6lg+9yhhmufRqNUQmSsbb6vruJepAFgThWafdzug6ehAkVN9jllCq1NedHy51ghaOOjjttkPYSt996WAfsdx/1IEvgstZblnNbm5x0uDMrB3hOZjkseJEfQCgftZ+4xpjLNJySUgRGQ1Dh43CZ3NEZtuUxXCnJtjzIJCyvQhgeWpNth8qeJIz5XXKoOCAWR1JX+yAM+k0Vx/lAXNYhdpzoPPfQJYhpZoIF/G3twzvwG7exs14it9hDVHEME/UgS8IaL3ZV2//Yk832kJ0kV5MSVi/aWgIiWSoJmLdPHLsCA7xyMd+CaNtjDnaOH+UkDHmGajTT/sjQqYy11PfXL1QgS+KyQKJWyo4/X+NwoViqMNbOBTz75Nk6N7jGXIH3qCHxnKx6/py4gytVSNJ5kwMqSldRUVJR7DkqkBVAobyIQuk0ZJYumDEQ0IM1eDPKLBkPD57MVYfPXb3HgiwVyam23KoVGoZ28a6TDnj6rhSibZBVkJW5XQJx5CoQLOjJpuLYHHj+a9hsucBz/8aerI6KYwnkmSWdYDKkliorK44QRU78YdsS2f7J34s3+x+U3qMCWQFbkBwMdla8YX1na/MdePFjiORw49TZV/X9tstSkYwxxg7RyYkVRG4QxadUEJVlqEBWAEb0QB1epNIqcZngJOJjB+9XvceKxCJphsOPmYbn9x47VKH82SYipBf2XmXoFLtEFGNB1Hei5EHbIB3gvEOH0i7GXIR3QQMasVfrua3NyxDKZDmlvNCgb2yf/qEkFQewrE2LG4Ry/399Y+ufh6PdB+wJY67g5B0eqhAqVVAPUlGmiaIxw6wURzCIjW1RotHoMzlUHDFP8PCe7vyb7bcexGEcOtV5ThUnqAfpCPUigyMTGi3xfjW0qigdRz1IRZmHMezNOpmfVfaKovQLFUhHiLfAEI8SAlH07M7W5rts30JqWPD9ctIB9R4VpeOoQDokZUTnb8ZcNpPFUpWOwPYtbN9CKA/IqTzY1fMVRek22gbZAtKetRpjDkBQ72pgfUJlEcZcPHLqbDLnbo62SG17VJRAUIHsADkElZGAMcWUoqqC6pCpOVSXCSQ8zasbp84WHg6iKIqfqEAGSC4P1ZgBBPU7ENNkwmdlIdYrjCIOizTREpFU71FRAkIFsufkFdN9UcRZSbigbZ5liELjIoTPhlkpkjtbm7/B4bRAZlYDURSl+6hAKoXIKahDeFpcgeQJORMCq7xI9R4VJTBUIJXayCWmxJj9Iqg+e6czArhz4tjH0Wj0MA5VHBUlQFQgFW/IIagD9oTB3nCc4uRUo5zfOHX2J7iEZL1OXrOKo6KEiQqk0klWiKnt1csDiNkBeqjwTg8x7QD1FhWlJ6hAKr2gYLj3wDxBNWtr/3vjzbf+WpKKogSOCqSizGGeoKrnqCiKoiiKoiiKoiiKoiiKoiiKoiiKoihKOfbt+/9vEzMotTq+awAAAABJRU5ErkJggg==;rotation=-138;" parent="1" vertex="1">
          <mxGeometry x="2860.1" y="3426" width="20" height="11" as="geometry" />
        </mxCell>
        <mxCell id="fjqOqR68Di9mBrLPFcl0-2" value="&lt;font&gt;dump&lt;/font&gt;" style="rounded=1;whiteSpace=wrap;html=1;fillColor=#f8cecc;strokeColor=#b85450;strokeWidth=1.5;fontFamily=Open Sans;fontSource=https%3A%2F%2Ffonts.googleapis.com%2Fcss%3Ffamily%3DOpen%2BSans;" parent="1" vertex="1">
          <mxGeometry x="3880" y="3710" width="60" height="50" as="geometry" />
        </mxCell>
        <mxCell id="fjqOqR68Di9mBrLPFcl0-3" value="&lt;font&gt;Value Ranges&lt;br&gt;&lt;/font&gt;" style="rounded=1;whiteSpace=wrap;html=1;fillColor=#fff2cc;strokeColor=#d6b656;strokeWidth=1.5;fontFamily=Open Sans;fontSource=https%3A%2F%2Ffonts.googleapis.com%2Fcss%3Ffamily%3DOpen%2BSans;" parent="1" vertex="1">
          <mxGeometry x="3700" y="3811" width="100" height="30" as="geometry" />
        </mxCell>
        <mxCell id="fjqOqR68Di9mBrLPFcl0-16" style="edgeStyle=orthogonalEdgeStyle;rounded=0;orthogonalLoop=1;jettySize=auto;html=1;strokeColor=#d79b00;align=center;verticalAlign=middle;fontFamily=Open Sans;fontSize=11;fontColor=default;labelBackgroundColor=default;endArrow=block;endFill=1;fontSource=https%3A%2F%2Ffonts.googleapis.com%2Fcss%3Ffamily%3DOpen%2BSans;fillColor=#ffe6cc;strokeWidth=1.5;" parent="1" source="fjqOqR68Di9mBrLPFcl0-4" target="fjqOqR68Di9mBrLPFcl0-15" edge="1">
          <mxGeometry relative="1" as="geometry">
            <Array as="points">
              <mxPoint x="3890" y="3665" />
              <mxPoint x="3890" y="3665" />
            </Array>
          </mxGeometry>
        </mxCell>
        <mxCell id="fjqOqR68Di9mBrLPFcl0-4" value="&lt;font&gt;Custom Plan&lt;br&gt;&lt;/font&gt;" style="rounded=1;whiteSpace=wrap;html=1;direction=west;fillColor=#fff2cc;strokeColor=#d6b656;strokeWidth=1.5;fontFamily=Open Sans;fontSource=https%3A%2F%2Ffonts.googleapis.com%2Fcss%3Ffamily%3DOpen%2BSans;" parent="1" vertex="1">
          <mxGeometry x="3700" y="3650" width="100" height="30" as="geometry" />
        </mxCell>
        <mxCell id="fjqOqR68Di9mBrLPFcl0-8" value="" style="group;fontStyle=0;fontFamily=Open Sans;fontSource=https%3A%2F%2Ffonts.googleapis.com%2Fcss%3Ffamily%3DOpen%2BSans;" parent="1" vertex="1" connectable="0">
          <mxGeometry x="3880" y="3790" width="60.410000000000004" height="52.25" as="geometry" />
        </mxCell>
        <mxCell id="fjqOqR68Di9mBrLPFcl0-5" value="&lt;font&gt;gen&lt;/font&gt;" style="rounded=1;whiteSpace=wrap;html=1;fillColor=#f8cecc;strokeColor=#b85450;strokeWidth=1.5;fontStyle=0;fontFamily=Open Sans;fontSource=https%3A%2F%2Ffonts.googleapis.com%2Fcss%3Ffamily%3DOpen%2BSans;" parent="fjqOqR68Di9mBrLPFcl0-8" vertex="1">
          <mxGeometry width="59.39283816590961" height="48.61196771855452" as="geometry" />
        </mxCell>
        <mxCell id="fjqOqR68Di9mBrLPFcl0-7" value="" style="shape=image;verticalLabelPosition=bottom;labelBackgroundColor=default;verticalAlign=top;aspect=fixed;imageAspect=0;image=data:image/png,iVBORw0KGgoAAAANSUhEUgAAAcgAAAD8CAYAAADzPTTlAAAAAXNSR0IArs4c6QAAAARnQU1BAACxjwv8YQUAAAAJcEhZcwAADsMAAA7DAcdvqGQAAD9uSURBVHhe7Z1ZlxzHld8RVQ2ApEiJi8b+AOMRKVIUuIFLDzdJYzbO8YsbYAN89oM/zDz4C/jBr2yAAOYcH1to2hqJlIwdxMbdY/vRZ2SJIkVJXNBV6f8/6mZ2Zq25RGZGRt7fOYnMyEJX5RJx/3FvbPsURVEURVEURVG84dzr//Z/cJOk4hlG9oqiKErNpMXQDIffjUajH00S5sqRU2eftceKN6hAKoqi1EgiisYM90XRc/Z4PuePvPUPfyvHigeoQCqKojgk4yUOBvdE4/ETksyDiqRHqEAqiqJUZKodcV32pYCoXntt+/RhHA6MMaPJWaUNVCAVRVFK4FIUp4FI3tg4eebJKIruhkh+JaeVhlGBVBRFycFU6PTuaDx+UpK1YNbW/le0u/vPGnJtDxVIRVGUBVhRNGYIL24/BPEpOd002i7ZEiqQiqIoKXa2Nq9EUfQtvMSDEMWn5XS7GHPpyKmzz0tKaQgVSEVRek0mdDocPhCNRj+UpFew887GyTPPSFJpABVIRVF6RyyKEJ2iwzBaBdd7EyLZmevtOiqQiqIEz1QHm/sgio9LshGMMVcZtpXkAFuVcOmFI2/9g9Nes8p8VCAVRQkOiNHaztbmOzaxegYb50CEb0GE/yTJfdOdbNKCLRQSPH4/PMlDuM/9EN87clpxjAqkoijBkAiPMQcgim211xXudZoSzNxCaYbDD6LR6Avt4VofKpCKonSWTOg0Pfl3C+D338fv/7GKYMn90C6/YE/kQ0OuNaECqShKp4hF0fg0DIMYc/nIqbNOQrlyj0VET8dK1oAKpKIo3sK2ROzMztbmu9iPIUJrOOnfslDGXIQ4FvH6VlJCJC9CJJ1eQ99RgVQUxTumQqcPRaPRw5L0k5oG8p/b2ryMCgEnLs+LepIOUYFUFMUL0qIIutamVoswlfAiGXp+b+PkGX9Czx1GBVJRlFbIeImDwb3RePxjSXaNWjvJlBTJ63ieX6k3WQ0VSEVRGqPjXuJczHB4e2P7dG3iXkYgU2jItQIqkIqi1EosivBq7oJX09aKGHVTmxBVFEiiIlkSFUhFUZwiBp22JTLGHIjaG7DfJD4LpA25bpw8E2rlpDZUIBVFqYw14pMhGGMke7csEwToBgTI+QLKqFwMdrY2f41DF+FonVCgICqQiqIUJg6bkrZnsPGI8xunzr4Cr3lX0pVxLJB4WbquZBFUIBVFyUVaFIF6IvNxGmp1EV6dwZirEMkiYyt7iwpkSzDja8O54jsSOuVqGBGS6nnkwZjLGyfPvIijEbxJhpxLU4tAArO29n+i3d3/qzZoOSqQDQIbcwAF5tudE69/Eo12f2AnNx6Pv8YH8TpxS9HMrNRN2ktE/vR2df0OkHiSKPco9oYVjELUJY5TaA/XJahANszOiWO3y7bX2MG/UXQHJW5lG4dmeiUvaVEEGjp1BMdHoqx/yWOWR5TdtTztk6n30dS7UJFcgApkgzRUI7RATG+KmKp3qswQG2Hkk3ui8fgJe1Kpk/Oyx0M3g42TZ+LyFu1sbf5GjmOar6QYc+XIqbPPlvV2Q0UFsiGaFMcysJs6DOVfJLkUFdPuMeUlEvUUWwTl7ZYc7kO582WKPfUkp1CBbAgYKNYgg1iKhm2n8Ey/QW1zjP0dOb0QLXTt4nvlTPEKXTIrhQpkA/TdQKG2fBu7OxDUXW0/bY7Lly8f/t1/+PufD3Z3H5JTjWOMuYr3PjfMj8/6MstOp0B51dVABBXIBji3tXkFwqCGIC8wqvh3hGc2mpxYjIrpfCA8B37xi188d+TIkf/29y+tH3z0oQflk/oxa2ufRru7v+PxqvcTh361LdQvGCXa2D79OPLREBWZleUwVFQga0bDW/UCw8rOSN/mCfWSvgnqzhuv/xPE6q8l2QSl27FYVvA+D0Io1XvxAIjkp9Fo9Ls+V0JVIGtExdE/YIBvQFAZ5uUA7miVl9ol48D8Nu96cb6p9m8rjni+lXpCarnxjt523lGBrBEt6N1HPNRvIKRet53ubG1ewXUyjM/5QDmLC0UqmcWl7jA/ntO1jZNnnH2/lh3PMObykVNnn5NUb1CBrIkGa+2KJ0Akbr22ffppCNNKMXXJHDGZW+OvNU/WYEBVJL2jd57kQPaKe3Swbc/geLb/fOLYZ/Dk9suptlgXcckA40ax2Ruw7ggzHH5Yh3dBY0wPXpJK+8zNVyGjAlkDWvPtLwfG4/t2tjZ/Jck2SYwZBPugPQPEA3AqkqgY/EkOnYPv/rMcKn6wznC+HAePCqRjaIxQ671Xkkr/uLBx6uxLcmyps9a9ojK2vnP86HVjDCd12I9tjSedi2SO9tmy1CHoSjWQj57ZOXHsQ+Y9HB+Q00GiAukY1K7+kaE2SSr9g6H1JLwOgbqGXWuhKeTFJ3ZOvP6peLWjWCS5sC92boTHGPudSn+QVV7oTf4yzlMhogLpkBW1eSV0uA7gqbMvS8rmBwjUU5JsTyRHu3+DHY0ZJ8Veg0G7ix2JYu+MnYv4/0oTRc+2dW9K6zBfvYM81Xa7ey2oQCqKA8za2j9JRxWWqaE9Nxjczb1H0Jj9AvtdGDTbLkmR3Dh55hDEvXK7Er5T7Uk/YSif4Vab70NCM7Qj1HvsN9Hu7m9hIOJQkxHv8UlJWyCY98mhE0rmOVvjx/7bdK2fSx1hVzrkinu7Jz3uUukZUXQY+epdSQWDCqQjYByCbqxWFgNxeE/ClXZcMWrTDGXOCBcE83FPQpGs8V9GnuUE8kn7UZUOMWzrxL1dkKRTzHD4XTn0F2Mu418+u9lt8lkfCG4YiE4U4ICSNXklHDh7zavYs3POCOJzATXqZeMCnQy4rprv4gmpJZlQ8XudDSaHeBtpN/WybOH5fRSNRn/g8ap7nhKOoG0FKow3N06eCWLieRVIB+ycOPYxCsrDklR6BLywqxDHw7EnJuHLVQbQiYgg39FAPyLJUsTGjGIEkt63Pojkua3NiysqGm1S+h7ts2XEKeAVfuLKg6vKUluoQFakai1e6Tyx92jb36QdJk9+qCQiLvMdjBkreJ+lr4eCn1Ps58OwYhTFPWULw/vDdd2P63pUTvkDKkVHUCmSVGl6Yjts+WA4X9KdQgWyAiqOvceKnHiPDAdSHJ+3n6yiopGtJe8ZcxHXlJmr1QrVYHBvVH5sL9vhVoYgY+S+iJ/lyvGcsz0SyZchkp1bV1IFsgLntjbZ1pTPICpBkW5ngUCye3vEru4F80O1MF09hnXuNVVeDYTDSFav2Ul75PcE/44FkuBdshIR9sIGxlxCeVmHSHaqp7P2Yi2JNVAqjr0FHlVmjlCII9vLiuUHY0qVv5q9jrk9EWncsLPeYCmiiN4yv2PZ5r9I1DCtHiokvPfyz7YLRNFztgLZMVQgS8Kwkxwq/eNi7GVJW927IgDFgKDOEyMPSE90Ho+VHMs9h23Il0EvaGqeXaUAzO+MunUIFcgS0HhUaJNRuk86TFRtWTNjfJ19ZJ1h1bhzRdx+1HORZAi42vtegH2uEGBJhgtEEp7kVUl5jwpkQWoObyn+k7TRJd5jlfwQRc956kXy2rhqw21JJfRVJFFJOIitFoG0RFHnOrGUAc7F0xDJG97m+xQqkMXRjk1KDD3JRstQ0xW0aDT6EUTyg2ljFosk56CdnAkfGPZDdRl1VLZ6ZYv5LLHzfuYdFcgCyMsMu7eZsoy09ziUTgcuOmoxnHlRjr1DxiLSmGW8Rj6LjTff+hszHH4op5SSdK13p0OsSKI8eel4qEAWQde96y1mb75VC9vkcO5+SVanjvDa7PygVXlBjNmAFQQ5t29j+/RjeBbXJRk63ns9HYRzA3vZ/qoCmRNbKKKIKx4oPSQaj7+WQ4sViorTvE0R16QXTnovhjlPeNUKIsfrUdTjLT7P/1ABrgbya+wNrjWpMG6cPMN1L12IsP+UHJ6zDDzL/Zw5SJL9g6uBHD96U1LeoAKZE2TeB+RQ6R/xjDnWayogVIWBZ/qtHJbFXqsIYoYpoayCXTIL18p1JZPQmKPv9p/J8JzzrCBgc7KKD57nr7ycVq9BODIAIllt8W7HqEDm4NzW5mVk3h9KUukhFAKGVW2ivqEZK71IFzgTyeNHr+GZZHp19kYk9+17QSoJXFezcvuZGa59Xw57DUTyceQrb4aBaI/MFdTpLSidIDP1Wt35AQbXrg4iyQwwyFdgjJdN98Y5L39Coy3ppbi4F7Ng1Ya+lBu2vcKofzV9/3nhczJra9+Pdnd/IKcUwI5fyFefIz+/OF0JaxIVyBWoQPYXGv+N7dOZsFdD+SEjyiTn7xaeFNrZ/cyZo1SM/7+A8f9XcipYIJQ3IZR2+sE8YinPnahtWQ7z9N8hT38l6UZRgVxCQ8ZQ8RcWzqQG22B+4FR2M6tqYJdHIAvVuB3fE3//Z/j9TIcmF+tWdorlE7MP8HzYdhnCWpCcNm5hXkOlocoqMGlmKoxNoQK5BBgPZgCdkLyfxB1zaNDGLVSWCoV26cHEq4sUxbVIzjNmOcLDSnewbczLRAvveohyM7J5CxUCHN/N9kX5uAytiKR20lmAGA0Vxx4Ti6Mky0BDMm9bCQTvO3KYC1xrxmtrkbnjBOFZsl01170rfmKGw0+xs0K1Sqwojtzb/3vq7HOovNGTPI/veJ/nS2DnBpbjxlAPcg6Oa9RK94i9x71acLH8YIVgkRFJCciq7yziRZauYdeR32EIP9jYPv0jSSbgt/hsdDaqbsIQeu5OYItAHigdmUPF8baIbSOoB6koC4hrwTjIP6yDnVVYa14iVqnPl3pUBb3I0pVdtlti59S7i0ajx3aOH31Pkgm4bwqxepLdg+L4SlVxJMgDrCCVmlqRYdomPUkVyCnqqE0rnWLWa4uivCvI29lr5HglVpiMWTjmC8YgMzn2UlGtMA0ijF4t3ehx/U9yNZD0PRC5j06tC9hn2L7Nd4Z84myxaBHJchWlySoz7zNfsRlEztaCCuQ0Ot9qb4EhuJYWR4sxuQbt429vzfztCqwwRdHSGjm+9z45XE4UHZ4WIh+AJ8kw60y7JJ6V9STNcPg/J2cUX0FFxw5fcUlVYWOEArt42sPaUIFMYQuxzrfaW2AIvpFDiw3l5Ox5ib/9Ewp94cqViOrCmjS+9/G0uMDr/Cl2XQxRzhPJv93YPv0DeihySukJqByObd5fEkHJydxOYa5QgUyB2ux35VDpGTDSN1hg45qtVJZyiSPyzSf8W5chqCniKej243gMo9LVcjt3WS8OT8Gz68wq84pDVkRQclKbSKpACii4lyQcpPQQeGp/oTiyZiuncoN883v8belOMlZch8OPJLkQXNsdbhCUV5Gc9SLrmyPWHVH03DxjBs9Yh4H0EJv3BwMXE5TXIpIqkEC8BQ2t9hfbMScWRylohTpq4W8rdXSByP5BDheRNgB3RFSzCxUvEB8PoSdpO+mgYnEXNivsdfSmVRxgTGb9T9fgu11NI2fHSrq8VhVIkrMjhhIeEJmPKTaS9B1bXmMhh6h+zn0niaLnOQwE92InOKBRYyVD3oWKpE/wXW1tvisp5+C9u7O/UfTM2yeOvYf85KSzZe8FUrxHnQKrp0BkPpNDS1HvEYX7aoMCy3UIEw/RepGz4alaOy24JJoMA/mAxhfPMZlgXUXST1yJThrmVeYDSToB3/fjt994/Zb97km7fWnUg+zJsA4xpDQ6s5sxl7D1r5OEMVfS4lZUHAkK4KJJqWsHv21gDP4kyT3K1MiNqWRIyoIKCldLSUQ9NsKxSMLD5/RmSvtw/c/fyLH3IF9x/V5eM0WydP+AXk81V8Ygdg5jLsLqTLpUr4DPA0Lqagb+LlBkKrdFXMB3VM5DBX87c90wAlxqKfPO8B5zT8nlUTngbC2vwZvMjLubd39Ka5Se0nAe7BwJ+1R3/4/S19xrDxK10wfkMETYnZ4zu7yQN3Pw/8GoHsIhPcvQsYUGtUvboF9BJGqZhWYpqagHrn8wz4vEOU7JdVmSXYEDv9+W4wTmSQj+zLR1Sis4C+E3JI6EnuR1OS5EbwWSL1nc8KCAIWFGoPHPLYxz6E1kId321RlgVFJGysDregXvfXawvcyus8igpT7zwXuMmWuAIZJPY9eHilsXsO9oUb7KQ4PiaEGF8YkyItnLEKuHRsEJ7DAi48kqE3hYK/YeuU7dbpX8wKEWr7351o+rCm1hg8H201Nn7f/HfeyH5/UrHC6+Bwm1SyrG3zKA62X0Q1IJeFd+rNFqzGU8zzwTQwRnZ6awlZY8lfFYUFFm7pe258YYr6199tJ//E8/vO+++34rp3LRT4FsuPbSBPAgrqGW/QwbpEHlsF+wlYjB4D3xRhJ2Thy7hQLb2mKuFZ518rsUybePHz2PfUg9si/i/uaJZJt5k53aDiAPPZunnMWiAIIWSojeR6hQfzGnEpamtXdWtnz2LsRqM2xg4kiQOe08oi7E0dKFWVlKgOf0NT1HbEnbY0VxrAxE+6AcFgLvOt1blYO5XUzb5RPPo/LyUUpkLGLs2gi3WkMLz/Zw3nJm///e9QYbIrbNVVFEz54iuGhrBJSnvR77FYdh9c6D3Dl+9BaMZKsGsQYqeTDTtFxDrw0UHNuzk94WktHO1uY72Fe+TxjLSqFtPG8W5rKLCLPn58+w38V17LKdBfn7iclH7QBv4hNcw+cwmPPCzmWf90weZz7Fbz0I4/yInKoTJ2XMXjMqRHg+mSiGUg2WwbiCmH5POHcAn5WuOPZKIEM0/FWN8zzOcULp/Gsgdgm76Cv2jEOPHOeHUga08jVk2yLXXIl+WeaFsNPI/ZIy18j39zLfnaQtDbSXO62AEnrGDQl7uKTa1Re9H5QJZJeJt8+8V/Q99ibEiofDWnpQ4kjiWpMraGSRoUqF/DwnY+QciyOF4V45LAS9CTksh/RUlfe2y3vEd16TTxsHQmWnjlsEr0/eQ5lwI4eBzEx5BkE+BGPZqSEtEMfMDE7KatghDjs7fI1bPIQtXa7TsFwgv/zG7o8fvYFT6z9/4/X/N/k0H31qg3TTNhc4b584dqXtEF3N2KhJWUFbBD0YEd3c4P+fdxJqM4ZhJNujEkJ5AN+ZWdeyQWIPfSUi5DRaRZk7DATGkhGPMqK7FF7jIgNchQqVhH5hzBX8awVxY/v0Y8hf66tEMd6QZAXYbigTHN+9z+zufn9e/llELwQy9bCU1XRvXOBq0t7jGLXJCxQ0Sbsk9yBq/D8W+rLtjlmi6Jn079p7ZfipHXLbFLyDv8hhUficZ8SlDtGpcI1KeawgcmPzAd8rhPFFVP6Ytwz2tpLLPZuDmBe4wVukmCaiyP9TlV60QYY4rCOFs/YRZDI/xpg5BB7AzY2TZ6xHjALFFSNGOyeO3Y7qXfuT4jQzvV9KxFju3IhjTKotkrT0Lq0HGXuzeZBnUsqYmeHwfXgVMx3uqnznHJy3P6aBbbrCCo4kewnK6HuoiCSh+fh5ixDGGsXGxElb4sSe7yLPD7Ev1FcibQ/yELxAOi4sPuKkAAdcUGtte1wG20wgxJ+jIA/wbHmqbsHKzAvbaN435jLDnDRqsSHLQ9VrjJ/xdBlwde8wqNdhUJ+SpHN6YJ/mkhbF9LtD/pmOQFhhlOfEfFZYFKcoZC+DD7GiAD0kh8oUzIwURi45FKo4wqP5iRxPap4NGiMYbrtSBZ4thbF2bw5GJxkXiXfb9BqnVhSLiCOxxqpCB5v4GePdZkLKYgS5GsgnkzPlgBF/MjHOSmno7WOXhE7Z05nviKFTfk5blBJHDsH6tWy/YS9lnGO5ZVlqtHd90ALJjI0C9LAkQyV3u1ca/g0zIIVRjEyQwGDbXr4ofKx55g79dREY86fjvMD7jkWC6dqZP+YxH8tnX8kHDOd0ObAGePv0IzDOH8kppUEYzsRuIojbpx8XQXyJG8oj2xIHrFDxGIwTUTx+lM0DE0HEhnzd2pSXwYZYUVj4Yty28/iNDR0w0+GY24iZz36SImVEQg/r0Hv8KZ6B7dEp9x36PdMo3UDt3C5Ai7xwAAbnlzhs4r4rhfrZDR+G0PY0rMjc64CHyblTq4wXrnR/i3BwXb6RVMjEHsXtiEkbopzjsKQ7Ui4HyLf7WcHj57Ux1U6fh5AFshcGMQ1ryvAG/yDJGfB5U7OOtAprrtMN8Qwjh+wpT5Ex5g0Z4UoC4rS8GnMJhnAmpF3lN5Cn4rmObUcvOV2JEGwUnwuELRlWFOcBEcGEWBzlni3423vwt00OKSucR4MMsfZRHAkEwK6ivWjrgzgSFLpkwV0U1LuRH873SBxZEUrWOcX9r+GfxobuTBvGVoii59hTWVIWXNc9YhxLDX+hd4OKxhVX4thxbNiUGysNfK7xZj8FFMR4YzsibTKe33To1Pvx1kF6kAGGLZScoFaamerMFspJJ5m+YWvLFEgYqUpLehWgtBdZy/VNhdTwLNhxaZcGG/tSzS/MXzDsX5e9z5guVeJxz5y/OlmUe/reWSmiEEpyz0s0hm2Md+NvXYTOK4FK48cb26cLr/8bnEB2KeMptZANL/Y0P8CopdsiV68X6Qa/BBLAMGaGgfBZcIfnUW3OWmM4Fm9U9H4T8fA8TyL/cH5bG4lZdI8URuzWsMWVjhj/7k2GIUkqN0EJpIpjz5lqe9L80HhlwTuBTJEZI0r4mxDQhyCgVXq6c0kljnOdmRgCAkLxoHsVT4xP/M2PIvo8zPMeJTozxt9VHZvYBKXyZlgCqaHVvpOZyWXn+NGrqAX3fVmhZNHhukUIYvPBxvbpUjMUNSCQJNOzOQa/7aTH+3QoUmAPTXZGaW2owiJWhU6nkXc0YIUAwsFxi10aO91vgWyogCn+QuPHQcds93C9lFWXyazK38BzKWWIGnxfc68Plet+TPlW1EucvBf+XRe8xLmgIlB6NqRgerHiIdwlh0rPwLt/Twp70gUf5+7jXtn3fGLkAJ8TntFVSdaB7zZl0WogjDwlY/gCI+l1yiYI5oFl4sjng+0CKg3xzFONz2DjEnjJS5dgW0YQHqRkePUW+gu9x5d4AOPPGTmudCz8UzcZrwmGr+4FsQt7kTvHjzLcNzPxeF2wUpXu7RzTwLOpH1aA9taJHaTKxtyZpFIVhoEZDu8PcDhYqagGCUIgd068/kk02v2BJJV+kTX+WllaRPKcUHkYyrqftpdrTeQ2Sm29M4jBJ5yKTpIJHc1DifcLQXxVDsdxRGWalCiSYMsLKkKFVu+YpvMhVr5oFUclgW0lylJoNCGOX0myFiA+3+WeQwGweWln2Ht1543XP5kSi7htzutwKww/J0LYC53imuMN6V284ztpceQ9xltm8u+AxZFUzeed9iAlYwf9gpWlWMNAj4iJna3Nd7HT/LCYrLdd8zqpEMn3IUJ/lM5TccUlmSMY763JuWJXMePx0r7gHh7APRQeYF4HEMWk1+n0tU6DZ7sGIeRiBPFE8H0tF7kjGfPotEBqW1N/geFKZsagQLK23MBCyF0nK5DNLapsvTH+Nt6V9SZRdn/NPfDHcBtz8cipszPDPSA0nG+0tjUhV5B4snkMvTgNMVpZ7KtAqvfYe3q5WocDMgajyUomKjUfoTbDHoVjCI6X41ORn64iX82MpW4qf8FLnDv59yLSgoi/vQ9/21hHJ9/hs9w4eaZS3u6sQKq30GP2Vq/ntGEj8UZUHPMx7UVqxWIamZGJ+QuCeUfO1vesuGC0rFWqXqJTKnmPpJMCqYW699iMDwPGqbzsQqvYa37IT3bygL4Mki8CPEmOjZSQMHRy0uHFhe2BJ/2hbUtUUaybfgqkeo89JjXfKozXEOKoHXOKE7wXGXcQQn7hPKml2lnZKWbj5JmZlSjKPC98122I4pc8LiSIxrB9/SD+1vuloXzCRXiVdE4gQyzMSiES464CWYmmp6BrBBjG6xCTr+ZUACg2XBuz2Irya2ufRru7v5sWNXznyg5ObM9EHrUD9guJ4oSg8zTe0008m29iL1pwec+VvUfSKYFUcew9wXs+DRKcQMLozp0dJ02FGXvSFbMktJ8eBmKNfmqx7tT/t2FabBy4P7tuIsDf3ou/9W5C8xpgr9xBOu/FOK4g9FIg+XBnHqwSPjAgt2H8MgZEQ+2VCa3CkcsoVphOjj2nOUuNFTmInfV+YsPO34YY0qYmdhX/Jx6HaHEsAl0iPdQHj2WvojAPB3mxXwIZQOFVqpGuwWto1QEwUpkhDZ0uYwUXxC0tklNjJcU7TIQwFsg4TRJRLBHi7TpxWzDyWbIMXV5QxksNQZrO11XwcgqoaZgJ4UEclKTSP1hzf0WOdcYcR9D4pD0aPOOfYZcMTO8U2baslbCjF2zKNUnmJ4qetxMHTIYYWWFMiyGOI4Ze+Vy54f/ewGnmVa6I0S9xHAxubGyffhz56mUk584Juww840LvNAZ/lwzNqUonBBKZ7HykC9/2mrj2icyvFSWH4LkekENS2Ih1GdiUzMLJecHfPQWbxEpaAvLlgFP3ZQQRG/7vTC/YPgBxvPXa9umn8VyQxUwyvWARIKzr/B5JFqHwby3Ce4G0NdyuLz+jVCHTloDa+T9ip96jI2DAEi8SRuwOjNJPcdgtL9KYK2Xam/g3MMDXJVmMKGuD3z5x7DrOPdtXQZwG+eov2FEcq4iVwfO0c8/mhWNMXbQ9xnTCg1SUGBi0u+VQcQSeaXpx6Uynkk5QIaQGA1x2tYdMGyO+pw89UPNyfuPkmZfpOUq6LIXFFe8h6UXsAq8FUmq26i30l5leligAda5h2EvwTB/Hs+W4PrILL5I9NbvZFtkMTnpIhghDovJsSrUfpinlfTpsfyR+e5C6tl9vQUG7OS2O2GllqSbwvL8jh5y5xamR8RnJY5UqA2Y4/J4c9p5oMhl9OXHzEG8F0hpEbXvsLelQCQqdVpRqRrxIVkKsYXMhHE0BcW+t45aNaoxGj0lSKdnz1AXIB9dce/beCiRqZQ/JodI/pjvm6LCOBkCZezBuN2LvQ3uyA0DcnxZxrx0Y4RuujXAwcIJ3188m28t6KcgHpXolL8NLgZRa2cOSVHoIDPReweAAa6V2UOYeiYWGIbIZL9KYS/iX6emtN8AIs3fmHpo395B5Z13BiQLwna2uMuOdQKKAssCpt9BfOCnAi9jbUJ812D0bYN0y62lvLCWS5zm4nunpTT6/iK1X1JU3UTm5Ck/1tiS7A1dOcQgMQO52TDNc+1TyolN89CCDaNxVimOGw4+Yyem9YLMdRVKdR5SWSAnhXORzTr8W94RVimAMKxexN84K4mGZdzg5h60LONMTVD4uoPKRe7q4aDz6oxw6xSuBlJqreo89JRqN/iCHFuaHSAdet0HGi8wLRJJlty1jXuqaC+J6eIcVP87tKpWMTEVk6tx5VBbLTWrQFFHkbiamoiMYHId3Y3z0IJU+wkmgU8ZBK0uK75jh8H45LIMV23SeXwa8yn8Nr/Ip/ObHcspHnET/bNkv4D3WiTcCqQax50RR92ZwCZuyXqT1diapxmnCi7Twd6LR6FFJ5gYC9wl2hT1RY4ztHBSNx1/aE35S+fmX0YE6exZ7IZBlHooSFBmDEUh+iNuOkq2THS9KwHeJey0zyXQ75BhKQGGraoTZxv7am289Wul7HM8U4xMs93hGD0oyNzM9ix2iIVbFO2Bcu7xihxVDGsHpLdXxoiuU9ghgtApNMu2QQtds/2+OoQQuPDe2scMTrBQpYT7Czucew6XyjPzNOocaTc74QesCySVisFPvsa8Yc2nj1NmXJGULCoxRV5c2W9muJJ91SSS7yPrOiWMfyPFy8g5NSHUCiY35JJWbwmHVJXjdHAEv8K92jh+9Gcli0ovA52t8lvy/SJbSAPzW+w6f6wxezJbxX04c+2w4Gj0gSaUnMHNzQVUec+YWDu9AYbkFgbTnOoUxF+EhrvMe5MxSShrZtihl3HGPrAgkq+83ztTq/9PYynn+cYzJMyj67pDPP0A+/5EkK9OhvLO8IsjQdtWJAIy5jHdc25SkXggkjSMMI8dQRWYwuA9uts5t2A8yhrdjopGGY9f+DuJYaOmkLhm6kgLZ+v2xLVTaqOh10aOZeF+cASenOOI7rqHykxjyEvfl0nvscjmpA6fPdhov2iBZ67azdKC2JzUt246zdDPmCj0QHCtdZBJa5Yw5lgAKfS3jsDyhsd6hroE4st33eWzMW/F+vYDnyO/IzPEJu6PRrp7QugcJ75EDQnkdozg8hXP3YMdlU+Lri8NWmfAV/3/ugmvMfnyxF2NrFMu098iKT3vhuLJA6Fm5k1Rhznkw32Qepr2oPATk6SR5tcQ9XcDfOn0GAT3XSsD+X+WsQ5KsBS8EEjc6MwMDw67YxR5uWhhnRFIOV1JATAf43ruwP1BmrJOyksTg2PD61uZvcNjVAl8pxNMxY1foXkMw5PAWP9zYPp00+ZS4p0r5YxoVxwxOn+08vBDIL7744ruX/v2/++/ReMww1dIeWnU/kGlyiCrFdG3fYHAXxNRZQ3yowBO5LcMdEuBFXURG6NzanzCeH8F4VqpAqUB6T+aeC3bsIa4Fkn01SkcsAiN8gSQ/f+P135rd3b+S5FJoYCGqXyOT0utc2d25SUFdIqZ8zvR0B3R5bbqGVQA6Qibk1HEjWrmAdvD+c99zaAJZ8n6cGfFAnqdLwhfIul86207gmXL2ia6I6R6TUO9B7PcH4p1yvtWknTGAAu+kgO4cP3oDebQrk7KrQBbBmCtHTp11UhnG76v3uEft4ki88CB9KUgQUw5upZjuwsOrVVCljTV+/tzbtlQI4tzflWe0HGPYnhsLqo9DZTKZOgAD6qSQlgjbtU2u++78+50aY1eyKcBNHul+WXFNfwSSdHGAOAT1loR7d+XUUqZfqIhkAsQNp+zsE3M7HvFzOVxJTkHdj+880JD3Epo4kt4ZP1YiN06eeUKSC0E+XtvZ2nwHh52uAHEoUlzudk4cu100kmOGw9sb26czbe5lwG+/72mlty36JZB9qCHBuNyA4fgW1oNe4lIPtYmXH5NTTBnuvYeiioL6QzmbCxiJj2EkMn+D3wwhXFS5kLKShMrhZRx4P9RDyH3PHQsdz4MC+Qry/W5F+1Qpn+A5spnoKUn2HjabFR1yVBZvBJIgI1xHRlhZO+0DKJRXUW0d5xFT4p2gAmTke3H938ZjlSgGrI0HVBmqPMbt3NYmV07vSkWBgvEy3uHKhXG7/o5jT5mesBXIamHwUvmEzxCVywdRIfVqAm8PaMR7JF4JZECGs3mM4YDzXEvhlM1cscBJciX4//uxG8cGNTY2ZUJVXrJirs88dFAgX8I7XFphC6IcT+bWZXjV5t2drc0ryL/lvZYCnXXk+RG1hfPpp0CSkg3hSgGSUO+eh7qUCoJqBVGSlqAqQQ56KHboeSThRknba5/OGzh3AV7P94qG4T3EVXg1Ac/lQzyXz3k857nFokhUGBdghmufbmy/9bAka8c/gQzJgIaCMVehdjSMlcU0wPdbqTbbhefBChW8qSdR4YFeSIeVuDkkjlxID+qAmkgokD/BPX1byzuCh8p/7fGkktq9aRbbITNUrG68E0hSOZyhtIatJU9WT+BQGZ4axwKCd2qnFQwmxEoqeJEdCq9mvMceVGJtm2EcAdFKu1c0Fl4lXqzmMQ3M6spOAIqfQPgehdF/Rgw/t5mVIERAwyBnu+9ccoS3PSA2SLa20xOxgDbuNQ/YzmZKL/FSIFEjp2Hl6g5KGFiRpPfIBN7vczA679lPuk+ppaC6JDSx5y/JVmCYFzu71J0c1421jXxPqNBVHseoVAd58GqT3iPxUiCVsIHBNTA6XM4sCGCwvyOHuSnzN43DnpyTXqtWHFsU9fNsA6Vx5MZjnpPNKXgvN5s2wko+YDcaX3PVW4GUTKpeZDis2zY3AIMb2fdrzCX7SceB2B/K60Xy/2E7z7+RU15ihsNP4Om/gHfVdhjYdpaR44RYLHF4Htf60eRsdfBe/swKHA5t6ByCybVplZ6iHqTSHNNtbpMVWUJhfefEsQ8XCaUIY+yBed9jMRqNfi+HltS1NwfnQoUIQqQXeg78/LU333oMQnZbTjmD9wzB1IlLPACVoE+lQtQoXgtkXEOcpJQAyLTXhfZ+ZewfhfKDWBDjjedl8x6IzY20MUpdf7PIHMfw6DjhxEIYkYCQfSlJJ/A75VDxgfH4j3LUKOpBKm3j5VCjKtievHuC2BlhjIHY+NDLOOnOD7Fa2VPYSWVLOoGoOPpHG+2PxHuBDM3LUPbaIgne7zo9Fkkq7cM2v1fluD3vsQRW3AaDm5IsDoywtD9azHD4kBwqPUU9SGUerJAs2lywJntLW7VDZT55PDZfYScbOawEKwbRaNTYlGbKYlDpuSaOUuN0Jrylc7Q2Aj27SQ/TBYhHQSt6AO+jymxHmRkxuuSpBIxP76TUjCllrxlG+NbGyTNJz2LNj15RKi+4oDseZFg9Hr1Cusnb0NqqjMjPucGY0HicN2trn04+KYgxSzteKM3C0CTfK7z5IbYD9txw+F37YYeQ/JuE8PMCz/NPcqgoCZ0RSMn4rkJ8SopoNPqDDAjPHepkGM4K5Zt2Zv3i7yWKDp/b2rwsqX34/Rex0/fbEunQJPMBPSjki67Ol1uqk03c/qjeoxKjbZCKDV/AKJYeEF6h8mINGQxTpk1SaRhOuD55hzbli0BovlCQN+1YWEk1TqcEsoIhVmqmlAcYRc+KMabXEqkX2RKpCdfxHpL1HtumqWtpsxOIsgIZC9sW6kEqrKlXbg8UgXsVB1fkVC5gnDgnqfUk+R3cKw1izKW0OIQQXuT9IF/lHjoUjcffxOFVCzugKQronECqF+kOMxy+b42Ju279o7Q3kgcYp0M7W5vvwkANmdb32zCedn6DwN1dJcSKvy06dIgCuWYrCLoWrR+0HF4lnfQgrVEfDj+UpFIe+/5hTJzkAwjtZHHkEl4k/lZ7KTfPTPd5eX9J56m2QMXpSVSc3pFkGXK1qSPvpVfv6Mywt17QcniVdDbEGo1Gn8uhUhJOicYaM4VNTrmhhBcZt0USG6pVL7Jesh1zMmycPPM8Pr8oyVZB5a1s+D+X95nqvRuhHOiEFUqGzgokC7eM31MCQEJqA2w21KrUzJJKDIQiwudtL3MVT/VW+DqKhkmR53DLJgqh/VVxS2cFknD8nhwq5XGeB8QzKeQB2pDa8aPnYahG2OwYS1+8mAC5sMh7jJEKaKvNGCjfD7N9WpL1Y0yn7WFgtDZ7TppOZwhbiI25KkmlHM+nw5utEkXPZa7FAy8mUHL1FvakGSOzRJpLptofNb8pM3S+xhTpRNfV8bTmLMZL2yLd4kXNvBAyLSFD8Da9AlSacw3TSLU/WiCY98qholg6L5DWixwMrktSKUMUOfci8xqpOWQ8BnbY0bZmN8x4TF1hMi3hJeSp8bI2an7GRQ2wL9L+OMD32vZHCOaP5bTSIj7l084LJEHG/koOlZKYtbV/yT0MRuWu7tbYVBtLlr6GXW1rdsO0x7QKqXz6sVYnZ13a2ry8qE2SQmc/y7niD+7rlhhhnZzCM5BPfViw2xLMuJ+d40dvag2wGvDUPoYYfVa19iYeYNXegJlQoL7fatAL39g+/agkc4Pnfh3P/QlJ+sJs2N2YYV5xFLL5a2vzSsVKXW9BZeM95JGnJOkCb5oBgvAgCV6QLldTEYjjI9iV7hQBAzOZicRNV/kkb9Kr1fdbjbJeOJ69q1mWXML8ld0qrBXrIOLRN1hBSbaNk2eenj6HLQiCmjlCa4HuYGgNovSXvDU5PPchQ1zwVO6HMS7sqSxg2ou85rim2g84Zdeps6UEJOCFyrn+KZd4Gzus1IUNh11F0WS2rBVUeKYX8f0vyHHrBONBEhhp7dHqCAgRw2rWm4y3ySez8DNpG1p3KI4skJn8iWv6Wg6VIlSbsivE6dficaDxJPk6OfkyJkPp6Cm+lLfCLP+vjCfp1VCb4DK/p20mQSBtDd/gMOnYgHP34lydbYNZL/LEsQ+cinD4lK6RV/ACfCeTp+zC3VF0WJJKlkoeXYmojzftjyQoD5LgZXjTAyo0JKOzsCRtPzWL4wwQR52DNy+T+Va9CVf5iK0EqDgugp72C1GFnu2wD7mjPqmexd4QnEDyAeNBX5Ok0n0Y5k1CNfJ+b0lSWYafHWxahVEQ5iEY/eBsn0vMcPgJnpONHnCcqD1ZMxBT7zriBZlJ8KAZBlTCIVNAfSxIHjITqlrWjjxNqOHV2KNh5xy7nyzYrUwRjUa/d1GJkAqtH2NpSxCkQFrD4MGadoozbGchFFi7hJEUuvfsJ8p8jBnyeWHj3sSCx/GkRYQyRPg8uLd5ajw+ZE8qaWzlKq5EVAXPuLPNXuGGGTxYbFNxCAeCp3q4xZ6AMhfb4xB7CsEAosgQtfUG8dzYZrx0rGssppOUotQPvczpiIcPhNiFO0ELenAkYUN6R2+fOHYFBl97LM/CMX4/wZ4VivHO1ibLwfP8IA08hKt4jpmhUY7HsfpGtveq2ocZGJmRgf/OYNRCKmaLMebikVNnvetQpg3VSmeYai9a63LopkZiEaA4Gojjr7GfEUcCceSkGhSIZAt9CE0cXiWoDDwoh4rgOjIjYezVPd09XWosaIEUQxHMtEd9BwXtUCo0OJnRQxdVToDB/5DPRERgFE/eYD9UMiAfXUBlgFMrKjWBfLhw5ZU0yLfvpz17n1APUukWsjagMeZbFMC7fa15tkE8RpTd8rnhUJ+NIMMW2PEk7hGtz8YTkG+/lEPvCF4g1YsMDK4NuOdF3hEv8oqk+8zMsA5lj2g89tYIh0qBCEYj4yzL0A8PUrwOJRgMvEcudLuL/V0QTR0QPwetHKZIdUbSzjnNYAaDg3LYWXohkBsnz7CTwoVJSgmAF6TzCYlXF+izECz0Hn1+NjCgN7HjtcVbrUjbrLIcJ89IOues7A2LSu5VnyMfvRBIvITxxqmzr6BA6hRlgYB3eY/dT9oiBzjoZXu6GQ5vrzIwnookx2o+wWuLN57D5rwii7xybdUzqgoNPXZpsT+Pk12crKRyuLOIh46y6/UKTL2qUWloJTjS4yL3w6v8FQ779n5ztT3i+RzA8/klBNWHcY5Lr9mWU2PWcNHPyqmqcFzoixAxa/x3jh+9Be/mcftJBVjhxvfYaQ8X3Y/YHNKlfFmqPVvKINsd5w4rWkCp32qK3oUcdk4cex8G4jFJKh0GBuo2vJBkjFUPK0DJor+SXgoM2Br+7y4E4mqe8FdN5DaIMLauFkBPBNJZHjHm0pFTZ3MLQcfyZmHRwnuyC6bjMPc90rNH+fV6gfv+haV0UeVgoBeQqqH3slNKXnEkFEfuxSh5/5wgaoc5Rk6SpXA9xo7DRbA7X0Qcib2G7oRcl05FOA3/LypdDI0XqgCg/Hq/qETvBBLG4Slk8g8lqXQcvMvGZ0PBb36EXba9aW9rCi5kW9rwt1GZgEAX7pARjUZ/lMNSxH9P79GeqADFdmP79COln3u35oemSF6g+J3b2rwk5xLsedmQXMe9BbmmZi97dSUvVQmFTEio1vcLLwDew3OSmkF+mxXPQh5GCZy03TRcFkpdc8VrdBJepef42ptvMZy/W8Rrn6bh5+2SvRmrDGQjilzkbyd5uE562fOPL8VMupgrYRAvh1V3he/CxskzS40b8xY2Trpcp3fmzLDI9zTqSXaRaDz+ArtxFXFkG7AcdhEK4mTriTiSXgokQYb/sxwqgRCH0Woy+izQ6/iNkaSXYq+hhhl+6hiyUNPzcoY8Sw6jKASe1XX+bZwvKsAhKfyeSiHSqn+vNE9vBbIuA6a0RqZjgTWM7sa9Fm7vg7dwEP84n+Gnro4Ncn/nvW2fL9G5Ds/qKzm04N6+J4eKkoveCqRFpygLGhhIO0bNAYXDavAWvpFKmLuei2z/LCjUReCQkY3t04/hdwp7a74Sh91tCL7M8C4O52BlS70/d8AxqTMfu6TXAikGTL3IcLA97+Q49iKvS7IcVQuzy56LNa9cAhGw33/k1NnDSHRaJKfDq9gfsB8o7dMhx6TfHiRRLzI0MiIyHWYrjC/5gyuuTzr/NIIVSY/aJaWSkvt64DnaUHTsQWKv45+VwvReIIsWPMV7ZrzINr0hyV+V5hdluyAEqzFxjOl02djztofSNl14aAW8zqvsnCPJypS9jpCAZ79y7mCfUA9SCZExPIa9LvUlvYc4TCfJKlTqRRnJQsht4ELgU2Q6UjVE6aE/eGm5eiwrq0El7zZ2HCaVTA3ZBVQggTUCxszMFqF0lvWdrc135JidT17E+y3cWSYaj7+Ww/Yw5go7z0iqFVA+6PWwhyunWasGJyGvG+nMJOHV8pWTKBrBi3Qmkqhw3S2H/WBS5hiBOL+xffrHko86hQpkDAqDHCmBEXfUKEElz88JUXQH119r55w8UHA4zRpEktPsVQG6FdVrd6KIC2njsRn+w5lvSnfQEZGtBL7DhnlR4XpSTgWJ5A0riNw44xTzDTd+3kVUIAV5idoWGQ7ZcZEorKjBX5NkV+A0aS/LsRdAJB+FIfxAksWJoufg3ceLXRejhNBZYSq/IggjEZVCwvjttaKrXHQJKVOxl/hoLIhdFsU0KpBKsEx7DqjBe796QAZjBrgH7yIbMIQ/wq7RyqSt7OQQOhjsW2KcK3t+LrAe7HD4gCTDwBjOyzoRxZNnnglJEKdRgUyB2vrfYbc3Ka/Saeg5iAdhjaVti2zYsFfgYhs9V/MiBrHss6yts048OQSEyYalIZj3cN8GvMedE8c+jkajH8qpToJnyLHEVhC5MV+GLIppVCBToFB9xX8kWTdJhpuzKa6YdAqx+Ryvlm2K+d+vg8HlEOcBDEyhzhn4/zdgfLwVx5gqIgmvqtgyZcYM5WglcYXIVo7G4yfsyfK8UEbM5W/WIY4PT850jsQewUt8KhbEPohiGi/CEL5xbmvzAkpZXcsVnafRZpuYpGeICyQM+gF6QfakUgW25b2C52lntYmNF49zUGmAfsHfiunESgcxJe+RFYH3YHyfluRCCn6/k+Wt5pDrnchv0q56X8FJw3ZlVCa+hN2bzKbUMyFchArkHBwXrDSFDV9XC5xXcD5NWQEeFY5hwU4TlcSqcF4y5iqutXOLz/I+YWQfKuox4W8Ygvxs3jMu+q4guNfYJkYPsgaBtJ49ROQvktzDmIEVFkYrouhZOes9ePbv49nbBaVVEOejArmAGkSyWUOrTGM9C+yZ5+/aOX70lzmNWaX3ht+5XjDMV+n32gb3SxE5JMkiLArVFsnziffIxM6JYx9BAB6xnygTON5bhrSpKK5G2yAbgDW1qpkRBf9n2Gn7ZFlQu6fhxMYQ0i6MRN5JxEt1KIEXM+Df9UkcCTy4Jxg6lWQRKITztlLYZ6/iaG0Pdkl7IiMpzGMqjvlQgVyAZCAnghSHMaoAw/61y2vqHfAWU0J3BxWOn+Kh1raSi4z1y23gISrx8ITOI+2KjeZTCMEHfH6x99hrsjPYPM7nEm/2cyU3KpAdw2byyTgkpSAwovezXUuM6J1CXiQ7bhUAv1GoByw8TVdrV3qBGOPGRNJFJbTLoIJ1EzsriuwAqILoBhXIJUiblX8eW83rAoYKjOij0unDgvfLOU7zvd8oej5PqJX/B9t5CHHu3scheY9pGhbJxHOU91Q6PNsF0oLIjaFtFUX3qEAugZ4GMxw8j6rzTzqlYcMTFDAs8cBxGtSi4TjbHjlPKGNhxCENc6Eex6F5j2k0r7oDeXdvWreUIMozVmpAe7HmwEGN1HnnCwfX1GfsHKeoAI2KDiWIYQ0ewvZnOb6nYGecNI0uhNwWzK+oaBYeBpKLqaExgZUNhvZtRU6FsHnUg8wBjOmr0hvMG1hYJMyiFATP7V6KoyQjGNj9cpwbCCKHMtAIr1cQR9KLcDmbK+xqIHUsXj213iffrxx2Dlz7Deysl8gN5XydZV3FsR1UIPMxqtQJoIQBXgWHEcQejFIMPLcf08uQDjvjjZNnuGJGG2HAzg/ryAubK7iHUB6GCJQZBpIL+17xfiXZFRJBRF58MhZEFcX2UYHMAY0oMysKNiftLU4UHZawj0s0PF4BvMvvYBfn/8ZXzDDD4Yd9NYAuh4HgOdrhHZLsBMh7t7BLVsSIxbCv+cFnVCALgJrpV3JYHMdeZCpEqJQA7/LQztbmr+iJ41lOxkU6Mtp5iEajz+Wwl1gx4KwuFcF7/FIO/WYSWo69xEO4/96siNFl1AspSIWptIjTkBq8UhY4naO1GvadiFCOd04cuw3x4nqHddKb0OoqHHSoSZ6lg+9yhhmufRqNUQmSsbb6vruJepAFgThWafdzug6ehAkVN9jllCq1NedHy51ghaOOjjttkPYSt996WAfsdx/1IEvgstZblnNbm5x0uDMrB3hOZjkseJEfQCgftZ+4xpjLNJySUgRGQ1Dh43CZ3NEZtuUxXCnJtjzIJCyvQhgeWpNth8qeJIz5XXKoOCAWR1JX+yAM+k0Vx/lAXNYhdpzoPPfQJYhpZoIF/G3twzvwG7exs14it9hDVHEME/UgS8IaL3ZV2//Yk832kJ0kV5MSVi/aWgIiWSoJmLdPHLsCA7xyMd+CaNtjDnaOH+UkDHmGajTT/sjQqYy11PfXL1QgS+KyQKJWyo4/X+NwoViqMNbOBTz75Nk6N7jGXIH3qCHxnKx6/py4gytVSNJ5kwMqSldRUVJR7DkqkBVAobyIQuk0ZJYumDEQ0IM1eDPKLBkPD57MVYfPXb3HgiwVyam23KoVGoZ28a6TDnj6rhSibZBVkJW5XQJx5CoQLOjJpuLYHHj+a9hsucBz/8aerI6KYwnkmSWdYDKkliorK44QRU78YdsS2f7J34s3+x+U3qMCWQFbkBwMdla8YX1na/MdePFjiORw49TZV/X9tstSkYwxxg7RyYkVRG4QxadUEJVlqEBWAEb0QB1epNIqcZngJOJjB+9XvceKxCJphsOPmYbn9x47VKH82SYipBf2XmXoFLtEFGNB1Hei5EHbIB3gvEOH0i7GXIR3QQMasVfrua3NyxDKZDmlvNCgb2yf/qEkFQewrE2LG4Ry/399Y+ufh6PdB+wJY67g5B0eqhAqVVAPUlGmiaIxw6wURzCIjW1RotHoMzlUHDFP8PCe7vyb7bcexGEcOtV5ThUnqAfpCPUigyMTGi3xfjW0qigdRz1IRZmHMezNOpmfVfaKovQLFUhHiLfAEI8SAlH07M7W5rts30JqWPD9ctIB9R4VpeOoQDokZUTnb8ZcNpPFUpWOwPYtbN9CKA/IqTzY1fMVRek22gbZAtKetRpjDkBQ72pgfUJlEcZcPHLqbDLnbo62SG17VJRAUIHsADkElZGAMcWUoqqC6pCpOVSXCSQ8zasbp84WHg6iKIqfqEAGSC4P1ZgBBPU7ENNkwmdlIdYrjCIOizTREpFU71FRAkIFsufkFdN9UcRZSbigbZ5liELjIoTPhlkpkjtbm7/B4bRAZlYDURSl+6hAKoXIKahDeFpcgeQJORMCq7xI9R4VJTBUIJXayCWmxJj9Iqg+e6czArhz4tjH0Wj0MA5VHBUlQFQgFW/IIagD9oTB3nCc4uRUo5zfOHX2J7iEZL1OXrOKo6KEiQqk0klWiKnt1csDiNkBeqjwTg8x7QD1FhWlJ6hAKr2gYLj3wDxBNWtr/3vjzbf+WpKKogSOCqSizGGeoKrnqCiKoiiKoiiKoiiKoiiKoiiKoiiKoihKOfbt+/9vEzMotTq+awAAAABJRU5ErkJggg==;rotation=-138;fontFamily=Open Sans;fontSource=https%3A%2F%2Ffonts.googleapis.com%2Fcss%3Ffamily%3DOpen%2BSans;" parent="fjqOqR68Di9mBrLPFcl0-8" vertex="1">
          <mxGeometry x="40" y="33" width="19" height="10.69" as="geometry" />
        </mxCell>
        <mxCell id="fjqOqR68Di9mBrLPFcl0-11" value="&lt;font&gt;Example Idx&lt;/font&gt;" style="rounded=1;whiteSpace=wrap;html=1;fillColor=#fff2cc;strokeColor=#d6b656;strokeWidth=1.5;fontFamily=Open Sans;fontSource=https%3A%2F%2Ffonts.googleapis.com%2Fcss%3Ffamily%3DOpen%2BSans;" parent="1" vertex="1">
          <mxGeometry x="3700" y="3710" width="100" height="30" as="geometry" />
        </mxCell>
        <mxCell id="fjqOqR68Di9mBrLPFcl0-15" value="&lt;div&gt;&lt;font&gt;Scheduling&lt;/font&gt;&lt;/div&gt;&lt;div&gt;&lt;font&gt;Plan&lt;/font&gt;&lt;/div&gt;" style="rounded=1;whiteSpace=wrap;html=1;fillColor=#d5e8d4;strokeColor=#82b366;strokeWidth=1.5;fontFamily=Open Sans;fontSource=https%3A%2F%2Ffonts.googleapis.com%2Fcss%3Ffamily%3DOpen%2BSans;verticalAlign=top;spacing=16;" parent="1" vertex="1">
          <mxGeometry x="4020" y="3650" width="100" height="190" as="geometry" />
        </mxCell>
        <mxCell id="fjqOqR68Di9mBrLPFcl0-18" style="edgeStyle=orthogonalEdgeStyle;rounded=0;orthogonalLoop=1;jettySize=auto;html=1;strokeColor=#d79b00;align=center;verticalAlign=middle;fontFamily=Open Sans;fontSize=11;fontColor=default;labelBackgroundColor=default;endArrow=block;endFill=1;exitX=1;exitY=0.5;exitDx=0;exitDy=0;fontSource=https%3A%2F%2Ffonts.googleapis.com%2Fcss%3Ffamily%3DOpen%2BSans;fillColor=#ffe6cc;strokeWidth=1.5;" parent="1" source="fjqOqR68Di9mBrLPFcl0-11" target="fjqOqR68Di9mBrLPFcl0-2" edge="1">
          <mxGeometry relative="1" as="geometry">
            <mxPoint x="3810" y="3675" as="sourcePoint" />
            <mxPoint x="4030" y="3675" as="targetPoint" />
            <Array as="points">
              <mxPoint x="3840" y="3725" />
              <mxPoint x="3840" y="3725" />
            </Array>
          </mxGeometry>
        </mxCell>
        <mxCell id="fjqOqR68Di9mBrLPFcl0-24" style="edgeStyle=orthogonalEdgeStyle;rounded=0;orthogonalLoop=1;jettySize=auto;html=1;strokeColor=#d79b00;align=center;verticalAlign=middle;fontFamily=Open Sans;fontSize=11;fontColor=default;labelBackgroundColor=default;endArrow=block;endFill=1;exitX=1;exitY=0.5;exitDx=0;exitDy=0;fontSource=https%3A%2F%2Ffonts.googleapis.com%2Fcss%3Ffamily%3DOpen%2BSans;fillColor=#ffe6cc;strokeWidth=1.5;entryX=0;entryY=0.75;entryDx=0;entryDy=0;" parent="1" source="fjqOqR68Di9mBrLPFcl0-3" target="fjqOqR68Di9mBrLPFcl0-5" edge="1">
          <mxGeometry relative="1" as="geometry">
            <mxPoint x="3810" y="3755" as="sourcePoint" />
            <mxPoint x="3890" y="3755" as="targetPoint" />
            <Array as="points">
              <mxPoint x="3800" y="3827" />
            </Array>
          </mxGeometry>
        </mxCell>
        <mxCell id="fjqOqR68Di9mBrLPFcl0-25" style="edgeStyle=orthogonalEdgeStyle;rounded=0;orthogonalLoop=1;jettySize=auto;html=1;strokeColor=#b85450;align=center;verticalAlign=middle;fontFamily=Open Sans;fontSize=11;fontColor=default;labelBackgroundColor=default;endArrow=block;endFill=1;fontSource=https%3A%2F%2Ffonts.googleapis.com%2Fcss%3Ffamily%3DOpen%2BSans;exitX=1;exitY=0.5;exitDx=0;exitDy=0;fillColor=#f8cecc;strokeWidth=1.5;" parent="1" source="fjqOqR68Di9mBrLPFcl0-2" target="fjqOqR68Di9mBrLPFcl0-15" edge="1">
          <mxGeometry relative="1" as="geometry">
            <mxPoint x="3810" y="3675" as="sourcePoint" />
            <mxPoint x="4030" y="3675" as="targetPoint" />
            <Array as="points">
              <mxPoint x="3980" y="3735" />
              <mxPoint x="3980" y="3735" />
            </Array>
          </mxGeometry>
        </mxCell>
        <mxCell id="fjqOqR68Di9mBrLPFcl0-26" style="edgeStyle=orthogonalEdgeStyle;rounded=0;orthogonalLoop=1;jettySize=auto;html=1;strokeColor=#b85450;align=center;verticalAlign=middle;fontFamily=Open Sans;fontSize=11;fontColor=default;labelBackgroundColor=default;endArrow=block;endFill=1;fontSource=https%3A%2F%2Ffonts.googleapis.com%2Fcss%3Ffamily%3DOpen%2BSans;exitX=1;exitY=0.5;exitDx=0;exitDy=0;fillColor=#f8cecc;strokeWidth=1.5;" parent="1" source="fjqOqR68Di9mBrLPFcl0-5" target="fjqOqR68Di9mBrLPFcl0-15" edge="1">
          <mxGeometry relative="1" as="geometry">
            <mxPoint x="3950" y="3755" as="sourcePoint" />
            <mxPoint x="4030" y="3685" as="targetPoint" />
            <Array as="points">
              <mxPoint x="3980" y="3814" />
              <mxPoint x="3980" y="3814" />
            </Array>
          </mxGeometry>
        </mxCell>
        <mxCell id="fjqOqR68Di9mBrLPFcl0-14" value="" style="endArrow=none;html=1;rounded=0;fontFamily=Open Sans;fontSource=https%3A%2F%2Ffonts.googleapis.com%2Fcss%3Ffamily%3DOpen%2BSans;fillColor=#f5f5f5;strokeColor=#666666;" parent="1" edge="1">
          <mxGeometry width="50" height="50" relative="1" as="geometry">
            <mxPoint x="3860" y="3640" as="sourcePoint" />
            <mxPoint x="3960" y="3640" as="targetPoint" />
          </mxGeometry>
        </mxCell>
        <mxCell id="fjqOqR68Di9mBrLPFcl0-30" value="command 2" style="rounded=1;whiteSpace=wrap;html=1;fillColor=#f5f5f5;verticalAlign=top;spacing=-1;fontFamily=Open Sans;fontSource=https%3A%2F%2Ffonts.googleapis.com%2Fcss%3Ffamily%3DOpen%2BSans;fontColor=#333333;strokeColor=#666666;" parent="1" vertex="1">
          <mxGeometry x="4180" y="3620" width="100" height="230" as="geometry" />
        </mxCell>
        <mxCell id="fjqOqR68Di9mBrLPFcl0-31" value="" style="endArrow=none;html=1;rounded=0;fontFamily=Open Sans;fontSource=https%3A%2F%2Ffonts.googleapis.com%2Fcss%3Ffamily%3DOpen%2BSans;fillColor=#f5f5f5;strokeColor=#666666;" parent="1" edge="1">
          <mxGeometry width="50" height="50" relative="1" as="geometry">
            <mxPoint x="4180" y="3640" as="sourcePoint" />
            <mxPoint x="4280" y="3640" as="targetPoint" />
          </mxGeometry>
        </mxCell>
        <mxCell id="fjqOqR68Di9mBrLPFcl0-32" value="simulate" style="rounded=1;whiteSpace=wrap;html=1;fillColor=#f8cecc;strokeColor=#b85450;strokeWidth=1.5;fontFamily=Open Sans;fontSource=https%3A%2F%2Ffonts.googleapis.com%2Fcss%3Ffamily%3DOpen%2BSans;verticalAlign=top;spacing=16;" parent="1" vertex="1">
          <mxGeometry x="4200" y="3650" width="60" height="190" as="geometry" />
        </mxCell>
        <mxCell id="fjqOqR68Di9mBrLPFcl0-34" style="edgeStyle=orthogonalEdgeStyle;rounded=0;orthogonalLoop=1;jettySize=auto;html=1;strokeColor=#82b366;align=center;verticalAlign=middle;fontFamily=Open Sans;fontSize=11;fontColor=default;labelBackgroundColor=default;endArrow=block;endFill=1;fontSource=https%3A%2F%2Ffonts.googleapis.com%2Fcss%3Ffamily%3DOpen%2BSans;fillColor=#d5e8d4;strokeWidth=1.5;" parent="1" source="fjqOqR68Di9mBrLPFcl0-15" target="fjqOqR68Di9mBrLPFcl0-32" edge="1">
          <mxGeometry relative="1" as="geometry">
            <mxPoint x="4120" y="3740" as="sourcePoint" />
            <mxPoint x="4360" y="3760" as="targetPoint" />
            <Array as="points" />
          </mxGeometry>
        </mxCell>
        <mxCell id="fjqOqR68Di9mBrLPFcl0-35" value="command 3" style="rounded=1;whiteSpace=wrap;html=1;fillColor=#f5f5f5;verticalAlign=top;spacing=-1;fontFamily=Open Sans;fontSource=https%3A%2F%2Ffonts.googleapis.com%2Fcss%3Ffamily%3DOpen%2BSans;fontColor=#333333;strokeColor=#666666;" parent="1" vertex="1">
          <mxGeometry x="4500" y="3612.25" width="100" height="230" as="geometry" />
        </mxCell>
        <mxCell id="fjqOqR68Di9mBrLPFcl0-36" value="" style="endArrow=none;html=1;rounded=0;fontFamily=Open Sans;fontSource=https%3A%2F%2Ffonts.googleapis.com%2Fcss%3Ffamily%3DOpen%2BSans;fillColor=#f5f5f5;strokeColor=#666666;" parent="1" edge="1">
          <mxGeometry width="50" height="50" relative="1" as="geometry">
            <mxPoint x="4500" y="3632.25" as="sourcePoint" />
            <mxPoint x="4600" y="3632.25" as="targetPoint" />
          </mxGeometry>
        </mxCell>
        <mxCell id="fjqOqR68Di9mBrLPFcl0-38" value="Schedule" style="rounded=1;whiteSpace=wrap;html=1;fillColor=#e1d5e7;strokeColor=#9673a6;strokeWidth=1.5;fontFamily=Open Sans;fontSource=https%3A%2F%2Ffonts.googleapis.com%2Fcss%3Ffamily%3DOpen%2BSans;verticalAlign=top;spacing=16;" parent="1" vertex="1">
          <mxGeometry x="4340" y="3650" width="100" height="190" as="geometry" />
        </mxCell>
        <mxCell id="fjqOqR68Di9mBrLPFcl0-46" value="&lt;p style=&quot;line-height: 180%;&quot;&gt;&lt;/p&gt;&lt;div style=&quot;color: rgb(204, 204, 204); font-family: Consolas, &amp;quot;Courier New&amp;quot;, monospace; font-weight: normal; font-size: 10px; line-height: 100%; white-space: pre;&quot;&gt;&lt;div style=&quot;font-size: 10px;&quot;&gt;&lt;font color=&quot;#666666&quot;&gt;&lt;span style=&quot;font-size: 10px;&quot;&gt;{&lt;/span&gt;&lt;/font&gt;&lt;/div&gt;&lt;div style=&quot;font-size: 10px; line-height: 100%;&quot;&gt;&lt;span style=&quot;color: rgb(204, 204, 204); font-size: 10px;&quot;&gt;&amp;nbsp; &lt;/span&gt;&lt;font color=&quot;#0066cc&quot;&gt;&lt;span style=&quot;font-size: 10px;&quot;&gt;timer&lt;/span&gt;&lt;/font&gt;&lt;font color=&quot;#666666&quot;&gt;&lt;span style=&quot;font-size: 10px;&quot;&gt;:&lt;/span&gt;&lt;span style=&quot;font-size: 10px;&quot;&gt; &lt;/span&gt;&lt;/font&gt;&lt;font color=&quot;#ff9933&quot;&gt;&lt;span style=&quot;font-size: 10px;&quot;&gt;number&lt;/span&gt;&lt;/font&gt;&lt;font color=&quot;#666666&quot;&gt;&lt;span style=&quot;font-size: 10px;&quot;&gt;;&lt;/span&gt;&lt;/font&gt;&lt;/div&gt;&lt;div style=&quot;font-size: 10px; line-height: 100%;&quot;&gt;&lt;span style=&quot;color: rgb(204, 204, 204); font-size: 10px;&quot;&gt;&amp;nbsp; &lt;/span&gt;&lt;font color=&quot;#0066cc&quot;&gt;&lt;span style=&quot;font-size: 10px;&quot;&gt;runfor&lt;/span&gt;&lt;/font&gt;&lt;font color=&quot;#666666&quot;&gt;&lt;span style=&quot;font-size: 10px;&quot;&gt;:&lt;/span&gt;&lt;span style=&quot;font-size: 10px;&quot;&gt; &lt;/span&gt;&lt;/font&gt;&lt;font color=&quot;#ff9933&quot;&gt;&lt;span style=&quot;font-size: 10px;&quot;&gt;number&lt;/span&gt;&lt;/font&gt;&lt;font color=&quot;#666666&quot;&gt;&lt;span style=&quot;font-size: 10px;&quot;&gt;;&lt;/span&gt;&lt;/font&gt;&lt;/div&gt;&lt;div style=&quot;font-size: 10px;&quot;&gt;&lt;span style=&quot;color: rgb(204, 204, 204); font-size: 10px;&quot;&gt;&amp;nbsp; &lt;/span&gt;&lt;font color=&quot;#0066cc&quot;&gt;&lt;span style=&quot;font-size: 10px;&quot;&gt;graphics&lt;/span&gt;&lt;/font&gt;&lt;font color=&quot;#666666&quot;&gt;&lt;span style=&quot;font-size: 10px;&quot;&gt;:&lt;/span&gt;&lt;span style=&quot;font-size: 10px;&quot;&gt; &lt;/span&gt;&lt;/font&gt;&lt;font color=&quot;#ff9933&quot;&gt;&lt;span style=&quot;font-size: 10px;&quot;&gt;any&lt;/span&gt;&lt;/font&gt;&lt;font color=&quot;#666666&quot;&gt;&lt;span style=&quot;font-size: 10px;&quot;&gt;;&lt;/span&gt;&lt;/font&gt;&lt;/div&gt;&lt;div style=&quot;font-size: 10px;&quot;&gt;&lt;span style=&quot;color: rgb(204, 204, 204); font-size: 10px;&quot;&gt;&amp;nbsp; &lt;/span&gt;&lt;font color=&quot;#0066cc&quot;&gt;&lt;span style=&quot;font-size: 10px;&quot;&gt;tasks&lt;/span&gt;&lt;/font&gt;&lt;font color=&quot;#666666&quot;&gt;&lt;span style=&quot;font-size: 10px;&quot;&gt;:&lt;/span&gt;&lt;span style=&quot;font-size: 10px;&quot;&gt; &lt;/span&gt;&lt;/font&gt;&lt;font color=&quot;#ff9933&quot;&gt;&lt;span style=&quot;font-size: 10px;&quot;&gt;T&lt;/span&gt;&lt;/font&gt;&lt;font color=&quot;#666666&quot;&gt;&lt;span style=&quot;font-size: 10px;&quot;&gt;[];&lt;/span&gt;&lt;/font&gt;&lt;/div&gt;&lt;div style=&quot;font-size: 10px;&quot;&gt;&lt;span style=&quot;color: rgb(204, 204, 204); font-size: 10px;&quot;&gt;&amp;nbsp; &lt;/span&gt;&lt;font color=&quot;#0066cc&quot;&gt;&lt;span style=&quot;font-size: 10px;&quot;&gt;class&lt;/span&gt;&lt;/font&gt;&lt;font color=&quot;#666666&quot;&gt;&lt;span style=&quot;font-size: 10px;&quot;&gt;:&lt;/span&gt;&lt;span style=&quot;font-size: 10px;&quot;&gt; &lt;/span&gt;&lt;span style=&quot;font-size: 10px;&quot;&gt;{&lt;/span&gt;&lt;/font&gt;&lt;/div&gt;&lt;div style=&quot;font-size: 10px;&quot;&gt;&lt;span style=&quot;color: rgb(204, 204, 204); font-size: 10px;&quot;&gt;&amp;nbsp; &amp;nbsp; &lt;/span&gt;&lt;font color=&quot;#0066cc&quot;&gt;&lt;span style=&quot;font-size: 10px;&quot;&gt;type&lt;/span&gt;&lt;/font&gt;&lt;font color=&quot;#666666&quot;&gt;&lt;span style=&quot;font-size: 10px;&quot;&gt;?:&lt;/span&gt;&lt;span style=&quot;font-size: 10px;&quot;&gt; &lt;/span&gt;&lt;/font&gt;&lt;font color=&quot;#ff9933&quot;&gt;&lt;span style=&quot;font-size: 10px;&quot;&gt;string&lt;/span&gt;&lt;/font&gt;&lt;/div&gt;&lt;div style=&quot;font-size: 10px;&quot;&gt;&lt;span style=&quot;color: rgb(204, 204, 204); font-size: 10px;&quot;&gt;&amp;nbsp; &lt;/span&gt;&lt;font color=&quot;#666666&quot;&gt;&lt;span style=&quot;font-size: 10px;&quot;&gt;},&lt;/span&gt;&lt;/font&gt;&lt;/div&gt;&lt;div style=&quot;font-size: 10px;&quot;&gt;&lt;span style=&quot;color: rgb(204, 204, 204); font-size: 10px;&quot;&gt;&amp;nbsp; &lt;/span&gt;&lt;font color=&quot;#0066cc&quot;&gt;&lt;span style=&quot;font-size: 10px;&quot;&gt;attributes&lt;/span&gt;&lt;/font&gt;&lt;font color=&quot;#666666&quot;&gt;&lt;span style=&quot;font-size: 10px;&quot;&gt;:&lt;/span&gt;&lt;span style=&quot;font-size: 10px;&quot;&gt; &lt;/span&gt;&lt;span style=&quot;font-size: 10px;&quot;&gt;{};&lt;/span&gt;&lt;/font&gt;&lt;/div&gt;&lt;div style=&quot;font-size: 10px;&quot;&gt;&lt;font color=&quot;#666666&quot;&gt;&lt;span style=&quot;font-size: 10px;&quot;&gt;}&lt;/span&gt;&lt;/font&gt;&lt;/div&gt;&lt;/div&gt;&lt;p&gt;&lt;/p&gt;" style="text;html=1;align=left;verticalAlign=middle;whiteSpace=wrap;rounded=0;fontSize=10;" parent="1" vertex="1">
          <mxGeometry x="4025" y="3688.32" width="90" height="141.68" as="geometry" />
        </mxCell>
        <mxCell id="fjqOqR68Di9mBrLPFcl0-48" value="events" style="text;html=1;align=center;verticalAlign=middle;whiteSpace=wrap;rounded=0;fontFamily=Open Sans;fontSource=https%3A%2F%2Ffonts.googleapis.com%2Fcss%3Ffamily%3DOpen%2BSans;horizontal=1;fontColor=#6C8EBF;strokeWidth=1.5;" parent="1" vertex="1">
          <mxGeometry x="4207.41" y="3700" width="45.18" height="20" as="geometry" />
        </mxCell>
        <mxCell id="fjqOqR68Di9mBrLPFcl0-49" value="&lt;font color=&quot;#6c8ebf&quot;&gt;tick&lt;/font&gt;" style="rounded=1;whiteSpace=wrap;html=1;fillColor=#dae8fc;strokeColor=#6c8ebf;strokeWidth=1.5;" parent="1" vertex="1">
          <mxGeometry x="4205" y="3800" width="50" height="16" as="geometry" />
        </mxCell>
        <mxCell id="fjqOqR68Di9mBrLPFcl0-50" style="rounded=0;orthogonalLoop=1;jettySize=auto;html=1;endArrow=block;endFill=1;fillColor=#dae8fc;strokeColor=#6c8ebf;strokeWidth=1.5;entryX=0.75;entryY=1;entryDx=0;entryDy=0;edgeStyle=orthogonalEdgeStyle;endSize=4;curved=0;" parent="1" source="fjqOqR68Di9mBrLPFcl0-49" target="fjqOqR68Di9mBrLPFcl0-53" edge="1">
          <mxGeometry relative="1" as="geometry">
            <Array as="points">
              <mxPoint x="4239" y="3790" />
              <mxPoint x="4239" y="3790" />
            </Array>
            <mxPoint x="4357" y="3938.54" as="sourcePoint" />
            <mxPoint x="4257" y="3868.54" as="targetPoint" />
          </mxGeometry>
        </mxCell>
        <mxCell id="fjqOqR68Di9mBrLPFcl0-51" style="rounded=0;orthogonalLoop=1;jettySize=auto;html=1;endArrow=block;endFill=1;fillColor=#dae8fc;strokeColor=#6c8ebf;strokeWidth=1.5;exitX=0.294;exitY=1.01;exitDx=0;exitDy=0;exitPerimeter=0;edgeStyle=orthogonalEdgeStyle;curved=0;endSize=4;" parent="1" source="fjqOqR68Di9mBrLPFcl0-53" target="fjqOqR68Di9mBrLPFcl0-49" edge="1">
          <mxGeometry relative="1" as="geometry">
            <Array as="points">
              <mxPoint x="4223" y="3781" />
            </Array>
            <mxPoint x="4255" y="3914.54" as="sourcePoint" />
            <mxPoint x="4267" y="3878.54" as="targetPoint" />
          </mxGeometry>
        </mxCell>
        <mxCell id="fjqOqR68Di9mBrLPFcl0-52" value="" style="group;strokeWidth=1.5;" parent="1" vertex="1" connectable="0">
          <mxGeometry x="4212" y="3720" width="36" height="60" as="geometry" />
        </mxCell>
        <mxCell id="fjqOqR68Di9mBrLPFcl0-53" value="" style="rounded=1;whiteSpace=wrap;html=1;fillColor=#dae8fc;strokeColor=#6c8ebf;strokeWidth=1.5;" parent="fjqOqR68Di9mBrLPFcl0-52" vertex="1">
          <mxGeometry width="36" height="60" as="geometry" />
        </mxCell>
        <mxCell id="fjqOqR68Di9mBrLPFcl0-54" value="" style="rounded=0;whiteSpace=wrap;html=1;fillColor=#dae8fc;strokeColor=#6c8ebf;" parent="fjqOqR68Di9mBrLPFcl0-52" vertex="1">
          <mxGeometry x="7" y="14.769999999999982" width="22" height="0.46" as="geometry" />
        </mxCell>
        <mxCell id="fjqOqR68Di9mBrLPFcl0-55" value="" style="rounded=0;whiteSpace=wrap;html=1;fillColor=#dae8fc;strokeColor=#6c8ebf;" parent="fjqOqR68Di9mBrLPFcl0-52" vertex="1">
          <mxGeometry x="7" y="22.769999999999982" width="22" height="0.46" as="geometry" />
        </mxCell>
        <mxCell id="fjqOqR68Di9mBrLPFcl0-56" value="" style="rounded=0;whiteSpace=wrap;html=1;fillColor=#dae8fc;strokeColor=#6c8ebf;" parent="fjqOqR68Di9mBrLPFcl0-52" vertex="1">
          <mxGeometry x="7" y="29.769999999999982" width="22" height="0.46" as="geometry" />
        </mxCell>
        <mxCell id="fjqOqR68Di9mBrLPFcl0-57" value="" style="rounded=0;whiteSpace=wrap;html=1;fillColor=#dae8fc;strokeColor=#6c8ebf;" parent="fjqOqR68Di9mBrLPFcl0-52" vertex="1">
          <mxGeometry x="7" y="37.76999999999998" width="22" height="0.46" as="geometry" />
        </mxCell>
        <mxCell id="fjqOqR68Di9mBrLPFcl0-58" value="" style="rounded=0;whiteSpace=wrap;html=1;fillColor=#dae8fc;strokeColor=#6c8ebf;" parent="fjqOqR68Di9mBrLPFcl0-52" vertex="1">
          <mxGeometry x="7" y="44.76999999999998" width="22" height="0.46" as="geometry" />
        </mxCell>
        <mxCell id="fjqOqR68Di9mBrLPFcl0-59" value="" style="triangle;whiteSpace=wrap;html=1;rotation=90;fillColor=#dae8fc;strokeColor=#6c8ebf;" parent="fjqOqR68Di9mBrLPFcl0-52" vertex="1">
          <mxGeometry x="15" y="2.0700000000001637" width="6" height="12" as="geometry" />
        </mxCell>
        <mxCell id="fjqOqR68Di9mBrLPFcl0-60" value="" style="triangle;whiteSpace=wrap;html=1;rotation=-90;fillColor=#dae8fc;strokeColor=#6c8ebf;" parent="fjqOqR68Di9mBrLPFcl0-52" vertex="1">
          <mxGeometry x="15" y="46.23000000000002" width="6" height="12" as="geometry" />
        </mxCell>
        <mxCell id="fjqOqR68Di9mBrLPFcl0-61" style="edgeStyle=orthogonalEdgeStyle;rounded=0;orthogonalLoop=1;jettySize=auto;html=1;strokeColor=#b85450;align=center;verticalAlign=middle;fontFamily=Open Sans;fontSize=11;fontColor=default;labelBackgroundColor=default;endArrow=block;endFill=1;fontSource=https%3A%2F%2Ffonts.googleapis.com%2Fcss%3Ffamily%3DOpen%2BSans;fillColor=#f8cecc;strokeWidth=1.5;" parent="1" source="fjqOqR68Di9mBrLPFcl0-32" target="fjqOqR68Di9mBrLPFcl0-38" edge="1">
          <mxGeometry relative="1" as="geometry">
            <mxPoint x="4350" y="3758.92" as="sourcePoint" />
            <mxPoint x="4430" y="3758.92" as="targetPoint" />
            <Array as="points">
              <mxPoint x="4320" y="3745" />
              <mxPoint x="4320" y="3745" />
            </Array>
          </mxGeometry>
        </mxCell>
        <mxCell id="fjqOqR68Di9mBrLPFcl0-66" value="&lt;div&gt;export&lt;/div&gt;&lt;div style=&quot;font-size: 5px;&quot;&gt;&lt;br&gt;&lt;/div&gt;&lt;div style=&quot;font-size: 5px;&quot;&gt;&lt;br&gt;&lt;/div&gt;&lt;div align=&quot;left&quot; style=&quot;font-size: 11px;&quot;&gt;&lt;font style=&quot;font-size: 11px;&quot;&gt;- complete&lt;br&gt;&lt;/font&gt;&lt;/div&gt;&lt;div align=&quot;left&quot; style=&quot;font-size: 11px;&quot;&gt;&lt;font style=&quot;font-size: 11px;&quot;&gt;- blank&lt;/font&gt;&lt;/div&gt;&lt;div align=&quot;left&quot; style=&quot;font-size: 11px;&quot;&gt;&lt;font style=&quot;font-size: 11px;&quot;&gt;- data&lt;/font&gt;&lt;br&gt;&lt;/div&gt;" style="rounded=1;whiteSpace=wrap;html=1;fillColor=#f8cecc;strokeColor=#b85450;strokeWidth=1.5;fontFamily=Open Sans;fontSource=https%3A%2F%2Ffonts.googleapis.com%2Fcss%3Ffamily%3DOpen%2BSans;" parent="1" vertex="1">
          <mxGeometry x="4520" y="3650" width="60" height="80" as="geometry" />
        </mxCell>
        <mxCell id="fjqOqR68Di9mBrLPFcl0-69" value="" style="endArrow=none;html=1;rounded=0;fontFamily=Open Sans;fontSource=https%3A%2F%2Ffonts.googleapis.com%2Fcss%3Ffamily%3DOpen%2BSans;fillColor=#f8cecc;strokeColor=#b85450;strokeWidth=1.5;" parent="1" edge="1">
          <mxGeometry width="50" height="50" relative="1" as="geometry">
            <mxPoint x="4520" y="3678" as="sourcePoint" />
            <mxPoint x="4580" y="3678" as="targetPoint" />
          </mxGeometry>
        </mxCell>
        <mxCell id="fjqOqR68Di9mBrLPFcl0-71" value="&lt;div&gt;table&lt;/div&gt;&lt;div style=&quot;font-size: 5px;&quot;&gt;&lt;br&gt;&lt;/div&gt;&lt;div style=&quot;font-size: 5px;&quot;&gt;&lt;br&gt;&lt;/div&gt;&lt;div align=&quot;left&quot; style=&quot;font-size: 11px;&quot;&gt;&lt;font style=&quot;font-size: 11px;&quot;&gt;- complete&lt;br&gt;&lt;/font&gt;&lt;/div&gt;&lt;div align=&quot;left&quot; style=&quot;font-size: 11px;&quot;&gt;&lt;font style=&quot;font-size: 11px;&quot;&gt;- blank&lt;/font&gt;&lt;/div&gt;&lt;div align=&quot;left&quot; style=&quot;font-size: 11px;&quot;&gt;&lt;br&gt;&lt;/div&gt;" style="rounded=1;whiteSpace=wrap;html=1;fillColor=#f8cecc;strokeColor=#b85450;strokeWidth=1.5;fontFamily=Open Sans;fontSource=https%3A%2F%2Ffonts.googleapis.com%2Fcss%3Ffamily%3DOpen%2BSans;" parent="1" vertex="1">
          <mxGeometry x="4520" y="3750" width="60" height="80" as="geometry" />
        </mxCell>
        <mxCell id="fjqOqR68Di9mBrLPFcl0-72" value="" style="endArrow=none;html=1;rounded=0;fontFamily=Open Sans;fontSource=https%3A%2F%2Ffonts.googleapis.com%2Fcss%3Ffamily%3DOpen%2BSans;fillColor=#f8cecc;strokeColor=#b85450;strokeWidth=1.5;" parent="1" edge="1">
          <mxGeometry width="50" height="50" relative="1" as="geometry">
            <mxPoint x="4520" y="3778" as="sourcePoint" />
            <mxPoint x="4580" y="3778" as="targetPoint" />
          </mxGeometry>
        </mxCell>
        <mxCell id="fjqOqR68Di9mBrLPFcl0-73" style="edgeStyle=orthogonalEdgeStyle;rounded=0;orthogonalLoop=1;jettySize=auto;html=1;strokeColor=#9673a6;align=center;verticalAlign=middle;fontFamily=Open Sans;fontSize=11;fontColor=default;labelBackgroundColor=default;endArrow=block;endFill=1;fontSource=https%3A%2F%2Ffonts.googleapis.com%2Fcss%3Ffamily%3DOpen%2BSans;fillColor=#e1d5e7;strokeWidth=1.5;" parent="1" source="fjqOqR68Di9mBrLPFcl0-38" target="fjqOqR68Di9mBrLPFcl0-66" edge="1">
          <mxGeometry relative="1" as="geometry">
            <mxPoint x="4270" y="3755" as="sourcePoint" />
            <mxPoint x="4350" y="3755" as="targetPoint" />
            <Array as="points">
              <mxPoint x="4470" y="3690" />
              <mxPoint x="4470" y="3690" />
            </Array>
          </mxGeometry>
        </mxCell>
        <mxCell id="fjqOqR68Di9mBrLPFcl0-74" style="edgeStyle=orthogonalEdgeStyle;rounded=0;orthogonalLoop=1;jettySize=auto;html=1;strokeColor=#9673a6;align=center;verticalAlign=middle;fontFamily=Open Sans;fontSize=11;fontColor=default;labelBackgroundColor=default;endArrow=block;endFill=1;fontSource=https%3A%2F%2Ffonts.googleapis.com%2Fcss%3Ffamily%3DOpen%2BSans;fillColor=#e1d5e7;strokeWidth=1.5;entryX=0;entryY=0.5;entryDx=0;entryDy=0;" parent="1" source="fjqOqR68Di9mBrLPFcl0-38" target="fjqOqR68Di9mBrLPFcl0-71" edge="1">
          <mxGeometry relative="1" as="geometry">
            <mxPoint x="4280" y="3765" as="sourcePoint" />
            <mxPoint x="4360" y="3765" as="targetPoint" />
            <Array as="points">
              <mxPoint x="4480" y="3790" />
              <mxPoint x="4480" y="3790" />
            </Array>
          </mxGeometry>
        </mxCell>
        <mxCell id="fjqOqR68Di9mBrLPFcl0-77" value="&lt;font face=&quot;Open Sans&quot;&gt;LaTeX/Tikz&lt;/font&gt;" style="rounded=1;whiteSpace=wrap;html=1;strokeWidth=1.5;fillColor=#e1d5e7;strokeColor=#9673a6;" parent="1" vertex="1">
          <mxGeometry x="4660" y="3650" width="100" height="30" as="geometry" />
        </mxCell>
        <mxCell id="fjqOqR68Di9mBrLPFcl0-78" value="&lt;font face=&quot;Open Sans&quot;&gt;Data&lt;/font&gt;" style="rounded=1;whiteSpace=wrap;html=1;strokeWidth=1.5;fillColor=#e1d5e7;strokeColor=#9673a6;" parent="1" vertex="1">
          <mxGeometry x="4660" y="3700" width="100.01" height="30" as="geometry" />
        </mxCell>
        <mxCell id="fjqOqR68Di9mBrLPFcl0-80" style="edgeStyle=orthogonalEdgeStyle;rounded=0;orthogonalLoop=1;jettySize=auto;html=1;strokeColor=#b85450;align=center;verticalAlign=middle;fontFamily=Open Sans;fontSize=11;fontColor=default;labelBackgroundColor=default;endArrow=block;endFill=1;fontSource=https%3A%2F%2Ffonts.googleapis.com%2Fcss%3Ffamily%3DOpen%2BSans;fillColor=#f8cecc;strokeWidth=1.5;entryX=0;entryY=0.5;entryDx=0;entryDy=0;" parent="1" source="fjqOqR68Di9mBrLPFcl0-66" target="fjqOqR68Di9mBrLPFcl0-77" edge="1">
          <mxGeometry relative="1" as="geometry">
            <mxPoint x="4610" y="3679.69" as="sourcePoint" />
            <mxPoint x="4690" y="3679.69" as="targetPoint" />
            <Array as="points">
              <mxPoint x="4600" y="3665" />
              <mxPoint x="4600" y="3665" />
            </Array>
          </mxGeometry>
        </mxCell>
        <mxCell id="fjqOqR68Di9mBrLPFcl0-81" style="edgeStyle=orthogonalEdgeStyle;rounded=0;orthogonalLoop=1;jettySize=auto;html=1;strokeColor=#b85450;align=center;verticalAlign=middle;fontFamily=Open Sans;fontSize=11;fontColor=default;labelBackgroundColor=default;endArrow=block;endFill=1;fontSource=https%3A%2F%2Ffonts.googleapis.com%2Fcss%3Ffamily%3DOpen%2BSans;fillColor=#f8cecc;strokeWidth=1.5;entryX=0;entryY=0.5;entryDx=0;entryDy=0;" parent="1" source="fjqOqR68Di9mBrLPFcl0-66" target="fjqOqR68Di9mBrLPFcl0-78" edge="1">
          <mxGeometry relative="1" as="geometry">
            <mxPoint x="4280" y="3765" as="sourcePoint" />
            <mxPoint x="4360" y="3765" as="targetPoint" />
            <Array as="points">
              <mxPoint x="4610" y="3715" />
              <mxPoint x="4610" y="3715" />
            </Array>
          </mxGeometry>
        </mxCell>
        <mxCell id="fjqOqR68Di9mBrLPFcl0-82" value="&lt;font face=&quot;Open Sans&quot;&gt;Table&lt;/font&gt;" style="rounded=1;whiteSpace=wrap;html=1;strokeWidth=1.5;fillColor=#e1d5e7;strokeColor=#9673a6;" parent="1" vertex="1">
          <mxGeometry x="4660" y="3775" width="100.01" height="30" as="geometry" />
        </mxCell>
        <mxCell id="fjqOqR68Di9mBrLPFcl0-84" style="edgeStyle=orthogonalEdgeStyle;rounded=0;orthogonalLoop=1;jettySize=auto;html=1;strokeColor=#b85450;align=center;verticalAlign=middle;fontFamily=Open Sans;fontSize=11;fontColor=default;labelBackgroundColor=default;endArrow=block;endFill=1;fontSource=https%3A%2F%2Ffonts.googleapis.com%2Fcss%3Ffamily%3DOpen%2BSans;fillColor=#f8cecc;strokeWidth=1.5;entryX=0;entryY=0.5;entryDx=0;entryDy=0;" parent="1" source="fjqOqR68Di9mBrLPFcl0-71" target="fjqOqR68Di9mBrLPFcl0-82" edge="1">
          <mxGeometry relative="1" as="geometry">
            <mxPoint x="4270" y="3755" as="sourcePoint" />
            <mxPoint x="4350" y="3755" as="targetPoint" />
            <Array as="points">
              <mxPoint x="4620" y="3790" />
              <mxPoint x="4620" y="3790" />
            </Array>
          </mxGeometry>
        </mxCell>
        <mxCell id="fjqOqR68Di9mBrLPFcl0-85" value="&lt;div style=&quot;color: rgb(204, 204, 204); font-family: Consolas, &amp;quot;Courier New&amp;quot;, monospace; font-weight: normal; line-height: 100%; white-space: pre;&quot;&gt;&lt;div style=&quot;line-height: 100%;&quot;&gt;&lt;font color=&quot;#666666&quot; style=&quot;font-size: 10px;&quot;&gt;{&lt;/font&gt;&lt;/div&gt;&lt;div style=&quot;line-height: 100%;&quot;&gt;&lt;font style=&quot;font-size: 10px;&quot;&gt;&lt;span style=&quot;color: #cccccc;&quot;&gt;&amp;nbsp; &lt;/span&gt;&lt;font color=&quot;#0066cc&quot;&gt;scheddata&lt;/font&gt;&lt;font color=&quot;#666666&quot;&gt;: {&lt;/font&gt;&lt;/font&gt;&lt;/div&gt;&lt;div style=&quot;line-height: 100%;&quot;&gt;&lt;font style=&quot;font-size: 10px;&quot;&gt;&lt;span style=&quot;color: #cccccc;&quot;&gt;&amp;nbsp; &amp;nbsp; &lt;/span&gt;&lt;font color=&quot;#0066cc&quot;&gt;legendAbove&lt;/font&gt;&lt;font color=&quot;#666666&quot;&gt;:&lt;/font&gt;&lt;/font&gt;&lt;/div&gt;&lt;div style=&quot;line-height: 100%;&quot;&gt;&lt;font style=&quot;font-size: 10px;&quot;&gt;&lt;font color=&quot;#ff9933&quot;&gt;      string&lt;/font&gt;&lt;font color=&quot;#666666&quot;&gt;;&lt;/font&gt;&lt;/font&gt;&lt;/div&gt;&lt;div style=&quot;line-height: 100%;&quot;&gt;&lt;font style=&quot;font-size: 10px;&quot;&gt;&lt;span style=&quot;color: #cccccc;&quot;&gt;&amp;nbsp; &amp;nbsp; &lt;/span&gt;&lt;font color=&quot;#0066cc&quot;&gt;blankData&lt;/font&gt;&lt;font color=&quot;#666666&quot;&gt;:&lt;/font&gt;&lt;/font&gt;&lt;/div&gt;&lt;div style=&quot;line-height: 100%;&quot;&gt;&lt;font style=&quot;font-size: 10px;&quot;&gt;&lt;font color=&quot;#ff9933&quot;&gt;      string&lt;/font&gt;&lt;font color=&quot;#666666&quot;&gt;;&lt;/font&gt;&lt;/font&gt;&lt;/div&gt;&lt;div style=&quot;line-height: 100%;&quot;&gt;&lt;font style=&quot;font-size: 10px;&quot;&gt;&lt;span style=&quot;color: #cccccc;&quot;&gt;&amp;nbsp; &lt;/span&gt;&lt;font color=&quot;#666666&quot;&gt;};&lt;/font&gt;&lt;/font&gt;&lt;/div&gt;&lt;div style=&quot;line-height: 100%;&quot;&gt;&lt;font style=&quot;font-size: 10px;&quot;&gt;&lt;span style=&quot;color: #cccccc;&quot;&gt;&amp;nbsp; &lt;/span&gt;&lt;font color=&quot;#0066cc&quot;&gt;plan&lt;/font&gt;&lt;font color=&quot;#666666&quot;&gt;:&lt;/font&gt;&lt;/font&gt;&lt;/div&gt;&lt;div style=&quot;line-height: 100%;&quot;&gt;&lt;font style=&quot;font-size: 10px;&quot;&gt;&lt;font color=&quot;#ff9933&quot;&gt;    Plan&lt;/font&gt;&lt;font color=&quot;#666666&quot;&gt;&amp;lt;_, _&amp;gt;;&lt;/font&gt;&lt;/font&gt;&lt;/div&gt;&lt;div style=&quot;line-height: 100%;&quot;&gt;&lt;font style=&quot;font-size: 10px;&quot;&gt;&lt;span style=&quot;color: #cccccc;&quot;&gt;&amp;nbsp; &lt;/span&gt;&lt;font color=&quot;#0066cc&quot;&gt;timeline&lt;/font&gt;&lt;font color=&quot;#666666&quot;&gt;:&lt;/font&gt;&lt;/font&gt;&lt;/div&gt;&lt;div style=&quot;line-height: 100%;&quot;&gt;&lt;font style=&quot;font-size: 10px;&quot;&gt;&lt;font color=&quot;#ff9933&quot;&gt;    TaskSlot&lt;/font&gt;&lt;font color=&quot;#666666&quot;&gt;[];&lt;/font&gt;&lt;/font&gt;&lt;/div&gt;&lt;div style=&quot;line-height: 100%;&quot;&gt;&lt;font color=&quot;#666666&quot; style=&quot;font-size: 10px;&quot;&gt;};&lt;/font&gt;&lt;/div&gt;&lt;/div&gt;" style="text;html=1;align=left;verticalAlign=middle;whiteSpace=wrap;rounded=0;fontSize=10;" parent="1" vertex="1">
          <mxGeometry x="4345" y="3688.32" width="90" height="141.68" as="geometry" />
        </mxCell>
        <mxCell id="fjqOqR68Di9mBrLPFcl0-87" value="Scheduler" style="rounded=1;whiteSpace=wrap;html=1;fillColor=#fff2cc;strokeColor=#d6b656;strokeWidth=1.5;fontFamily=Open Sans;fontSource=https%3A%2F%2Ffonts.googleapis.com%2Fcss%3Ffamily%3DOpen%2BSans;" parent="1" vertex="1">
          <mxGeometry x="3700" y="3760" width="100" height="30" as="geometry" />
        </mxCell>
        <mxCell id="fjqOqR68Di9mBrLPFcl0-88" style="edgeStyle=orthogonalEdgeStyle;rounded=1;orthogonalLoop=1;jettySize=auto;html=1;strokeColor=#d79b00;align=center;verticalAlign=middle;fontFamily=Open Sans;fontSize=11;fontColor=default;labelBackgroundColor=default;endArrow=block;endFill=1;fontSource=https%3A%2F%2Ffonts.googleapis.com%2Fcss%3Ffamily%3DOpen%2BSans;fillColor=#ffe6cc;strokeWidth=1.5;entryX=0;entryY=0.25;entryDx=0;entryDy=0;curved=0;" parent="1" source="fjqOqR68Di9mBrLPFcl0-87" target="fjqOqR68Di9mBrLPFcl0-5" edge="1">
          <mxGeometry relative="1" as="geometry">
            <mxPoint x="3810" y="3779.88" as="sourcePoint" />
            <mxPoint x="3890" y="3779.88" as="targetPoint" />
            <Array as="points" />
          </mxGeometry>
        </mxCell>
        <mxCell id="fjqOqR68Di9mBrLPFcl0-90" style="edgeStyle=orthogonalEdgeStyle;rounded=1;orthogonalLoop=1;jettySize=auto;html=1;strokeColor=#d79b00;align=center;verticalAlign=middle;fontFamily=Open Sans;fontSize=11;fontColor=default;labelBackgroundColor=default;endArrow=block;endFill=1;fontSource=https%3A%2F%2Ffonts.googleapis.com%2Fcss%3Ffamily%3DOpen%2BSans;fillColor=#ffe6cc;strokeWidth=1.5;entryX=0;entryY=0.75;entryDx=0;entryDy=0;curved=0;" parent="1" source="fjqOqR68Di9mBrLPFcl0-87" target="fjqOqR68Di9mBrLPFcl0-2" edge="1">
          <mxGeometry relative="1" as="geometry">
            <mxPoint x="3810" y="3790" as="sourcePoint" />
            <mxPoint x="3890" y="3812" as="targetPoint" />
            <Array as="points" />
          </mxGeometry>
        </mxCell>
        <mxCell id="fjqOqR68Di9mBrLPFcl0-91" style="rounded=0;orthogonalLoop=1;jettySize=auto;html=1;endArrow=block;endFill=1;strokeWidth=1.5;entryX=0.5;entryY=1;entryDx=0;entryDy=0;exitX=0.5;exitY=0;exitDx=0;exitDy=0;" parent="1" source="fjqOqR68Di9mBrLPFcl0-148" target="fjqOqR68Di9mBrLPFcl0-93" edge="1">
          <mxGeometry relative="1" as="geometry">
            <mxPoint x="2680" y="4005" as="sourcePoint" />
            <mxPoint x="2677" y="3945" as="targetPoint" />
          </mxGeometry>
        </mxCell>
        <mxCell id="fjqOqR68Di9mBrLPFcl0-93" value="task start" style="rounded=1;whiteSpace=wrap;html=1;strokeWidth=1.5;fillColor=#f5f5f5;strokeColor=#666666;fontColor=#333333;" parent="1" vertex="1">
          <mxGeometry x="2646.995" y="3906.5" width="65.625" height="30" as="geometry" />
        </mxCell>
        <mxCell id="fjqOqR68Di9mBrLPFcl0-96" value="&lt;font face=&quot;Open Sans&quot;&gt;SchedClass&lt;/font&gt;" style="rounded=1;whiteSpace=wrap;html=1;strokeWidth=1.5;fillColor=#fff2cc;strokeColor=#d6b656;horizontal=1;verticalAlign=top;arcSize=8;" parent="1" vertex="1">
          <mxGeometry x="2740.99" y="3825" width="200" height="120" as="geometry" />
        </mxCell>
        <mxCell id="fjqOqR68Di9mBrLPFcl0-95" value="preempt tick" style="rounded=1;whiteSpace=wrap;html=1;strokeWidth=1.5;fillColor=#f5f5f5;strokeColor=#666666;fontColor=#333333;" parent="1" vertex="1">
          <mxGeometry x="2746.59375" y="3859.638144329897" width="82.03125" height="37.11340206185567" as="geometry" />
        </mxCell>
        <mxCell id="fjqOqR68Di9mBrLPFcl0-99" value="order" style="rounded=1;whiteSpace=wrap;html=1;strokeWidth=1.5;fillColor=#f5f5f5;strokeColor=#666666;fontColor=#333333;" parent="1" vertex="1">
          <mxGeometry x="2853.98875" y="3902.9481443298973" width="82.03125" height="37.11340206185567" as="geometry" />
        </mxCell>
        <mxCell id="fjqOqR68Di9mBrLPFcl0-100" value="preempt wakeup/arrival" style="rounded=1;whiteSpace=wrap;html=1;strokeWidth=1.5;fillColor=#f5f5f5;strokeColor=#666666;fontColor=#333333;" parent="1" vertex="1">
          <mxGeometry x="2746.59875" y="3902.939175257732" width="82.03125" height="37.11340206185567" as="geometry" />
        </mxCell>
        <mxCell id="fjqOqR68Di9mBrLPFcl0-101" value="metric" style="rounded=1;whiteSpace=wrap;html=1;strokeWidth=1.5;fillColor=#f5f5f5;strokeColor=#666666;fontColor=#333333;" parent="1" vertex="1">
          <mxGeometry x="2853.98875" y="3859.639175257732" width="82.03125" height="37.11340206185567" as="geometry" />
        </mxCell>
        <mxCell id="fjqOqR68Di9mBrLPFcl0-94" style="rounded=0;orthogonalLoop=1;jettySize=auto;html=1;endArrow=block;endFill=1;strokeWidth=1.5;entryX=0;entryY=0.5;entryDx=0;entryDy=0;exitX=1;exitY=0.5;exitDx=0;exitDy=0;" parent="1" source="fjqOqR68Di9mBrLPFcl0-93" target="fjqOqR68Di9mBrLPFcl0-100" edge="1">
          <mxGeometry relative="1" as="geometry">
            <mxPoint x="2727" y="4059" as="sourcePoint" />
            <mxPoint x="2727" y="3945" as="targetPoint" />
          </mxGeometry>
        </mxCell>
        <mxCell id="fjqOqR68Di9mBrLPFcl0-103" style="edgeStyle=orthogonalEdgeStyle;rounded=0;orthogonalLoop=1;jettySize=auto;html=1;endArrow=block;endFill=1;strokeWidth=1.5;entryX=0;entryY=0.5;entryDx=0;entryDy=0;exitX=1;exitY=0.5;exitDx=0;exitDy=0;curved=0;startArrow=block;startFill=1;endSize=4;startSize=4;" parent="1" source="fjqOqR68Di9mBrLPFcl0-100" target="fjqOqR68Di9mBrLPFcl0-101" edge="1">
          <mxGeometry relative="1" as="geometry">
            <mxPoint x="2696.99" y="3932" as="sourcePoint" />
            <mxPoint x="2756.99" y="3931" as="targetPoint" />
            <Array as="points">
              <mxPoint x="2840.99" y="3922" />
              <mxPoint x="2840.99" y="3878" />
            </Array>
          </mxGeometry>
        </mxCell>
        <mxCell id="fjqOqR68Di9mBrLPFcl0-105" style="rounded=0;orthogonalLoop=1;jettySize=auto;html=1;endArrow=block;endFill=1;strokeWidth=1.5;entryX=0;entryY=0.5;entryDx=0;entryDy=0;endSize=4;startSize=4;exitX=1;exitY=0.5;exitDx=0;exitDy=0;sourcePerimeterSpacing=0;targetPerimeterSpacing=0;edgeStyle=orthogonalEdgeStyle;" parent="1" target="fjqOqR68Di9mBrLPFcl0-99" edge="1">
          <mxGeometry relative="1" as="geometry">
            <mxPoint x="2833.7400000000002" y="3921.47587628866" as="sourcePoint" />
            <mxPoint x="2859.09875" y="3921.484845360825" as="targetPoint" />
          </mxGeometry>
        </mxCell>
        <mxCell id="fjqOqR68Di9mBrLPFcl0-106" value="continue" style="rounded=1;whiteSpace=wrap;html=1;strokeWidth=1.5;fillColor=#d5e8d4;strokeColor=#82b366;" parent="1" vertex="1">
          <mxGeometry x="2754.805" y="3969" width="65.625" height="30" as="geometry" />
        </mxCell>
        <mxCell id="fjqOqR68Di9mBrLPFcl0-108" style="rounded=0;orthogonalLoop=1;jettySize=auto;html=1;endArrow=block;endFill=1;strokeWidth=1.5;exitX=0.5;exitY=1;exitDx=0;exitDy=0;entryX=0.5;entryY=0;entryDx=0;entryDy=0;" parent="1" source="fjqOqR68Di9mBrLPFcl0-100" target="fjqOqR68Di9mBrLPFcl0-106" edge="1">
          <mxGeometry relative="1" as="geometry">
            <mxPoint x="2686.6099999999997" y="3976" as="sourcePoint" />
            <mxPoint x="2760.99" y="4005" as="targetPoint" />
          </mxGeometry>
        </mxCell>
        <mxCell id="fjqOqR68Di9mBrLPFcl0-122" value="" style="rounded=0;whiteSpace=wrap;html=1;strokeColor=#6c8ebf;fillColor=#dae8fc;" parent="1" vertex="1">
          <mxGeometry x="2760" y="4030" width="80" height="60" as="geometry" />
        </mxCell>
        <mxCell id="fjqOqR68Di9mBrLPFcl0-123" value="" style="rounded=0;whiteSpace=wrap;html=1;strokeColor=#82b366;fillColor=#d5e8d4;" parent="1" vertex="1">
          <mxGeometry x="2600" y="4100" width="160" height="60" as="geometry" />
        </mxCell>
        <mxCell id="fjqOqR68Di9mBrLPFcl0-126" value="" style="endArrow=none;html=1;rounded=0;strokeWidth=4;strokeColor=#6C8EBF;endFill=0;startArrow=block;startFill=1;" parent="1" edge="1">
          <mxGeometry width="50" height="50" relative="1" as="geometry">
            <mxPoint x="2680" y="4090" as="sourcePoint" />
            <mxPoint x="2680" y="4020" as="targetPoint" />
          </mxGeometry>
        </mxCell>
        <mxCell id="fjqOqR68Di9mBrLPFcl0-129" value="T2" style="text;html=1;align=center;verticalAlign=middle;whiteSpace=wrap;rounded=0;fontSize=15;fontFamily=Open Sans;fontSource=https%3A%2F%2Ffonts.googleapis.com%2Fcss%3Ffamily%3DOpen%2BSans;" parent="1" vertex="1">
          <mxGeometry x="2569" y="4060" width="30" height="30" as="geometry" />
        </mxCell>
        <mxCell id="fjqOqR68Di9mBrLPFcl0-133" value="4" style="text;html=1;align=center;verticalAlign=middle;whiteSpace=wrap;rounded=0;fontSize=15;fontFamily=Open Sans;fontSource=https%3A%2F%2Ffonts.googleapis.com%2Fcss%3Ffamily%3DOpen%2BSans;" parent="1" vertex="1">
          <mxGeometry x="2746.59" y="4160" width="30" height="30" as="geometry" />
        </mxCell>
        <mxCell id="fjqOqR68Di9mBrLPFcl0-136" value="" style="endArrow=block;html=1;rounded=0;endFill=1;" parent="1" edge="1">
          <mxGeometry width="50" height="50" relative="1" as="geometry">
            <mxPoint x="2600" y="4090" as="sourcePoint" />
            <mxPoint x="2880" y="4090" as="targetPoint" />
          </mxGeometry>
        </mxCell>
        <mxCell id="fjqOqR68Di9mBrLPFcl0-142" value="" style="endArrow=block;html=1;rounded=0;strokeWidth=4;strokeColor=#82B366;endFill=1;startArrow=none;startFill=0;" parent="1" edge="1">
          <mxGeometry width="50" height="50" relative="1" as="geometry">
            <mxPoint x="2760" y="4160" as="sourcePoint" />
            <mxPoint x="2760" y="4090" as="targetPoint" />
          </mxGeometry>
        </mxCell>
        <mxCell id="fjqOqR68Di9mBrLPFcl0-143" value="" style="endArrow=block;html=1;rounded=0;strokeWidth=4;strokeColor=#6C8EBF;endFill=1;startArrow=none;startFill=0;" parent="1" edge="1">
          <mxGeometry width="50" height="50" relative="1" as="geometry">
            <mxPoint x="2840" y="4090" as="sourcePoint" />
            <mxPoint x="2840" y="4020" as="targetPoint" />
          </mxGeometry>
        </mxCell>
        <mxCell id="fjqOqR68Di9mBrLPFcl0-137" value="" style="endArrow=block;html=1;rounded=0;endFill=1;" parent="1" edge="1">
          <mxGeometry width="50" height="50" relative="1" as="geometry">
            <mxPoint x="2600" y="4160" as="sourcePoint" />
            <mxPoint x="2880" y="4160" as="targetPoint" />
          </mxGeometry>
        </mxCell>
        <mxCell id="fjqOqR68Di9mBrLPFcl0-139" value="" style="endArrow=block;html=1;rounded=0;endFill=1;exitX=0;exitY=1;exitDx=0;exitDy=0;" parent="1" source="fjqOqR68Di9mBrLPFcl0-109" edge="1">
          <mxGeometry width="50" height="50" relative="1" as="geometry">
            <mxPoint x="2600" y="4300" as="sourcePoint" />
            <mxPoint x="2600" y="4000" as="targetPoint" />
          </mxGeometry>
        </mxCell>
        <mxCell id="fjqOqR68Di9mBrLPFcl0-141" value="" style="endArrow=none;html=1;rounded=0;strokeWidth=4;strokeColor=#82B366;endFill=0;startArrow=block;startFill=1;" parent="1" edge="1">
          <mxGeometry width="50" height="50" relative="1" as="geometry">
            <mxPoint x="2600" y="4160" as="sourcePoint" />
            <mxPoint x="2600" y="4090" as="targetPoint" />
          </mxGeometry>
        </mxCell>
        <mxCell id="fjqOqR68Di9mBrLPFcl0-148" value="" style="rounded=1;whiteSpace=wrap;html=1;fillColor=none;strokeColor=#b85450;" parent="1" vertex="1">
          <mxGeometry x="2665" y="4017" width="30" height="75" as="geometry" />
        </mxCell>
        <mxCell id="fjqOqR68Di9mBrLPFcl0-130" value="T1" style="text;html=1;align=center;verticalAlign=middle;whiteSpace=wrap;rounded=0;fontSize=15;fontFamily=Open Sans;fontSource=https%3A%2F%2Ffonts.googleapis.com%2Fcss%3Ffamily%3DOpen%2BSans;" parent="1" vertex="1">
          <mxGeometry x="2569" y="4130" width="30" height="30" as="geometry" />
        </mxCell>
        <mxCell id="KVN5aAIuWyYufAwevNIm-1" value="" style="rounded=0;whiteSpace=wrap;html=1;fillColor=none;strokeColor=#CCCCCC;" vertex="1" parent="1">
          <mxGeometry x="3221" y="4020" width="40" height="140" as="geometry" />
        </mxCell>
        <mxCell id="KVN5aAIuWyYufAwevNIm-2" value="" style="rounded=0;whiteSpace=wrap;html=1;fillColor=none;strokeColor=#CCCCCC;" vertex="1" parent="1">
          <mxGeometry x="3261" y="4020" width="40" height="140" as="geometry" />
        </mxCell>
        <mxCell id="KVN5aAIuWyYufAwevNIm-3" value="" style="rounded=0;whiteSpace=wrap;html=1;fillColor=none;strokeColor=#CCCCCC;" vertex="1" parent="1">
          <mxGeometry x="3301" y="4020" width="40" height="140" as="geometry" />
        </mxCell>
        <mxCell id="KVN5aAIuWyYufAwevNIm-4" value="" style="rounded=0;whiteSpace=wrap;html=1;fillColor=none;strokeColor=#CCCCCC;" vertex="1" parent="1">
          <mxGeometry x="3341" y="4020" width="40" height="140" as="geometry" />
        </mxCell>
        <mxCell id="KVN5aAIuWyYufAwevNIm-7" style="rounded=0;orthogonalLoop=1;jettySize=auto;html=1;endArrow=block;endFill=1;strokeWidth=1.5;entryX=0.5;entryY=1;entryDx=0;entryDy=0;exitX=0.5;exitY=0;exitDx=0;exitDy=0;" edge="1" parent="1" source="KVN5aAIuWyYufAwevNIm-30" target="KVN5aAIuWyYufAwevNIm-8">
          <mxGeometry relative="1" as="geometry">
            <mxPoint x="3221.01" y="4005" as="sourcePoint" />
            <mxPoint x="3218.01" y="3945" as="targetPoint" />
          </mxGeometry>
        </mxCell>
        <mxCell id="KVN5aAIuWyYufAwevNIm-8" value="task tick" style="rounded=1;whiteSpace=wrap;html=1;strokeWidth=1.5;fillColor=#f5f5f5;strokeColor=#666666;fontColor=#333333;" vertex="1" parent="1">
          <mxGeometry x="3188.005" y="3863.19" width="65.625" height="30" as="geometry" />
        </mxCell>
        <mxCell id="KVN5aAIuWyYufAwevNIm-9" value="&lt;font face=&quot;Open Sans&quot;&gt;SchedClass&lt;/font&gt;" style="rounded=1;whiteSpace=wrap;html=1;strokeWidth=1.5;fillColor=#fff2cc;strokeColor=#d6b656;horizontal=1;verticalAlign=top;arcSize=8;" vertex="1" parent="1">
          <mxGeometry x="3282" y="3825" width="200" height="120" as="geometry" />
        </mxCell>
        <mxCell id="KVN5aAIuWyYufAwevNIm-10" value="preempt tick" style="rounded=1;whiteSpace=wrap;html=1;strokeWidth=1.5;fillColor=#f5f5f5;strokeColor=#666666;fontColor=#333333;" vertex="1" parent="1">
          <mxGeometry x="3287.60375" y="3859.638144329897" width="82.03125" height="37.11340206185567" as="geometry" />
        </mxCell>
        <mxCell id="KVN5aAIuWyYufAwevNIm-11" value="order" style="rounded=1;whiteSpace=wrap;html=1;strokeWidth=1.5;fillColor=#f5f5f5;strokeColor=#666666;fontColor=#333333;" vertex="1" parent="1">
          <mxGeometry x="3394.99875" y="3902.9481443298973" width="82.03125" height="37.11340206185567" as="geometry" />
        </mxCell>
        <mxCell id="KVN5aAIuWyYufAwevNIm-12" value="preempt wakeup/arrival" style="rounded=1;whiteSpace=wrap;html=1;strokeWidth=1.5;fillColor=#f5f5f5;strokeColor=#666666;fontColor=#333333;" vertex="1" parent="1">
          <mxGeometry x="3287.6087500000003" y="3902.939175257732" width="82.03125" height="37.11340206185567" as="geometry" />
        </mxCell>
        <mxCell id="KVN5aAIuWyYufAwevNIm-13" value="metric" style="rounded=1;whiteSpace=wrap;html=1;strokeWidth=1.5;fillColor=#f5f5f5;strokeColor=#666666;fontColor=#333333;" vertex="1" parent="1">
          <mxGeometry x="3394.99875" y="3859.639175257732" width="82.03125" height="37.11340206185567" as="geometry" />
        </mxCell>
        <mxCell id="KVN5aAIuWyYufAwevNIm-14" style="rounded=0;orthogonalLoop=1;jettySize=auto;html=1;endArrow=block;endFill=1;strokeWidth=1.5;entryX=0;entryY=0.5;entryDx=0;entryDy=0;exitX=1;exitY=0.5;exitDx=0;exitDy=0;" edge="1" parent="1" source="KVN5aAIuWyYufAwevNIm-8" target="KVN5aAIuWyYufAwevNIm-10">
          <mxGeometry relative="1" as="geometry">
            <mxPoint x="3268.01" y="4059" as="sourcePoint" />
            <mxPoint x="3268.01" y="3945" as="targetPoint" />
          </mxGeometry>
        </mxCell>
        <mxCell id="KVN5aAIuWyYufAwevNIm-15" style="edgeStyle=orthogonalEdgeStyle;rounded=0;orthogonalLoop=1;jettySize=auto;html=1;endArrow=block;endFill=1;strokeWidth=1.5;entryX=0;entryY=0.5;entryDx=0;entryDy=0;exitX=1;exitY=0.5;exitDx=0;exitDy=0;curved=0;startArrow=block;startFill=1;endSize=4;startSize=4;" edge="1" parent="1" source="KVN5aAIuWyYufAwevNIm-10" target="KVN5aAIuWyYufAwevNIm-13">
          <mxGeometry relative="1" as="geometry">
            <mxPoint x="3238" y="3932" as="sourcePoint" />
            <mxPoint x="3298" y="3931" as="targetPoint" />
            <Array as="points">
              <mxPoint x="3380.01" y="3878" />
              <mxPoint x="3380.01" y="3878" />
            </Array>
          </mxGeometry>
        </mxCell>
        <mxCell id="KVN5aAIuWyYufAwevNIm-16" style="rounded=0;orthogonalLoop=1;jettySize=auto;html=1;endArrow=block;endFill=1;strokeWidth=1.5;entryX=0;entryY=0.5;entryDx=0;entryDy=0;endSize=4;startSize=4;sourcePerimeterSpacing=0;targetPerimeterSpacing=0;edgeStyle=orthogonalEdgeStyle;" edge="1" parent="1" target="KVN5aAIuWyYufAwevNIm-11">
          <mxGeometry relative="1" as="geometry">
            <mxPoint x="3382.01" y="3878" as="sourcePoint" />
            <mxPoint x="3400.1087500000003" y="3921.484845360825" as="targetPoint" />
            <Array as="points">
              <mxPoint x="3382.01" y="3878" />
              <mxPoint x="3382.01" y="3921" />
            </Array>
          </mxGeometry>
        </mxCell>
        <mxCell id="KVN5aAIuWyYufAwevNIm-17" value="preempt" style="rounded=1;whiteSpace=wrap;html=1;strokeWidth=1.5;fillColor=#dae8fc;strokeColor=#6c8ebf;" vertex="1" parent="1">
          <mxGeometry x="3343.005" y="3969" width="65.625" height="30" as="geometry" />
        </mxCell>
        <mxCell id="KVN5aAIuWyYufAwevNIm-18" style="rounded=0;orthogonalLoop=1;jettySize=auto;html=1;endArrow=block;endFill=1;strokeWidth=1.5;exitX=1.008;exitY=0.797;exitDx=0;exitDy=0;entryX=0.5;entryY=0;entryDx=0;entryDy=0;exitPerimeter=0;edgeStyle=orthogonalEdgeStyle;" edge="1" parent="1" source="KVN5aAIuWyYufAwevNIm-10" target="KVN5aAIuWyYufAwevNIm-17">
          <mxGeometry relative="1" as="geometry">
            <mxPoint x="3227.62" y="3976" as="sourcePoint" />
            <mxPoint x="3302" y="4005" as="targetPoint" />
            <Array as="points">
              <mxPoint x="3376" y="3889" />
              <mxPoint x="3376" y="3933" />
              <mxPoint x="3376" y="3933" />
            </Array>
          </mxGeometry>
        </mxCell>
        <mxCell id="KVN5aAIuWyYufAwevNIm-20" value="" style="rounded=0;whiteSpace=wrap;html=1;strokeColor=#82b366;fillColor=#d5e8d4;" vertex="1" parent="1">
          <mxGeometry x="3141" y="4100" width="80" height="60" as="geometry" />
        </mxCell>
        <mxCell id="KVN5aAIuWyYufAwevNIm-21" value="" style="endArrow=none;html=1;rounded=0;strokeWidth=4;strokeColor=#6C8EBF;endFill=0;startArrow=block;startFill=1;" edge="1" parent="1">
          <mxGeometry width="50" height="50" relative="1" as="geometry">
            <mxPoint x="3181.4" y="4089.5" as="sourcePoint" />
            <mxPoint x="3181.4" y="4019.5" as="targetPoint" />
          </mxGeometry>
        </mxCell>
        <mxCell id="KVN5aAIuWyYufAwevNIm-22" value="T2" style="text;html=1;align=center;verticalAlign=middle;whiteSpace=wrap;rounded=0;fontSize=15;fontFamily=Open Sans;fontSource=https%3A%2F%2Ffonts.googleapis.com%2Fcss%3Ffamily%3DOpen%2BSans;" vertex="1" parent="1">
          <mxGeometry x="3109.6" y="4060" width="30" height="30" as="geometry" />
        </mxCell>
        <mxCell id="KVN5aAIuWyYufAwevNIm-23" value="4" style="text;html=1;align=center;verticalAlign=middle;whiteSpace=wrap;rounded=0;fontSize=15;fontFamily=Open Sans;fontSource=https%3A%2F%2Ffonts.googleapis.com%2Fcss%3Ffamily%3DOpen%2BSans;" vertex="1" parent="1">
          <mxGeometry x="3287.6" y="4160" width="30" height="30" as="geometry" />
        </mxCell>
        <mxCell id="KVN5aAIuWyYufAwevNIm-28" value="" style="endArrow=block;html=1;rounded=0;endFill=1;exitX=0;exitY=1;exitDx=0;exitDy=0;" edge="1" parent="1">
          <mxGeometry width="50" height="50" relative="1" as="geometry">
            <mxPoint x="3141" y="4160" as="sourcePoint" />
            <mxPoint x="3141" y="4000" as="targetPoint" />
          </mxGeometry>
        </mxCell>
        <mxCell id="KVN5aAIuWyYufAwevNIm-29" value="" style="endArrow=none;html=1;rounded=0;strokeWidth=4;strokeColor=#82B366;endFill=0;startArrow=block;startFill=1;" edge="1" parent="1">
          <mxGeometry width="50" height="50" relative="1" as="geometry">
            <mxPoint x="3140.6" y="4160" as="sourcePoint" />
            <mxPoint x="3140.6" y="4090" as="targetPoint" />
          </mxGeometry>
        </mxCell>
        <mxCell id="KVN5aAIuWyYufAwevNIm-31" value="T1" style="text;html=1;align=center;verticalAlign=middle;whiteSpace=wrap;rounded=0;fontSize=15;fontFamily=Open Sans;fontSource=https%3A%2F%2Ffonts.googleapis.com%2Fcss%3Ffamily%3DOpen%2BSans;" vertex="1" parent="1">
          <mxGeometry x="3109.6" y="4130" width="30" height="30" as="geometry" />
        </mxCell>
        <mxCell id="KVN5aAIuWyYufAwevNIm-34" value="" style="rounded=0;whiteSpace=wrap;html=1;strokeColor=#82b366;fillColor=#d5e8d4;" vertex="1" parent="1">
          <mxGeometry x="3301" y="4100" width="78.81" height="60" as="geometry" />
        </mxCell>
        <mxCell id="KVN5aAIuWyYufAwevNIm-25" value="" style="endArrow=block;html=1;rounded=0;strokeWidth=4;strokeColor=#82B366;endFill=1;startArrow=none;startFill=0;" edge="1" parent="1">
          <mxGeometry width="50" height="50" relative="1" as="geometry">
            <mxPoint x="3381" y="4159.5" as="sourcePoint" />
            <mxPoint x="3381" y="4090" as="targetPoint" />
          </mxGeometry>
        </mxCell>
        <mxCell id="KVN5aAIuWyYufAwevNIm-35" value="" style="rounded=0;whiteSpace=wrap;html=1;strokeColor=#6c8ebf;fillColor=#dae8fc;" vertex="1" parent="1">
          <mxGeometry x="3221" y="4030" width="80" height="60" as="geometry" />
        </mxCell>
        <mxCell id="KVN5aAIuWyYufAwevNIm-30" value="" style="rounded=1;whiteSpace=wrap;html=1;fillColor=none;strokeColor=#b85450;" vertex="1" parent="1">
          <mxGeometry x="3210.82" y="4027" width="20" height="136" as="geometry" />
        </mxCell>
        <mxCell id="KVN5aAIuWyYufAwevNIm-38" value="2" style="text;html=1;align=center;verticalAlign=middle;whiteSpace=wrap;rounded=0;fontSize=15;fontFamily=Open Sans;fontSource=https%3A%2F%2Ffonts.googleapis.com%2Fcss%3Ffamily%3DOpen%2BSans;" vertex="1" parent="1">
          <mxGeometry x="2665" y="4160" width="30" height="30" as="geometry" />
        </mxCell>
        <mxCell id="KVN5aAIuWyYufAwevNIm-40" value="2" style="text;html=1;align=center;verticalAlign=middle;whiteSpace=wrap;rounded=0;fontSize=15;fontFamily=Open Sans;fontSource=https%3A%2F%2Ffonts.googleapis.com%2Fcss%3Ffamily%3DOpen%2BSans;" vertex="1" parent="1">
          <mxGeometry x="3205.8199999999997" y="4160" width="30" height="30" as="geometry" />
        </mxCell>
        <mxCell id="KVN5aAIuWyYufAwevNIm-41" value="6" style="text;html=1;align=center;verticalAlign=middle;whiteSpace=wrap;rounded=0;fontSize=15;fontFamily=Open Sans;fontSource=https%3A%2F%2Ffonts.googleapis.com%2Fcss%3Ffamily%3DOpen%2BSans;" vertex="1" parent="1">
          <mxGeometry x="3365" y="4160" width="30" height="30" as="geometry" />
        </mxCell>
        <mxCell id="KVN5aAIuWyYufAwevNIm-42" value="6" style="text;html=1;align=center;verticalAlign=middle;whiteSpace=wrap;rounded=0;fontSize=15;fontFamily=Open Sans;fontSource=https%3A%2F%2Ffonts.googleapis.com%2Fcss%3Ffamily%3DOpen%2BSans;" vertex="1" parent="1">
          <mxGeometry x="2823.9900000000002" y="4160" width="30" height="30" as="geometry" />
        </mxCell>
        <mxCell id="KVN5aAIuWyYufAwevNIm-24" value="" style="endArrow=block;html=1;rounded=0;endFill=1;" edge="1" parent="1">
          <mxGeometry width="50" height="50" relative="1" as="geometry">
            <mxPoint x="3141" y="4090" as="sourcePoint" />
            <mxPoint x="3420" y="4090" as="targetPoint" />
          </mxGeometry>
        </mxCell>
        <mxCell id="KVN5aAIuWyYufAwevNIm-27" value="" style="endArrow=block;html=1;rounded=0;endFill=1;exitX=0;exitY=1;exitDx=0;exitDy=0;" edge="1" parent="1" source="KVN5aAIuWyYufAwevNIm-33">
          <mxGeometry width="50" height="50" relative="1" as="geometry">
            <mxPoint x="3221" y="4160" as="sourcePoint" />
            <mxPoint x="3420" y="4160" as="targetPoint" />
          </mxGeometry>
        </mxCell>
      </root>
    </mxGraphModel>
  </diagram>
</mxfile>
